<svg width="125" height="150" viewBox="0 0 125 150" fill="none" xmlns="http://www.w3.org/2000/svg">
<g clip-path="url(#clip0_2591_17266)">
<path d="M115.183 12.6982H17.2936C13.7027 12.6982 10.7827 15.6182 10.7827 19.2091V86.2899C10.7827 89.8809 13.7027 92.8008 17.2936 92.8008H115.183C118.774 92.8008 121.694 89.8809 121.694 86.2899V19.2091C121.694 15.6182 118.774 12.6982 115.183 12.6982Z" fill="#F2F2F2"/>
<path d="M104.563 17.8652H6.67351C3.08259 17.8652 0.162598 20.7852 0.162598 24.3761V91.4569C0.162598 95.0479 3.08259 97.9678 6.67351 97.9678H104.563C108.154 97.9678 111.074 95.0479 111.074 91.4569V24.3761C111.074 20.7852 108.154 17.8652 104.563 17.8652ZM110.389 71.7133C110.389 85.8351 98.9412 97.2832 84.8193 97.2832H6.67351C3.45575 97.2832 0.847235 94.6747 0.847235 91.4569V24.3761C0.847235 21.1584 3.45574 18.5499 6.67349 18.5499H104.563C107.781 18.5499 110.389 21.1584 110.389 24.3761V71.7133Z" fill="#3F3D56"/>
<path d="M14.1453 83.43L13.5659 83.0653C13.9425 82.4667 14.3311 81.8866 14.7206 81.3408L15.2778 81.7386C14.8959 82.2735 14.515 82.8425 14.1453 83.43Z" fill="#CCCCCC"/>
<path d="M17.9203 78.5513L17.4302 78.0732C18.4749 77.0026 19.5743 76.0835 20.6979 75.3415L21.0753 75.9128C19.9924 76.6279 18.9308 77.5156 17.9203 78.5513ZM35.0004 74.2298C34.1829 74.2298 33.4381 74.1252 32.8805 74.0339L32.9911 73.3583C33.5561 73.4507 34.2366 73.5452 35.0004 73.5452C35.675 73.5452 36.3381 73.4711 37.0274 73.3185L37.1752 73.9871C36.4367 74.1504 35.7253 74.2298 35.0004 74.2298ZM24.7561 74.1392L24.5502 73.4863C25.2856 73.2543 26.0475 73.0805 26.8145 72.9694C27.4733 72.8741 28.1031 72.8278 28.7397 72.8278H28.7819V73.5124H28.7397C28.1362 73.5124 27.5386 73.5564 26.9126 73.647C26.182 73.7528 25.4563 73.9184 24.7561 74.1392ZM41.0749 72.1607L40.6373 71.6342C41.582 70.8494 42.2592 69.9005 42.9762 68.8958L43.2622 68.4961L43.8178 68.8963L43.5335 69.2934C42.79 70.3353 42.0877 71.3194 41.0749 72.1607ZM46.5654 65.8833L46.1442 65.3434C47.067 64.6233 48.1097 64.0398 49.3315 63.5596C49.5396 63.4777 49.7385 63.4046 49.9294 63.3396L50.1504 63.9875C49.9689 64.0495 49.78 64.1189 49.5821 64.1968C48.4222 64.6526 47.4356 65.2042 46.5654 65.8833ZM54.8307 63.5053C54.6004 63.5053 54.3819 63.5031 54.1719 63.5008L54.18 62.8161C54.3946 62.8186 54.6186 62.8191 54.8556 62.8206C55.6612 62.8206 56.7833 62.7977 58.3224 62.6196L58.4013 63.2995C56.8114 63.4837 55.6716 63.5029 54.8307 63.5053ZM62.5659 62.6087L62.4302 61.9378C63.6599 61.689 65.0905 61.393 66.5066 61.0276L66.6778 61.6905C65.2455 62.0601 63.8044 62.3583 62.5659 62.6087ZM70.7107 60.3926L70.4547 59.7576C71.8274 59.2042 73.0194 58.5801 74.0988 57.8493L74.4826 58.4163C73.3627 59.1745 72.1288 59.821 70.7107 60.3926ZM77.6281 55.5006L77.0725 55.1004C77.2636 54.8353 77.4287 54.5767 77.5884 54.3267C78.0597 53.5886 78.5473 52.8252 79.7081 51.8882L79.7894 51.8231L80.2136 52.3604L80.1382 52.4207C79.0641 53.2879 78.6277 53.9715 78.1654 54.6952C78.0007 54.9531 77.8302 55.2199 77.6281 55.5006ZM83.77 50.3658L83.5203 49.7283C84.7405 49.2499 86.1186 48.865 87.6164 48.584L87.7428 49.2569C86.2871 49.53 84.9504 49.9031 83.77 50.3658Z" fill="#CCCCCC"/>
<path d="M91.9276 48.7543L91.8848 48.071C92.55 48.0294 93.2455 48.002 93.9521 47.9893L93.9644 48.6739C93.2679 48.6863 92.5826 48.7133 91.9276 48.7543Z" fill="#CCCCCC"/>
<path d="M21.7797 25.2832H12.1742C11.6915 25.2832 11.2979 25.6769 11.2979 26.1595C11.2979 26.6456 11.6915 27.0393 12.1742 27.0393H21.7797C22.2623 27.0393 22.656 26.6456 22.656 26.1595C22.656 25.6769 22.2623 25.2832 21.7797 25.2832Z" fill="#E6E6E6"/>
<path d="M37.8685 25.2832H28.2631C27.7804 25.2832 27.3867 25.6769 27.3867 26.1595C27.3867 26.6456 27.7804 27.0393 28.2631 27.0393H37.8685C38.3512 27.0393 38.7449 26.6456 38.7449 26.1595C38.7449 25.6769 38.3512 25.2832 37.8685 25.2832Z" fill="#E6E6E6"/>
<path d="M53.9574 25.2832H44.3519C43.8693 25.2832 43.4756 25.6769 43.4756 26.1595C43.4756 26.6456 43.8693 27.0393 44.3519 27.0393H53.9574C54.4401 27.0393 54.8337 26.6456 54.8337 26.1595C54.8337 25.6769 54.4401 25.2832 53.9574 25.2832Z" fill="#E6E6E6"/>
<path d="M98.5794 82.9053H11.2881V83.5899H98.5794V82.9053Z" fill="#E6E6E6"/>
<path d="M93.9686 32.9268C87.7555 33.0877 83.1205 34.9157 80.1834 38.3526C79.0982 39.626 78.6566 40.629 78.1911 41.6902C77.729 42.7377 77.2566 43.816 76.1577 45.2229V44.059C76.8389 43.0595 77.2052 42.2242 77.5646 41.4129C78.0507 40.3038 78.5129 39.2563 79.6631 37.911C82.7302 34.3166 87.5364 32.4099 93.948 32.2422L93.9686 32.9268Z" fill="#CCCCCC"/>
<path d="M78.1909 41.6906C77.7287 42.7381 77.2563 43.8164 76.1575 45.2233C76.0274 45.3911 75.8871 45.5657 75.7364 45.7471C71.7724 50.4608 66.4767 52.0081 62.2183 53.2541C61.9513 53.3329 61.6911 53.4048 61.4378 53.4732C57.6517 54.5002 55.5773 54.4625 54.0334 54.4386C52.4827 54.4112 51.4592 54.3941 49.6278 55.4415C46.2696 57.3551 44.8935 60.1553 43.5619 62.863C42.1892 65.6495 40.8952 68.2819 37.5953 69.5177C35.3052 70.3735 33.6963 69.949 31.9949 69.504C30.5332 69.1172 27.8988 59.5959 25.5662 58.2075C20.7498 59.2173 17.8229 74.9571 14.1704 83.385L13.5405 83.1112C17.2889 74.4711 20.3766 58.5977 25.4224 57.5366C27.6714 57.0642 30.6325 68.436 32.1695 68.8399C33.7647 69.261 35.2675 69.6546 37.3556 68.8742C40.4023 67.7376 41.5799 65.338 42.9457 62.5618C44.2602 59.8917 45.7493 56.8656 49.2855 54.8459C51.2812 53.706 52.4416 53.7265 54.0437 53.7539C55.5704 53.7813 57.6312 53.8155 61.4378 52.7646C61.6295 52.7099 61.8246 52.6551 62.0266 52.5969C66.196 51.3782 71.3821 49.8618 75.2093 45.3089C75.5858 44.8605 75.8973 44.4463 76.1575 44.0594C76.8387 43.0599 77.205 42.2246 77.5644 41.4133C78.0505 40.3042 78.6564 40.6294 78.1909 41.6906Z" fill="#48BB78"/>
<path d="M41.6861 120.006C41.4151 119.062 40.9511 118.257 40.3986 117.683L38.3913 108.533L34.0161 109.605L36.5233 118.772C36.3585 119.547 36.3914 120.473 36.6624 121.417C37.2815 123.572 38.9079 125.004 40.2951 124.614C41.6824 124.225 42.3051 122.162 41.6861 120.006Z" fill="#FFB6B6"/>
<path d="M41.081 59.9838C41.081 59.9838 34.1715 59.8423 32.4146 64.874C30.8154 69.4538 28.9197 82.0363 29.9445 82.7634L34.3066 113.738L40.5268 112.883L38.9304 75.7183L41.081 59.9838Z" fill="#38A169"/>
<path d="M73.0767 117.48L71.8512 150H55.591L54.9338 135.427L52.0446 150H34.6172L36.7909 124.949L39.0365 119.681L40.5564 116.11L73.0767 117.48Z" fill="#2F2E41"/>
<path d="M60.0687 53.8087L48.7722 53.124L45.0067 57.9165L36.791 60.9974L40.5565 97.6255L38.8449 119.534C38.8449 119.534 62.8073 138.704 73.0768 117.48L70.3383 91.8061L71.0229 62.0243L63.1496 58.6011L60.0687 53.8087Z" fill="#38A169"/>
<path d="M81.8162 45.4772C81.9388 46.664 81.7831 47.7801 81.4247 48.6749L83.3065 59.907L77.9356 60.6461L76.605 49.1727C76.0712 48.3699 75.6908 47.3092 75.5682 46.1224C75.2882 43.4112 76.4599 41.0688 78.1852 40.8907C79.9105 40.7125 81.5362 42.7659 81.8162 45.4772Z" fill="#FFB6B6"/>
<path d="M72.4613 63.3101C70.6098 60.1454 66.017 59.8471 63.96 62.8822C63.3976 63.7119 63.5543 64.6445 63.42 65.7651C62.85 70.5221 71.9658 84.5789 78.2733 86.1974C79.101 86.4098 79.5725 87.3026 80.4079 87.4821C82.8828 88.014 85.187 86.0497 85.0534 83.5219L83.34 51.1016L76.142 53.5567L76.6028 70.3887L72.4613 63.3101Z" fill="#38A169"/>
<path d="M55.5925 52.2378C61.088 52.2378 65.543 47.7828 65.543 42.2873C65.543 36.7919 61.088 32.3369 55.5925 32.3369C50.0971 32.3369 45.6421 36.7919 45.6421 42.2873C45.6421 47.7828 50.0971 52.2378 55.5925 52.2378Z" fill="#FFB6B6"/>
<path d="M64.8609 34.9804C64.7754 35.001 66.1708 33.6409 66.2302 33.6111C67.5995 32.9265 66.1925 39.6188 65.2033 39.4306C62.7694 38.9684 61.7185 38.051 60.7737 40.3411C60.5101 40.9778 60.3458 41.6967 59.8323 42.152C59.1271 42.7716 57.9564 42.7202 57.3813 43.4596C56.9191 44.0553 57.0527 44.9316 57.395 45.6026C57.7373 46.2769 58.2576 46.8486 58.5691 47.5367C58.9183 48.3103 57.4292 50.7716 56.861 52.1545V52.158L56.8576 52.1661C56.7066 52.5288 56.3478 51.4839 55.9689 51.3795C55.5156 51.2547 54.8478 52.3251 54.1258 52.1306C54.1224 52.1306 54.119 52.1272 54.1156 52.1272C53.4275 51.9355 52.6607 51.7301 51.9008 51.5247H51.8973C49.7578 50.9427 49.217 51.778 49.1143 51.754L47.7861 50.3642C47.3303 50.0323 47.3818 48.9609 47.0604 48.6732C46.7975 48.4378 46.1422 48.9816 45.9491 48.7554C45.0021 47.6463 44.7842 46.5368 44.226 44.3463C43.7159 42.3437 42.6581 36.3497 44.8319 36.0792C46.8824 35.8225 45.383 32.9676 47.4472 33.0737C47.324 32.5534 47.5533 31.9954 47.9264 31.612C48.2961 31.2252 48.7891 30.9855 49.2854 30.7802C51.733 29.7806 51.3257 28.9214 53.9067 29.5033C54.1635 29.1439 57.8913 29.3835 58.3569 29.5033C58.3911 29.5101 57.2033 29.7943 59.0415 29.5033C58.9731 29.9244 60.1369 30.1092 60.0685 30.5303C60.3252 30.1845 63.0843 32.17 63.1494 32.5842C63.2349 33.1011 62.4544 32.8375 62.9748 32.9162C63.2829 32.9642 63.81 33.5906 63.7587 33.9021C63.9812 33.6009 64.2037 33.303 64.4296 33.0018C64.4707 33.0052 64.5083 33.0121 64.5494 33.0189C65.5901 33.2175 64.397 36.6194 64.4399 35.5589C64.5186 33.6111 65.8982 34.7511 64.8609 34.9804Z" fill="#2F2E41"/>
<path d="M102.982 87.9417C103.058 88.1306 103.323 88.1306 103.4 87.9417C103.934 86.624 104.695 85.1483 105.523 84.0205C105.655 83.84 105.473 83.5987 105.262 83.6749L103.488 84.3168V73.333H102.894V84.3168L101.119 83.6748C100.908 83.5986 100.725 83.8399 100.858 84.0204C101.686 85.1482 102.447 86.624 102.982 87.9417Z" fill="#3F3D56"/>
<path d="M114.617 99.2505C114.56 99.4461 114.767 99.6106 114.944 99.5104C116.183 98.8109 117.696 98.1286 119.046 97.7602C119.262 97.7012 119.269 97.3987 119.056 97.3273L117.268 96.7266L124.099 88.1253L123.634 87.7559L116.803 96.3572L115.812 94.7505C115.694 94.5599 115.401 94.6352 115.393 94.859C115.34 96.257 115.018 97.8859 114.617 99.2505Z" fill="#3F3D56"/>
<path d="M109.06 106.581H97.5167C96.8 106.581 96.2169 105.997 96.2169 105.281C94.6907 100.82 94.7208 96.4486 96.2169 92.1621C96.2169 91.4454 96.8 90.8623 97.5167 90.8623H109.06C109.777 90.8623 110.36 91.4454 110.36 92.1621V105.281C110.36 105.997 109.777 106.581 109.06 106.581Z" fill="#E6E6E6"/>
<path d="M99.9898 91.25C98.1199 91.25 96.604 92.7659 96.604 94.6358V105.003C96.604 105.661 97.1372 106.194 97.7948 106.194H104.178C107.378 106.194 109.972 103.6 109.972 100.4V92.4408C109.972 91.7832 109.439 91.25 108.782 91.25H99.9898Z" fill="white"/>
<path d="M105.976 95.0616H100.572C100.436 95.0616 100.325 94.9507 100.325 94.8144C100.325 94.6782 100.436 94.5674 100.572 94.5674H105.976C106.113 94.5674 106.223 94.6782 106.223 94.8144C106.223 94.9507 106.113 95.0616 105.976 95.0616Z" fill="#E6E6E6"/>
<path d="M105.976 100.331H100.572C100.436 100.331 100.325 100.22 100.325 100.084C100.325 99.9477 100.436 99.8369 100.572 99.8369H105.976C106.113 99.8369 106.223 99.9477 106.223 100.084C106.223 100.22 106.113 100.331 105.976 100.331Z" fill="#E6E6E6"/>
<path d="M108.877 97.6983H97.6719C97.5357 97.6983 97.4248 97.5874 97.4248 97.4512C97.4248 97.3149 97.5357 97.2041 97.6719 97.2041H108.877C109.013 97.2041 109.124 97.3149 109.124 97.4512C109.124 97.5874 109.013 97.6983 108.877 97.6983Z" fill="#E6E6E6"/>
<path d="M109.009 102.474H104.334C104.197 102.474 104.086 102.363 104.086 102.227C104.086 102.09 104.197 101.979 104.334 101.979H109.009C109.145 101.979 109.256 102.09 109.256 102.227C109.256 102.363 109.145 102.474 109.009 102.474Z" fill="#E6E6E6"/>
<path d="M4.26642 8.4634C6.62269 8.4634 8.53283 6.59351 8.53283 4.28688C8.53283 1.98025 6.62269 0.110352 4.26642 0.110352C1.91014 0.110352 0 1.98025 0 4.28688C0 6.59351 1.91014 8.4634 4.26642 8.4634Z" fill="#48BB78"/>
<path d="M38.4684 2.85762H15.504C14.7162 2.85762 14.0752 2.21663 14.0752 1.42881C14.0752 0.640989 14.7162 0 15.504 0H38.4684C39.2563 0 39.8973 0.640989 39.8973 1.42881C39.8973 2.21663 39.2563 2.85762 38.4684 2.85762Z" fill="#F2F2F2"/>
<path d="M56.39 7.69356H15.504C14.7162 7.69356 14.0752 7.05257 14.0752 6.26475C14.0752 5.47693 14.7162 4.83594 15.504 4.83594H56.39C57.1778 4.83594 57.8188 5.47693 57.8188 6.26475C57.8188 7.05257 57.1778 7.69356 56.39 7.69356Z" fill="#F2F2F2"/>
<path d="M105 2.25C103.072 2.25 101.187 2.82183 99.5832 3.89317C97.9798 4.96451 96.7301 6.48726 95.9922 8.26884C95.2542 10.0504 95.0611 12.0108 95.4373 13.9021C95.8136 15.7934 96.7422 17.5307 98.1057 18.8943C99.4693 20.2579 101.207 21.1865 103.098 21.5627C104.989 21.9389 106.95 21.7458 108.731 21.0078C110.513 20.2699 112.035 19.0202 113.107 17.4168C114.178 15.8134 114.75 13.9284 114.75 12C114.747 9.41498 113.719 6.93661 111.891 5.10872C110.063 3.28084 107.585 2.25273 105 2.25ZM109.281 10.2806L104.031 15.5306C103.961 15.6004 103.878 15.6557 103.787 15.6934C103.696 15.7312 103.599 15.7506 103.5 15.7506C103.401 15.7506 103.304 15.7312 103.213 15.6934C103.122 15.6557 103.039 15.6004 102.969 15.5306L100.719 13.2806C100.579 13.1399 100.5 12.949 100.5 12.75C100.5 12.551 100.579 12.3601 100.719 12.2194C100.86 12.0786 101.051 11.9996 101.25 11.9996C101.449 11.9996 101.64 12.0786 101.781 12.2194L103.5 13.9397L108.219 9.21937C108.289 9.14969 108.372 9.09442 108.463 9.0567C108.554 9.01899 108.651 8.99958 108.75 8.99958C108.849 8.99958 108.946 9.01899 109.037 9.0567C109.128 9.09442 109.211 9.14969 109.281 9.21937C109.35 9.28906 109.406 9.37178 109.443 9.46283C109.481 9.55387 109.5 9.65145 109.5 9.75C109.5 9.84855 109.481 9.94613 109.443 10.0372C109.406 10.1282 109.35 10.2109 109.281 10.2806Z" fill="#48BB78"/>
</g>
<defs>
<clipPath id="clip0_2591_17266">
<rect width="124.099" height="150" fill="white"/>
</clipPath>
</defs>
</svg>
