<svg width="83" height="61" viewBox="0 0 83 61" fill="none" xmlns="http://www.w3.org/2000/svg">
<g id="undraw_education_f8ru (1) 1" clip-path="url(#clip0_438_7656)">
<path id="Vector" d="M52.7479 45.48V59.9436H16.5113C12.3826 59.9436 9.02344 56.6993 9.02344 52.7118C9.02344 48.7243 12.3826 45.48 16.5113 45.48H52.7479Z" fill="#F2F2F2"/>
<path id="Vector_2" d="M53.6434 59.8326C53.6433 59.9801 53.5847 60.1216 53.4804 60.2259C53.376 60.3302 53.2346 60.3888 53.0871 60.3889H15.8712C13.8499 60.3889 11.9114 59.5859 10.4822 58.1567C9.05295 56.7274 8.25 54.7889 8.25 52.7677C8.25 50.7464 9.05295 48.8079 10.4822 47.3787C11.9114 45.9494 13.8499 45.1465 15.8712 45.1465H53.0871C53.2346 45.1465 53.3761 45.2051 53.4804 45.3094C53.5847 45.4137 53.6434 45.5552 53.6434 45.7028C53.6434 45.8503 53.5847 45.9918 53.4804 46.0961C53.3761 46.2005 53.2346 46.2591 53.0871 46.2591H15.8712C14.145 46.2591 12.4895 46.9448 11.2689 48.1654C10.0483 49.386 9.36258 51.0415 9.36258 52.7677C9.36258 54.4939 10.0483 56.1494 11.2689 57.37C12.4895 58.5906 14.145 59.2763 15.8712 59.2763H53.0871C53.2346 59.2763 53.376 59.335 53.4804 59.4393C53.5847 59.5436 53.6433 59.6851 53.6434 59.8326Z" fill="#6C63FF"/>
<path id="Vector_3" d="M52.7548 48.8177H13.8144C13.7849 48.8177 13.7566 48.806 13.7357 48.7851C13.7148 48.7643 13.7031 48.736 13.7031 48.7065C13.7031 48.677 13.7148 48.6487 13.7357 48.6278C13.7566 48.6069 13.7849 48.5952 13.8144 48.5952H52.7548C52.7843 48.5952 52.8126 48.6069 52.8334 48.6278C52.8543 48.6487 52.866 48.677 52.866 48.7065C52.866 48.736 52.8543 48.7643 52.8334 48.7851C52.8126 48.806 52.7843 48.8177 52.7548 48.8177Z" fill="#CCCCCC"/>
<path id="Vector_4" d="M52.7548 51.4881H13.8144C13.7849 51.4881 13.7566 51.4764 13.7357 51.4556C13.7148 51.4347 13.7031 51.4064 13.7031 51.3769C13.7031 51.3474 13.7148 51.3191 13.7357 51.2982C13.7566 51.2773 13.7849 51.2656 13.8144 51.2656H52.7548C52.7843 51.2656 52.8126 51.2773 52.8334 51.2982C52.8543 51.3191 52.866 51.3474 52.866 51.3769C52.866 51.4064 52.8543 51.4347 52.8334 51.4556C52.8126 51.4764 52.7843 51.4881 52.7548 51.4881Z" fill="#CCCCCC"/>
<path id="Vector_5" d="M52.7548 54.1583H13.8144C13.7849 54.1583 13.7566 54.1466 13.7357 54.1257C13.7148 54.1049 13.7031 54.0766 13.7031 54.047C13.7031 54.0175 13.7148 53.9892 13.7357 53.9684C13.7566 53.9475 13.7849 53.9358 13.8144 53.9358H52.7548C52.7843 53.9358 52.8126 53.9475 52.8334 53.9684C52.8543 53.9892 52.866 54.0175 52.866 54.047C52.866 54.0766 52.8543 54.1049 52.8334 54.1257C52.8126 54.1466 52.7843 54.1583 52.7548 54.1583Z" fill="#CCCCCC"/>
<path id="Vector_6" d="M52.7548 56.8285H13.8144C13.7849 56.8285 13.7566 56.8168 13.7357 56.7959C13.7148 56.775 13.7031 56.7467 13.7031 56.7172C13.7031 56.6877 13.7148 56.6594 13.7357 56.6385C13.7566 56.6177 13.7849 56.606 13.8144 56.606H52.7548C52.7843 56.606 52.8126 56.6177 52.8334 56.6385C52.8543 56.6594 52.866 56.6877 52.866 56.7172C52.866 56.7467 52.8543 56.775 52.8334 56.7959C52.8126 56.8168 52.7843 56.8285 52.7548 56.8285Z" fill="#CCCCCC"/>
<path id="Vector_7" d="M80.7564 48.2029L71.6817 59.4654L43.4649 36.7297C40.25 34.1393 39.6698 29.5055 42.1717 26.4005C44.6735 23.2955 49.3247 22.8768 52.5397 25.4672L80.7564 48.2029Z" fill="#F2F2F2"/>
<path id="Vector_8" d="M72.4447 59.937C72.3521 60.0519 72.2177 60.1252 72.0711 60.141C71.9244 60.1568 71.7774 60.1137 71.6625 60.0212L42.6833 36.6712C41.1094 35.403 40.1037 33.5615 39.8875 31.5518C39.6713 29.5422 40.2623 27.5289 41.5305 25.955C42.7987 24.3811 44.6402 23.3754 46.6498 23.1592C48.6595 22.943 50.6727 23.534 52.2467 24.8022L81.2259 48.1522C81.2829 48.1981 81.3302 48.2547 81.3653 48.3188C81.4003 48.3829 81.4224 48.4533 81.4302 48.526C81.4381 48.5986 81.4315 48.6721 81.4109 48.7422C81.3904 48.8124 81.3562 48.8777 81.3103 48.9347C81.2645 48.9916 81.2079 49.0389 81.1437 49.0739C81.0796 49.1089 81.0092 49.1309 80.9365 49.1387C80.8638 49.1465 80.7903 49.1399 80.7202 49.1193C80.6501 49.0987 80.5848 49.0645 80.5279 49.0186L51.5486 25.6686C50.8831 25.1319 50.1184 24.7316 49.2981 24.4906C48.4779 24.2495 47.6182 24.1724 46.7681 24.2637C45.9181 24.355 45.0943 24.6128 44.3439 25.0225C43.5936 25.4322 42.9313 25.9857 42.3949 26.6515C41.8584 27.3172 41.4584 28.0821 41.2177 28.9024C40.977 29.7227 40.9002 30.5825 40.9918 31.4325C41.0834 32.2825 41.3416 33.1062 41.7516 33.8564C42.1616 34.6066 42.7154 35.2687 43.3813 35.8048L72.3606 59.1548C72.4754 59.2474 72.5488 59.3818 72.5646 59.5285C72.5804 59.6752 72.5373 59.8221 72.4447 59.937Z" fill="#CCCCCC"/>
<path id="Vector_9" d="M78.6604 50.8018L48.3383 26.3698C48.327 26.3606 48.3175 26.3493 48.3105 26.3365C48.3035 26.3236 48.2991 26.3096 48.2975 26.295C48.2959 26.2805 48.2973 26.2658 48.3014 26.2518C48.3055 26.2378 48.3123 26.2247 48.3215 26.2133C48.3307 26.2019 48.342 26.1925 48.3548 26.1855C48.3676 26.1785 48.3817 26.1741 48.3962 26.1725C48.4108 26.171 48.4255 26.1723 48.4395 26.1764C48.4535 26.1805 48.4666 26.1873 48.4779 26.1965L78.8 50.6285C78.8114 50.6377 78.8209 50.649 78.8279 50.6618C78.835 50.6746 78.8394 50.6887 78.841 50.7033C78.8425 50.7178 78.8412 50.7325 78.8371 50.7465C78.833 50.7606 78.8262 50.7737 78.817 50.785C78.8078 50.7964 78.7965 50.8059 78.7836 50.8129C78.7708 50.8199 78.7567 50.8243 78.7422 50.8259C78.7276 50.8274 78.7129 50.8261 78.6989 50.822C78.6849 50.8178 78.6718 50.811 78.6604 50.8018Z" fill="#CCCCCC"/>
<path id="Vector_10" d="M76.9885 52.881L46.6663 28.449C46.6434 28.4305 46.6288 28.4036 46.6256 28.3743C46.6225 28.345 46.6311 28.3156 46.6496 28.2927C46.6681 28.2697 46.695 28.255 46.7243 28.2519C46.7536 28.2487 46.783 28.2573 46.806 28.2758L77.1281 52.7078C77.1395 52.7169 77.1489 52.7282 77.156 52.7411C77.163 52.7539 77.1674 52.768 77.169 52.7825C77.1705 52.7971 77.1692 52.8118 77.1651 52.8258C77.161 52.8398 77.1542 52.8529 77.145 52.8643C77.1358 52.8757 77.1245 52.8851 77.1117 52.8922C77.0988 52.8992 77.0847 52.9036 77.0702 52.9051C77.0557 52.9067 77.041 52.9053 77.0269 52.9012C77.0129 52.8971 76.9998 52.8902 76.9885 52.881Z" fill="#CCCCCC"/>
<path id="Vector_11" d="M75.3089 54.9602L44.9868 30.5282C44.9638 30.5097 44.9491 30.4828 44.946 30.4535C44.9428 30.4241 44.9514 30.3948 44.9699 30.3718C44.9884 30.3488 45.0153 30.3341 45.0447 30.331C45.074 30.3278 45.1034 30.3364 45.1264 30.3549L75.4485 54.787C75.4599 54.7961 75.4693 54.8074 75.4763 54.8203C75.4833 54.8331 75.4877 54.8472 75.4893 54.8617C75.4909 54.8762 75.4895 54.8909 75.4854 54.9049C75.4813 54.9189 75.4745 54.932 75.4653 54.9434C75.4561 54.9548 75.4448 54.9642 75.432 54.9712C75.4192 54.9782 75.4051 54.9826 75.3906 54.9842C75.3761 54.9858 75.3614 54.9845 75.3473 54.9803C75.3333 54.9762 75.3203 54.9694 75.3089 54.9602Z" fill="#CCCCCC"/>
<path id="Vector_12" d="M73.6292 57.0396L43.3071 32.6076C43.2957 32.5984 43.2862 32.5871 43.2792 32.5743C43.2722 32.5614 43.2678 32.5474 43.2663 32.5328C43.2647 32.5183 43.266 32.5036 43.2701 32.4896C43.2742 32.4756 43.2811 32.4625 43.2903 32.4511C43.2994 32.4397 43.3107 32.4303 43.3236 32.4233C43.3364 32.4163 43.3505 32.4119 43.365 32.4103C43.3795 32.4087 43.3942 32.4101 43.4082 32.4142C43.4222 32.4183 43.4353 32.4251 43.4467 32.4343L73.7688 56.8663C73.7802 56.8755 73.7897 56.8868 73.7967 56.8996C73.8037 56.9124 73.8081 56.9265 73.8097 56.941C73.8113 56.9556 73.81 56.9703 73.8059 56.9843C73.8018 56.9984 73.7949 57.0114 73.7857 57.0228C73.7766 57.0342 73.7652 57.0437 73.7524 57.0507C73.7396 57.0577 73.7255 57.0621 73.7109 57.0636C73.6964 57.0652 73.6817 57.0639 73.6677 57.0597C73.6536 57.0556 73.6406 57.0488 73.6292 57.0396Z" fill="#CCCCCC"/>
<path id="Vector_13" d="M82.6649 60.5001H0.111258C0.0817507 60.5001 0.0534517 60.4884 0.0325867 60.4675C0.0117217 60.4467 0 60.4184 0 60.3888C0 60.3593 0.0117217 60.331 0.0325867 60.3102C0.0534517 60.2893 0.0817507 60.2776 0.111258 60.2776H82.6649C82.6944 60.2776 82.7227 60.2893 82.7435 60.3102C82.7644 60.331 82.7761 60.3593 82.7761 60.3888C82.7761 60.4184 82.7644 60.4467 82.7435 60.4675C82.7227 60.4884 82.6944 60.5001 82.6649 60.5001Z" fill="#CCCCCC"/>
<path id="Vector_14" d="M37.6112 43.9599L36.3393 43.9598L35.7344 39.0537L37.6116 39.0539L37.6112 43.9599Z" fill="#FFB8B8"/>
<path id="Vector_15" d="M35.4351 43.5964H37.8881V45.1409H33.8906C33.8906 44.9381 33.9306 44.7373 34.0082 44.5499C34.0858 44.3625 34.1996 44.1922 34.343 44.0488C34.4864 43.9054 34.6567 43.7916 34.8441 43.714C35.0314 43.6364 35.2323 43.5964 35.4351 43.5964Z" fill="#2F2E41"/>
<path id="Vector_16" d="M24.619 43.9599L23.3471 43.9598L22.7422 39.0537L24.6194 39.0539L24.619 43.9599Z" fill="#FFB8B8"/>
<path id="Vector_17" d="M22.4351 43.5964H24.8881V45.1409H20.8906C20.8906 44.9381 20.9306 44.7373 21.0082 44.5499C21.0858 44.3625 21.1996 44.1922 21.343 44.0488C21.4864 43.9054 21.6567 43.7916 21.8441 43.714C22.0314 43.6364 22.2323 43.5964 22.4351 43.5964Z" fill="#2F2E41"/>
<path id="Vector_18" d="M28.8672 7.56869V7.01239C28.8672 6.06078 29.2452 5.14814 29.9181 4.47524C30.591 3.80235 31.5036 3.42432 32.4553 3.42432C33.4069 3.42432 34.3195 3.80235 34.9924 4.47524C35.6653 5.14814 36.0433 6.06078 36.0433 7.01239V7.56869C36.0433 8.25474 35.7708 8.91269 35.2857 9.39781C34.8006 9.88292 34.1426 10.1554 33.4566 10.1554H31.4539C31.1143 10.1554 30.7779 10.0885 30.464 9.95854C30.1502 9.82855 29.865 9.63801 29.6248 9.39781C29.3846 9.1576 29.1941 8.87244 29.0641 8.5586C28.9341 8.24476 28.8672 7.90839 28.8672 7.56869Z" fill="#2F2E41"/>
<path id="Vector_19" d="M32.4514 10.3466C33.9605 10.3466 35.184 9.12315 35.184 7.61396C35.184 6.10478 33.9605 4.88135 32.4514 4.88135C30.9422 4.88135 29.7188 6.10478 29.7188 7.61396C29.7188 9.12315 30.9422 10.3466 32.4514 10.3466Z" fill="#FFB8B8"/>
<path id="Vector_20" d="M17.5915 17.0059C17.7024 16.9012 17.8349 16.8221 17.9797 16.7741C18.1245 16.7262 18.278 16.7105 18.4295 16.7283C18.581 16.7461 18.7267 16.7969 18.8564 16.8771C18.9862 16.9573 19.0967 17.065 19.1803 17.1925L21.5228 16.7494L22.1393 18.1073L18.8225 18.6866C18.5989 18.8128 18.3367 18.8527 18.0857 18.7986C17.8347 18.7445 17.6122 18.6001 17.4605 18.393C17.3088 18.1858 17.2383 17.9302 17.2625 17.6746C17.2866 17.4189 17.4037 17.181 17.5915 17.0059Z" fill="#FFB8B8"/>
<path id="Vector_21" d="M30.3595 12.1139L26.5182 14.6444L20.0365 16.7142C19.9506 16.7418 19.8769 16.7984 19.828 16.8742C19.779 16.95 19.7579 17.0405 19.7682 17.1301L19.9096 18.348C19.9158 18.4019 19.9333 18.4539 19.9608 18.5007C19.9884 18.5474 20.0254 18.5879 20.0695 18.6195C20.1136 18.6512 20.1638 18.6732 20.2169 18.6843C20.2701 18.6954 20.3249 18.6952 20.378 18.6839L26.4782 17.3763C26.7735 17.3134 27.0526 17.1904 27.2984 17.0152L31.6138 13.9448C31.7703 13.8329 31.8951 13.6824 31.9762 13.508C32.0573 13.3335 32.0918 13.1411 32.0765 12.9493C32.0607 12.7573 31.9951 12.5727 31.8863 12.4137C31.7775 12.2547 31.6292 12.1268 31.456 12.0425C31.2827 11.9582 31.0905 11.9205 30.8983 11.933C30.706 11.9455 30.5204 12.0079 30.3595 12.1139Z" fill="#CCCCCC"/>
<path id="Vector_22" d="M36.3653 42.5677C36.2677 42.5677 36.1722 42.5393 36.0904 42.486C36.0087 42.4326 35.9443 42.3566 35.905 42.2672L30.074 27.8591C30.0603 27.8279 30.0375 27.8016 30.0085 27.7837C29.9794 27.7658 29.9456 27.7573 29.9116 27.7592C29.8776 27.7611 29.8449 27.7734 29.8181 27.7944C29.7913 27.8154 29.7715 27.8442 29.7615 27.8768L25.0043 41.9035C24.9842 41.9688 24.951 42.0292 24.9066 42.0812C24.8623 42.1332 24.8078 42.1755 24.7465 42.2056C24.6853 42.2358 24.6184 42.253 24.5502 42.2564C24.482 42.2598 24.4138 42.2491 24.3499 42.2252L22.7546 41.6269C22.668 41.5947 22.5921 41.5392 22.5352 41.4664C22.4783 41.3937 22.4427 41.3065 22.4323 41.2148C21.7146 34.9629 27.973 19.1823 28.0363 19.0237L28.0538 18.9797L33.7588 20.2417L33.7707 20.2546C36.0468 22.7377 37.9177 38.3989 38.2696 41.5132C38.2827 41.6257 38.2571 41.7393 38.197 41.8353C38.1369 41.9312 38.0459 42.0039 37.939 42.0413L36.5309 42.5393C36.4778 42.5581 36.4218 42.5677 36.3653 42.5677Z" fill="#2F2E41"/>
<path id="Vector_23" d="M31.4459 20.7496C30.0637 20.7496 28.5227 20.4741 28.0483 19.3366L28.0374 19.3105L28.0521 19.2862C28.4266 18.6719 28.9214 17.624 28.6554 17.4273C28.1315 17.0399 27.8772 16.4026 27.8998 15.5331C27.9488 13.6455 29.235 11.9696 31.1003 11.3628C31.6209 11.1962 32.1508 11.0598 32.6872 10.9542C33.0782 10.8753 33.4819 10.884 33.8691 10.9797C34.2564 11.0753 34.6177 11.2555 34.9271 11.5074C35.2403 11.7609 35.4935 12.0807 35.6685 12.4437C35.8435 12.8067 35.9359 13.2039 35.9391 13.6069C35.9586 15.6241 35.6481 18.4336 34.0575 20.3625C33.9829 20.452 33.8792 20.5123 33.7645 20.5329C32.9993 20.6713 32.2235 20.7438 31.4459 20.7496Z" fill="#CCCCCC"/>
<path id="Vector_24" d="M30.9305 20.674C31.0057 20.4042 31.1844 20.1749 31.4277 20.0361C31.671 19.8972 31.9592 19.86 32.2298 19.9326C32.2851 19.948 32.3389 19.9679 32.3909 19.9922L34.1696 18.3735L35.4065 19.2069L32.863 21.4577C32.7481 21.6648 32.5673 21.8276 32.3493 21.92C32.1313 22.0125 31.8886 22.0294 31.6599 21.968C31.5267 21.9316 31.402 21.8691 31.2931 21.7841C31.1841 21.6992 31.0931 21.5935 31.0253 21.4732C30.9575 21.3528 30.9142 21.2202 30.8979 21.0831C30.8816 20.9459 30.8927 20.8069 30.9305 20.674Z" fill="#FFB8B8"/>
<path id="Vector_25" d="M33.8893 20.6946C33.7739 20.6947 33.6621 20.6548 33.5728 20.5817L32.8713 20.0085C32.8129 19.9607 32.766 19.9003 32.7341 19.8319C32.7023 19.7634 32.6864 19.6886 32.6876 19.6131C32.6887 19.5376 32.707 19.4633 32.7409 19.3959C32.7748 19.3284 32.8236 19.2695 32.8835 19.2236L35.8253 16.9673C35.8602 16.9404 35.8831 16.9008 35.889 16.8572C35.8949 16.8136 35.8833 16.7694 35.8569 16.7342L34.0411 14.3337C33.8301 14.0557 33.7243 13.7121 33.7424 13.3636C33.7605 13.0151 33.9013 12.6842 34.1398 12.4296C34.3911 12.1582 34.7352 11.9912 35.1039 11.9617C35.4725 11.9322 35.8388 12.0424 36.13 12.2704L36.1415 12.2825L38.0375 14.9975C38.2426 15.1582 38.4077 15.3642 38.5199 15.5993C38.6322 15.8344 38.6886 16.0923 38.6847 16.3528C38.6808 16.6134 38.6168 16.8694 38.4976 17.1011C38.3784 17.3328 38.2072 17.5337 37.9975 17.6883L34.1874 20.5965C34.1011 20.6602 33.9966 20.6946 33.8893 20.6946Z" fill="#CCCCCC"/>
<path id="Vector_26" d="M30.0312 6.84538V5.48957L32.4517 4.43262L34.7597 5.48957V6.84538C34.7597 6.90439 34.7363 6.96099 34.6946 7.00272C34.6528 7.04445 34.5962 7.0679 34.5372 7.0679H30.2538C30.1948 7.0679 30.1382 7.04445 30.0964 7.00272C30.0547 6.96099 30.0312 6.90439 30.0312 6.84538Z" fill="#2F2E41"/>
<path id="Vector_27" d="M32.3395 3.60406C31.9836 2.46494 32.7311 1.15946 33.836 0.708566C34.941 0.257673 36.263 0.572861 37.1953 1.3178C38.1277 2.06275 38.7062 3.17853 39.0127 4.33192C39.3192 5.48531 39.3774 6.68802 39.434 7.8801C40.7916 8.12947 41.7151 9.7397 41.2448 11.0374C40.7745 12.3351 39.0338 12.9799 37.8316 12.3016C36.6295 11.6233 36.2813 9.79997 37.1489 8.72643C37.5594 8.21846 37.7888 7.58803 37.8006 6.93501C37.8124 6.28199 37.6059 5.64369 37.214 5.12122C36.8221 4.59875 36.2671 4.22198 35.6368 4.05056C35.0066 3.87915 34.3372 3.9229 33.7346 4.17489C33.0655 4.45469 32.226 3.7277 32.3395 3.60406Z" fill="#2F2E41"/>
<path id="Vector_28" d="M17.0926 11.7463C15.4672 11.7356 13.8621 11.3841 12.381 10.7144C12.2928 10.6751 12.218 10.611 12.1656 10.5299C12.1132 10.4489 12.0855 10.3543 12.0859 10.2578V6.20598C12.0861 6.07325 12.1389 5.94598 12.2327 5.85212C12.3266 5.75826 12.4539 5.70547 12.5866 5.70532H21.5985C21.7313 5.70547 21.8585 5.75827 21.9524 5.85213C22.0462 5.94599 22.099 6.07325 22.0992 6.20598V10.2578C22.0996 10.3543 22.0719 10.4489 22.0195 10.5299C21.9671 10.611 21.8923 10.6751 21.8041 10.7144C20.3231 11.3841 18.718 11.7356 17.0926 11.7463Z" fill="#6C63FF"/>
<path id="Vector_29" d="M17.0844 8.4639C17.0176 8.46395 16.9515 8.45066 16.8899 8.42478L9.74354 5.40973C9.65138 5.37085 9.57298 5.30526 9.51845 5.22141C9.46392 5.13756 9.43575 5.0393 9.43758 4.9393C9.43942 4.83929 9.47117 4.74213 9.52874 4.66033C9.5863 4.57854 9.66705 4.51586 9.76057 4.48039L16.907 1.76928C17.0221 1.72541 17.1494 1.72568 17.2643 1.77004L24.3149 4.48114C24.4079 4.5169 24.4881 4.57959 24.5453 4.66119C24.6025 4.74279 24.634 4.83959 24.6358 4.9392C24.6377 5.03881 24.6097 5.13671 24.5556 5.22036C24.5015 5.30402 24.4237 5.36963 24.3321 5.4088L17.2813 8.42381C17.2191 8.45032 17.1521 8.46396 17.0844 8.4639Z" fill="#6C63FF"/>
<path id="Vector_30" d="M12.9175 10.9901C13.2862 10.9901 13.5851 10.6913 13.5851 10.3226C13.5851 9.9539 13.2862 9.65503 12.9175 9.65503C12.5489 9.65503 12.25 9.9539 12.25 10.3226C12.25 10.6913 12.5489 10.9901 12.9175 10.9901Z" fill="#3F3D56"/>
<path id="Vector_31" opacity="0.2" d="M24.3642 4.98084L17.3134 7.99584C17.2585 8.01935 17.1993 8.03154 17.1395 8.03168C17.0797 8.03183 17.0205 8.01992 16.9655 7.99669L9.81914 4.98172C9.72939 4.94476 9.65451 4.87895 9.60634 4.79468C9.57483 4.84933 9.55531 4.91005 9.54906 4.97281C9.54281 5.03558 9.54999 5.09896 9.57012 5.15874C9.59024 5.21851 9.62285 5.27333 9.66579 5.31954C9.70872 5.36575 9.76099 5.40229 9.81914 5.42675L16.9655 8.44172C17.0205 8.46496 17.0797 8.47686 17.1395 8.47671C17.1993 8.47657 17.2585 8.46438 17.3134 8.44088L24.3642 5.42587C24.422 5.4012 24.474 5.36453 24.5166 5.3183C24.5593 5.27207 24.5916 5.21733 24.6115 5.15768C24.6314 5.09803 24.6385 5.03483 24.6322 4.97226C24.6259 4.90968 24.6064 4.84916 24.575 4.79468C24.5272 4.87827 24.4531 4.94371 24.3642 4.98084Z" fill="black"/>
<path id="Vector_32" d="M12.9784 10.3199C13.008 10.3199 13.0363 10.3082 13.0571 10.2873C13.078 10.2665 13.0897 10.2382 13.0897 10.2087V6.48581L16.7591 5.14903C16.7886 5.14947 16.8171 5.13817 16.8383 5.11761C16.8595 5.09706 16.8716 5.06894 16.8721 5.03943C16.8725 5.00992 16.8612 4.98145 16.8406 4.96027C16.8201 4.9391 16.792 4.92695 16.7624 4.92651L13.093 6.2633C13.0635 6.26262 13.0341 6.26794 13.0067 6.27894C12.9793 6.28994 12.9544 6.30639 12.9335 6.32729C12.9125 6.34794 12.8957 6.37261 12.8843 6.39984C12.8729 6.42706 12.8671 6.4563 12.8672 6.48581V10.2087C12.8672 10.2382 12.8789 10.2665 12.8998 10.2873C12.9206 10.3082 12.9489 10.3199 12.9784 10.3199Z" fill="#3F3D56"/>
</g>
<defs>
<clipPath id="clip0_438_7656">
<rect width="82.7761" height="60" fill="white" transform="translate(0 0.5)"/>
</clipPath>
</defs>
</svg>
