<svg width="241" height="174" viewBox="0 0 241 174" fill="none" xmlns="http://www.w3.org/2000/svg">
<g id="undraw_save_to_bookmarks_re_8ajf (1) 1" clip-path="url(#clip0_805_10736)">
<path id="Vector" d="M189.225 15.6564C188.617 11.1956 187.854 6.4063 184.708 3.18614C183.71 2.16439 182.515 1.35539 181.195 0.807901C179.876 0.260414 178.459 -0.0142177 177.031 0.000566709C175.603 0.0153511 174.192 0.319248 172.884 0.893928C171.576 1.46861 170.399 2.30217 169.422 3.34437C167.131 5.7876 166.12 9.21827 166.027 12.5658C165.935 15.9133 166.68 19.2237 167.507 22.4688C171.884 22.5562 176.229 21.7011 180.246 19.9615C181.23 19.4809 182.252 19.0799 183.3 18.7624C184.362 18.4923 185.118 19.172 186.105 19.646L186.647 18.6083C187.091 19.4339 188.465 19.1892 188.963 18.3954C189.461 17.6016 189.352 16.585 189.225 15.6564Z" fill="#2F2E41"/>
<path id="Vector_2" d="M170.946 34.4911L172.213 28.0173L162.711 23.9035L145.723 15.7649C145.605 15.0097 145.26 14.3082 144.734 13.7533C144.208 13.1984 143.527 12.8161 142.779 12.6571C142.031 12.4982 141.253 12.5699 140.547 12.8629C139.841 13.1559 139.24 13.6563 138.825 14.298C138.409 14.9397 138.199 15.6923 138.22 16.4564C138.242 17.2206 138.495 17.9601 138.946 18.5772C139.397 19.1944 140.025 19.66 140.746 19.9126C141.468 20.1652 142.249 20.1927 142.987 19.9917L159.162 29.9738L170.946 34.4911Z" fill="#FFB8B8"/>
<path id="Vector_3" d="M164.566 33.3958L171.449 26.3602L171.585 26.4016C171.67 26.4275 180.221 29.0344 185.673 31.6835C186.289 31.96 186.837 32.3677 187.28 32.878C187.722 33.3883 188.048 33.9889 188.234 34.6381C188.506 35.547 188.506 36.5153 188.234 37.4242C187.963 38.3331 187.432 39.143 186.707 39.7544C185.961 40.4217 185.04 40.8602 184.052 41.0175C183.064 41.1748 182.051 41.0442 181.135 40.6414L164.566 33.3958Z" fill="#6C63FF"/>
<path id="Vector_4" d="M164.547 64.3274L183.9 69.4988L187.808 51.2166L170.045 45.7184L164.547 64.3274Z" fill="#FFB8B8"/>
<path id="Vector_5" d="M186.063 59.3652L167.158 55.0175L163.538 46.2432C163.243 44.9907 163.315 43.68 163.744 42.467C164.173 41.2541 164.942 40.19 165.958 39.4016L172.866 33.57L176.569 28.8398L176.166 26.3331C176.093 25.8321 176.199 25.3216 176.463 24.8899C176.727 24.4582 177.134 24.1324 177.613 23.9688L182.548 22.199C183.094 21.995 183.696 22.006 184.234 22.2296C184.772 22.4533 185.205 22.8729 185.445 23.4036L185.968 24.6139C185.968 24.6139 188.199 25.6641 189.457 26.2548C190.105 26.5491 190.683 26.9769 191.153 27.5101C191.624 28.0433 191.977 28.6699 192.189 29.3489C194.114 35.5723 193.595 42.2957 190.737 48.1497L186.063 59.3652Z" fill="#6C63FF"/>
<path id="Vector_6" d="M17.935 152.507L8.79404 150.061C7.45 145.277 7.29417 140.237 8.34009 135.378C12.328 143.262 23.0383 144.748 29.3831 150.895C31.3473 152.828 32.8515 155.178 33.7841 157.77C34.7168 160.363 35.054 163.133 34.7708 165.873L36.9605 172.217C32.5158 172.042 28.162 170.904 24.1992 168.884C20.2364 166.863 16.7586 164.008 14.0056 160.514C12.4806 158.539 11.2104 156.379 10.2251 154.086C14.05 153.526 17.935 152.507 17.935 152.507Z" fill="#68D391"/>
<path id="Vector_7" d="M131.497 174H41.9041C39.503 173.997 37.201 173.042 35.5032 171.344C33.8054 169.647 32.8504 167.345 32.8477 164.943V46.3123C32.8504 43.9112 33.8054 41.6093 35.5032 39.9114C37.201 38.2136 39.503 37.2586 41.9041 37.2559H131.497C133.898 37.2586 136.2 38.2136 137.898 39.9114C139.596 41.6093 140.551 43.9112 140.553 46.3123V164.943C140.551 167.345 139.596 169.647 137.898 171.344C136.2 173.042 133.898 173.997 131.497 174Z" fill="#E6E6E6"/>
<path id="Vector_8" d="M97.3033 166.657H48.2031C46.0169 166.654 43.9209 165.785 42.375 164.239C40.8291 162.693 39.9595 160.597 39.957 158.411V52.8451C39.9595 50.6589 40.8291 48.5629 42.375 47.017C43.9209 45.471 46.0169 44.6015 48.2031 44.599H125.201C127.387 44.6015 129.483 45.471 131.029 47.017C132.575 48.5629 133.444 50.6589 133.447 52.8451V130.514C133.436 140.096 129.624 149.283 122.849 156.059C116.073 162.835 106.886 166.646 97.3033 166.657Z" fill="white"/>
<path id="Vector_9" d="M117.519 64.8657H55.8837C55.6198 64.866 55.3583 64.8144 55.1143 64.7137C54.8703 64.613 54.6485 64.4652 54.4616 64.2787C54.2747 64.0923 54.1264 63.8709 54.0251 63.6272C53.9237 63.3834 53.8714 63.1221 53.8711 62.8581C53.8708 62.5941 53.9224 62.3327 54.0231 62.0887C54.1239 61.8447 54.2716 61.6229 54.4581 61.436C54.6445 61.2491 54.8659 61.1008 55.1097 60.9994C55.3534 60.8981 55.6147 60.8458 55.8787 60.8455H117.519C118.052 60.8448 118.564 61.0559 118.941 61.4324C119.319 61.8089 119.531 62.32 119.532 62.8531C119.532 63.3862 119.321 63.8977 118.945 64.2752C118.568 64.6526 118.057 64.865 117.524 64.8657H117.519Z" fill="#68D391"/>
<path id="Vector_10" d="M117.521 72.8088H55.8852C55.3521 72.8088 54.8408 72.597 54.4638 72.22C54.0868 71.843 53.875 71.3317 53.875 70.7986C53.875 70.2654 54.0868 69.7541 54.4638 69.3771C54.8408 69.0001 55.3521 68.7883 55.8852 68.7883H117.521C118.054 68.7883 118.565 69.0001 118.942 69.3771C119.319 69.7541 119.531 70.2654 119.531 70.7986C119.531 71.3317 119.319 71.843 118.942 72.22C118.565 72.597 118.054 72.8088 117.521 72.8088Z" fill="#68D391"/>
<path id="Vector_11" d="M82.6027 80.7517H55.8852C55.3521 80.7517 54.8408 80.5399 54.4638 80.1629C54.0868 79.7859 53.875 79.2746 53.875 78.7414C53.875 78.2083 54.0868 77.697 54.4638 77.32C54.8408 76.943 55.3521 76.7312 55.8852 76.7312H82.6027C83.1359 76.7312 83.6472 76.943 84.0242 77.32C84.4012 77.697 84.6129 78.2083 84.6129 78.7414C84.6129 79.2746 84.4012 79.7859 84.0242 80.1629C83.6472 80.5399 83.1359 80.7517 82.6027 80.7517Z" fill="#68D391"/>
<path id="Vector_12" d="M117.519 97.3874H55.8837C55.3506 97.3881 54.8391 97.177 54.4616 96.8005C54.0842 96.424 53.8718 95.9129 53.8711 95.3798C53.8704 94.8467 54.0816 94.3352 54.4581 93.9577C54.8346 93.5803 55.3456 93.3679 55.8787 93.3672H117.519C118.052 93.3665 118.564 93.5777 118.941 93.9542C119.319 94.3307 119.531 94.8417 119.532 95.3748C119.532 95.9079 119.321 96.4195 118.945 96.7969C118.568 97.1744 118.057 97.3868 117.524 97.3874H117.519Z" fill="#E4E4E4"/>
<path id="Vector_13" d="M117.521 105.331H55.8852C55.3521 105.331 54.8408 105.119 54.4638 104.742C54.0868 104.365 53.875 103.853 53.875 103.32C53.875 102.787 54.0868 102.276 54.4638 101.899C54.8408 101.522 55.3521 101.31 55.8852 101.31H117.521C118.054 101.31 118.565 101.522 118.942 101.899C119.319 102.276 119.531 102.787 119.531 103.32C119.531 103.853 119.319 104.365 118.942 104.742C118.565 105.119 118.054 105.331 117.521 105.331Z" fill="#E4E4E4"/>
<path id="Vector_14" d="M82.6027 113.274H55.8852C55.3521 113.274 54.8408 113.062 54.4638 112.685C54.0868 112.308 53.875 111.797 53.875 111.263C53.875 110.73 54.0868 110.219 54.4638 109.842C54.8408 109.465 55.3521 109.253 55.8852 109.253H82.6027C83.1359 109.253 83.6472 109.465 84.0242 109.842C84.4012 110.219 84.6129 110.73 84.6129 111.263C84.6129 111.797 84.4012 112.308 84.0242 112.685C83.6472 113.062 83.1359 113.274 82.6027 113.274Z" fill="#E4E4E4"/>
<path id="Vector_15" d="M117.519 129.909H55.8837C55.3506 129.91 54.8391 129.699 54.4616 129.322C54.0842 128.946 53.8718 128.435 53.8711 127.902C53.8704 127.368 54.0816 126.857 54.4581 126.479C54.8346 126.102 55.3456 125.89 55.8787 125.889H117.519C118.052 125.888 118.564 126.099 118.941 126.476C119.319 126.852 119.531 127.363 119.532 127.897C119.532 128.43 119.321 128.941 118.945 129.319C118.568 129.696 118.057 129.909 117.524 129.909H117.519Z" fill="#E4E4E4"/>
<path id="Vector_16" d="M117.521 137.852H55.8852C55.3521 137.852 54.8408 137.64 54.4638 137.263C54.0868 136.886 53.875 136.375 53.875 135.842C53.875 135.309 54.0868 134.798 54.4638 134.421C54.8408 134.044 55.3521 133.832 55.8852 133.832H117.521C118.054 133.832 118.565 134.044 118.942 134.421C119.319 134.798 119.531 135.309 119.531 135.842C119.531 136.375 119.319 136.886 118.942 137.263C118.565 137.64 118.054 137.852 117.521 137.852Z" fill="#E4E4E4"/>
<path id="Vector_17" d="M82.6028 145.795H55.8853C55.3528 145.794 54.8425 145.582 54.4663 145.205C54.0902 144.828 53.8789 144.318 53.8789 143.785C53.8789 143.253 54.0902 142.742 54.4663 142.365C54.8425 141.988 55.3528 141.776 55.8853 141.775H82.6028C83.1353 141.776 83.6456 141.988 84.0217 142.365C84.3979 142.742 84.6092 143.253 84.6092 143.785C84.6092 144.318 84.3979 144.828 84.0217 145.205C83.6456 145.582 83.1353 145.794 82.6028 145.795Z" fill="#E4E4E4"/>
<path id="Vector_18" d="M136.129 65.6957C150.561 65.6957 162.261 53.9957 162.261 39.5631C162.261 25.1304 150.561 13.4304 136.129 13.4304C121.696 13.4304 109.996 25.1304 109.996 39.5631C109.996 53.9957 121.696 65.6957 136.129 65.6957Z" fill="#68D391"/>
<path id="Vector_19" opacity="0.16" d="M136.129 62.0756C129.517 62.0747 123.152 59.5676 118.316 55.0595C113.48 50.5514 110.532 44.3776 110.068 37.7825C110.025 38.3908 109.996 39.0028 109.996 39.622C109.999 46.5511 112.753 53.1955 117.654 58.0942C122.554 62.9929 129.2 65.7449 136.129 65.7449C143.058 65.7449 149.703 62.9929 154.604 58.0942C159.504 53.1955 162.259 46.5511 162.261 39.622C162.261 39.0028 162.232 38.3908 162.19 37.7825C161.725 44.3776 158.778 50.5514 153.942 55.0595C149.105 59.5676 142.74 62.0747 136.129 62.0756Z" fill="#231F20"/>
<g id="Vector_20">
<path d="M141.394 49.9376C140.762 50.5327 139.921 50.853 139.053 50.8283C138.186 50.8036 137.364 50.4359 136.767 49.8058L123.764 36.0397C123.468 35.7274 123.237 35.3599 123.084 34.9581C122.93 34.5564 122.857 34.1283 122.869 33.6984C122.881 33.2685 122.978 32.8452 123.154 32.4527C123.329 32.0602 123.581 31.7061 123.893 31.4108C124.206 31.1155 124.574 30.8847 124.976 30.7316C125.378 30.5785 125.806 30.5061 126.236 30.5186C126.665 30.5311 127.089 30.6282 127.481 30.8043C127.873 30.9805 128.227 31.2322 128.522 31.5451L138.519 46.4055L141.525 45.3112C142.121 45.9426 142.441 46.7843 142.416 47.6516C142.392 48.519 142.024 49.3411 141.394 49.9376Z" fill="white"/>
<path d="M139.324 50.4736C140.19 50.4216 141.001 50.0402 141.578 49.4129C142.156 48.7857 142.453 47.9638 142.405 47.1277L141.331 28.8807C141.307 28.4663 141.199 28.0608 141.012 27.6875C140.826 27.3141 140.565 26.9802 140.244 26.7049C139.924 26.4296 139.55 26.2182 139.144 26.0828C138.738 25.9475 138.308 25.8908 137.878 25.9161C137.449 25.9414 137.029 26.0481 136.642 26.2301C136.254 26.4121 135.908 26.6659 135.621 26.9769C135.335 27.288 135.115 27.6502 134.974 28.0428C134.832 28.4355 134.772 28.8508 134.797 29.2652L138.519 46.4055L135.871 47.5122C135.921 48.3482 136.313 49.1295 136.96 49.6847C137.607 50.2399 138.457 50.5236 139.324 50.4736Z" fill="white"/>
</g>
<path id="Vector_21" d="M175.414 45.1454L169.853 41.5967L162.547 48.9342L148.756 61.7649C148.01 61.5987 147.231 61.6629 146.522 61.9491C145.813 62.2352 145.208 62.7298 144.786 63.3675C144.365 64.0051 144.147 64.7557 144.161 65.52C144.175 66.2843 144.421 67.0262 144.866 67.6477C145.311 68.2691 145.935 68.7408 146.654 69.0004C147.373 69.2599 148.153 69.295 148.893 69.1011C149.632 68.9071 150.295 68.4933 150.794 67.9143C151.294 67.3353 151.605 66.6185 151.688 65.8585L166.897 54.459L175.414 45.1454Z" fill="#FFB8B8"/>
<path id="Vector_22" d="M172.06 50.6808L168.031 41.7011L168.119 41.5896C168.175 41.5196 173.731 34.5156 178.191 30.4121C178.674 29.94 179.254 29.5788 179.891 29.3539C180.527 29.129 181.206 29.0456 181.878 29.1097C182.823 29.1902 183.724 29.5447 184.47 30.1298C185.217 30.7149 185.776 31.5051 186.08 32.4036C186.428 33.3414 186.499 34.3597 186.284 35.3367C186.069 36.3137 185.577 37.2081 184.867 37.9129L172.06 50.6808Z" fill="#6C63FF"/>
<path id="Vector_23" d="M175.699 21.1657C180.528 21.1657 184.442 17.2516 184.442 12.4233C184.442 7.59502 180.528 3.68091 175.699 3.68091C170.871 3.68091 166.957 7.59502 166.957 12.4233C166.957 17.2516 170.871 21.1657 175.699 21.1657Z" fill="#FFB8B8"/>
<path id="Vector_24" d="M162.119 167.738H158.505L156.785 153.798H162.119V167.738Z" fill="#FFB8B8"/>
<path id="Vector_25" d="M164.026 174H161.434L160.972 171.553L159.787 174H152.913C152.583 174 152.262 173.895 151.997 173.7C151.731 173.504 151.535 173.229 151.437 172.915C151.339 172.6 151.344 172.262 151.452 171.951C151.559 171.639 151.763 171.37 152.034 171.183L157.524 167.392V164.918L163.298 165.263L164.026 174Z" fill="#2F2E41"/>
<path id="Vector_26" d="M207.416 164.668L204.058 166.005L197.305 153.689L202.261 151.716L207.416 164.668Z" fill="#FFB8B8"/>
<path id="Vector_27" d="M211.501 169.78L209.093 170.739L207.758 168.636L207.562 171.348L201.175 173.89C200.869 174.012 200.532 174.033 200.213 173.95C199.895 173.867 199.611 173.684 199.403 173.428C199.196 173.172 199.076 172.856 199.06 172.527C199.045 172.198 199.135 171.872 199.318 171.598L203.016 166.045L202.101 163.747L207.593 161.932L211.501 169.78Z" fill="#2F2E41"/>
<path id="Vector_28" d="M163.511 161.334H156.035L158.101 126.212L156.591 102.405L156.594 102.386L162.227 68.2598C162.67 65.5687 163.868 63.0587 165.681 61.0211L165.749 60.9438L184.601 65.5999L186.497 69.9219C192.969 73.7714 195.013 95.4786 195.097 96.4033L197.837 123.464L204.54 156.629L199.82 159.171L199.741 159.013L184.839 129.382L175.428 98.1331L169.402 126.257L163.511 161.334Z" fill="#2F2E41"/>
<path id="Vector_29" d="M186.527 12.8347C186.218 10.8026 185.895 8.75352 185.168 6.84009C184.441 4.92667 183.27 3.13446 181.589 2.05053C178.928 0.334399 175.484 0.665381 172.5 1.65255C170.194 2.41598 167.942 3.57633 166.315 5.44178C164.688 7.30725 163.774 9.96907 164.379 12.4082C167.561 11.6564 170.743 10.9046 173.925 10.1528L173.577 10.3989C174.622 10.9199 175.534 11.6721 176.245 12.5984C176.956 13.5246 177.446 14.6006 177.679 15.7447C177.906 16.9027 177.874 18.0968 177.583 19.2406C177.293 20.3844 176.751 21.4493 175.999 22.3583C178.169 21.5885 180.339 20.8186 182.509 20.0488C183.849 19.5736 185.283 19.0261 186.077 17.8073C186.998 16.3941 186.784 14.5211 186.527 12.8347Z" fill="#2F2E41"/>
<path id="Path 2960" d="M0.458326 173.916H240.304C240.425 173.916 240.542 173.867 240.628 173.781C240.714 173.696 240.762 173.579 240.762 173.457C240.762 173.336 240.714 173.219 240.628 173.133C240.542 173.047 240.425 172.999 240.304 172.999H0.458326C0.336769 172.999 0.220196 173.047 0.134242 173.133C0.0482874 173.219 0 173.336 0 173.457C0 173.579 0.0482874 173.696 0.134242 173.781C0.220196 173.867 0.336769 173.916 0.458326 173.916Z" fill="#CCCCCC"/>
</g>
<defs>
<clipPath id="clip0_805_10736">
<rect width="240.762" height="174" fill="white"/>
</clipPath>
</defs>
</svg>
