<svg width="195" height="174" viewBox="0 0 195 174" fill="none" xmlns="http://www.w3.org/2000/svg">
<g id="undraw_approve_qwp7 1" clip-path="url(#clip0_1746_16647)">
<path id="Vector" d="M192.55 143.217C190.783 154.09 182.821 162.509 174.345 169.867C173.161 170.895 171.975 171.902 170.786 172.89C170.777 172.894 170.769 172.904 170.761 172.909C170.704 172.956 170.646 173.003 170.593 173.05C170.348 173.254 170.102 173.457 169.859 173.659L170.012 173.706L170.487 173.853C170.324 173.808 170.163 173.765 170 173.72C169.951 173.706 169.9 173.695 169.852 173.681C164.232 172.163 158.497 170.497 153.903 166.94C149.137 163.246 145.854 156.949 147.498 151.147C147.714 150.387 148.015 149.653 148.394 148.96C148.549 148.669 148.72 148.389 148.899 148.112C149.986 146.406 151.507 145.02 153.306 144.096C155.106 143.172 157.119 142.745 159.138 142.857C161.158 142.969 163.111 143.618 164.797 144.735C166.483 145.853 167.841 147.399 168.732 149.215C168.651 142.822 162.812 138.16 157.335 134.861C151.856 131.564 145.652 128.002 143.93 121.841C142.969 118.414 143.777 114.884 145.663 111.901C145.722 111.811 145.78 111.72 145.841 111.631C148.154 108.144 151.697 105.657 155.764 104.668C163.351 102.946 171.302 106.117 177.526 110.788C187.542 118.304 194.559 130.854 192.55 143.217Z" fill="#B2DBC8"/>
<path id="Vector_2" d="M176.46 131.205C178.21 133.322 179.642 135.683 180.711 138.213C181.63 140.479 182.205 142.87 182.417 145.306C182.878 150.31 181.929 155.368 180.036 159.999C178.563 163.515 176.652 166.831 174.348 169.867C173.164 170.895 171.978 171.902 170.789 172.89C170.78 172.894 170.772 172.904 170.764 172.909C170.707 172.956 170.649 173.003 170.596 173.05C170.351 173.254 170.105 173.457 169.862 173.659L170.015 173.706L170.491 173.852C170.327 173.808 170.166 173.765 170.003 173.72C169.954 173.706 169.903 173.695 169.855 173.681C169.862 169.684 168.912 165.744 167.082 162.191C165.253 158.637 162.599 155.574 159.343 153.257C156.084 150.982 152.333 149.51 148.397 148.96C148.552 148.669 148.723 148.389 148.902 148.112C150.426 148.348 151.925 148.719 153.383 149.219C158.592 150.993 163.092 154.397 166.217 158.927C169.027 163.044 170.604 167.877 170.763 172.859C170.959 172.633 171.155 172.402 171.345 172.175C174.962 167.888 178.056 163.094 179.9 157.77C181.513 153.254 181.99 148.412 181.291 143.668C180.467 138.504 177.823 133.946 174.327 130.121C170.583 126.028 166.087 122.549 161.382 119.633C156.562 116.639 151.394 114.247 145.993 112.509C145.871 112.469 145.769 112.383 145.708 112.27C145.647 112.157 145.632 112.025 145.666 111.901C145.688 111.791 145.752 111.694 145.844 111.631C145.892 111.603 145.946 111.586 146.002 111.582C146.057 111.578 146.113 111.586 146.165 111.606C146.832 111.821 147.495 112.041 148.154 112.274C153.647 114.214 158.878 116.829 163.726 120.059C168.408 123.17 172.904 126.826 176.46 131.205Z" fill="white"/>
<path id="Vector_3" d="M80.9269 106.375C80.3867 106.374 79.867 106.168 79.4731 105.799C79.0791 105.429 78.8403 104.924 78.805 104.385L78.4889 99.5592C78.452 98.9956 78.6405 98.4404 79.0129 98.0157C79.3854 97.5911 79.9112 97.3318 80.4749 97.2948L118.281 94.819C118.877 94.7796 119.475 94.8581 120.041 95.05C120.606 95.2418 121.129 95.5432 121.578 95.9371C122.027 96.3309 122.395 96.8093 122.659 97.3451C122.923 97.8809 123.079 98.4635 123.118 99.0596C123.157 99.6557 123.078 100.254 122.886 100.819C122.694 101.385 122.393 101.907 121.998 102.356C121.604 102.805 121.126 103.172 120.59 103.436C120.054 103.7 119.471 103.856 118.875 103.895L81.0693 106.371C81.0217 106.374 80.9742 106.375 80.9269 106.375Z" fill="#6C63FF"/>
<path id="Vector_4" d="M88.3826 106.998C87.8318 106.997 87.3028 106.783 86.9063 106.4C86.5098 106.018 86.2765 105.498 86.2553 104.947L85.9859 97.7397C85.9754 97.4602 86.0201 97.1814 86.1174 96.9192C86.2147 96.657 86.3627 96.4165 86.553 96.2115C86.7432 96.0065 86.972 95.841 87.2262 95.7244C87.4804 95.6079 87.7551 95.5425 88.0346 95.5321L119.123 94.3701C119.688 94.3491 120.238 94.5531 120.652 94.9373C121.066 95.3215 121.31 95.8544 121.331 96.4189L121.601 103.626C121.611 103.906 121.566 104.185 121.469 104.447C121.372 104.709 121.224 104.95 121.033 105.155C120.843 105.36 120.614 105.525 120.36 105.642C120.106 105.758 119.831 105.824 119.552 105.834L88.463 106.996C88.4362 106.997 88.4092 106.998 88.3826 106.998Z" fill="#2F2E41"/>
<path id="Vector_5" d="M124.817 173.437H119.981C119.417 173.437 118.875 173.212 118.476 172.813C118.077 172.413 117.852 171.872 117.852 171.308V131.003C117.852 130.438 118.077 129.897 118.476 129.498C118.875 129.098 119.417 128.874 119.981 128.873H124.817C125.382 128.874 125.923 129.098 126.322 129.498C126.722 129.897 126.946 130.438 126.947 131.003V171.308C126.946 171.872 126.722 172.413 126.322 172.813C125.923 173.212 125.382 173.437 124.817 173.437Z" fill="#2F2E41"/>
<path id="Vector_6" d="M103.348 152.133L99.2124 149.626C98.7298 149.333 98.3833 148.86 98.2489 148.312C98.1144 147.763 98.2029 147.184 98.4951 146.701L119.387 112.233C119.68 111.751 120.153 111.404 120.701 111.27C121.25 111.135 121.829 111.224 122.312 111.516L126.448 114.023C126.93 114.316 127.277 114.789 127.411 115.337C127.546 115.885 127.457 116.465 127.165 116.948L106.273 151.415C105.98 151.898 105.507 152.244 104.959 152.379C104.41 152.513 103.831 152.425 103.348 152.133Z" fill="#2F2E41"/>
<path id="Vector_7" d="M117.468 86.8105C126.696 86.8105 134.177 79.3293 134.177 70.1007C134.177 60.8721 126.696 53.3909 117.468 53.3909C108.239 53.3909 100.758 60.8721 100.758 70.1007C100.758 79.3293 108.239 86.8105 117.468 86.8105Z" fill="#6C63FF"/>
<path id="Vector_8" d="M108.423 75.806C107.885 75.6293 107.392 75.3397 106.975 74.9565C106.7 74.6829 106.487 74.3522 106.352 73.9878C106.218 73.6234 106.165 73.2339 106.196 72.8468C106.214 72.5709 106.295 72.3028 106.433 72.0635C106.571 71.8241 106.763 71.62 106.993 71.467C107.591 71.0837 108.39 71.0826 109.204 71.4412L109.173 64.9179L109.828 64.9148L109.865 72.5836L109.36 72.266C108.774 71.8983 107.938 71.6395 107.347 72.0186C107.201 72.1188 107.08 72.2513 106.994 72.4058C106.907 72.5603 106.858 72.7326 106.849 72.9094C106.827 73.1979 106.867 73.4876 106.967 73.7591C107.067 74.0305 107.224 74.2772 107.428 74.4824C108.152 75.1736 109.207 75.3898 110.411 75.5829L110.307 76.2299C109.668 76.1451 109.037 76.0033 108.423 75.806Z" fill="#2F2E41"/>
<path id="Vector_9" d="M102.422 64.5885L102.336 65.238L105.835 65.7001L105.921 65.0506L102.422 64.5885Z" fill="#2F2E41"/>
<path id="Vector_10" d="M113.461 66.0467L113.375 66.6963L116.874 67.1584L116.96 66.5088L113.461 66.0467Z" fill="#2F2E41"/>
<path id="Vector_11" d="M131.423 141.816H103.246C102.508 141.816 101.8 141.522 101.278 141C100.755 140.478 100.462 139.77 100.461 139.031L106.36 93.7956C106.365 93.0606 106.66 92.3573 107.182 91.8395C107.703 91.3216 108.408 91.0312 109.143 91.0317H119.143C123.137 91.0362 126.967 92.6249 129.791 95.4492C132.615 98.2734 134.204 102.103 134.208 106.097V139.031C134.207 139.77 133.914 140.478 133.392 141C132.869 141.522 132.162 141.816 131.423 141.816Z" fill="#2F2E41"/>
<path id="Vector_12" d="M124.324 139.405C124.153 139.779 123.877 140.095 123.53 140.316C123.183 140.536 122.78 140.652 122.369 140.649L117.533 140.607C117.253 140.605 116.977 140.547 116.719 140.438C116.462 140.329 116.229 140.17 116.033 139.97C115.837 139.771 115.682 139.535 115.577 139.275C115.472 139.016 115.42 138.739 115.422 138.459L115.75 100.574C115.756 99.9763 115.878 99.386 116.112 98.8363C116.345 98.2866 116.684 97.7882 117.11 97.3696C117.536 96.951 118.04 96.6204 118.594 96.3967C119.148 96.1729 119.74 96.0604 120.337 96.0656C120.934 96.0708 121.525 96.1935 122.074 96.4268C122.624 96.6601 123.123 96.9994 123.541 97.4254C123.96 97.8513 124.29 98.3555 124.514 98.9092C124.738 99.4629 124.85 100.055 124.845 100.652L124.517 138.538C124.515 138.837 124.449 139.133 124.324 139.405Z" fill="#6C63FF"/>
<path id="Vector_13" d="M126.467 129.291C126.295 129.665 126.02 129.981 125.673 130.202C125.326 130.422 124.923 130.538 124.511 130.535L116.252 130.463C115.687 130.458 115.148 130.229 114.752 129.826C114.356 129.423 114.136 128.88 114.141 128.315L114.41 97.206C114.413 96.9263 114.47 96.6498 114.58 96.3924C114.689 96.1349 114.848 95.9015 115.047 95.7055C115.247 95.5094 115.483 95.3546 115.742 95.2498C116.001 95.145 116.279 95.0924 116.559 95.0948L124.818 95.1664C125.098 95.1688 125.374 95.2263 125.632 95.3355C125.889 95.4448 126.122 95.6037 126.319 95.8032C126.515 96.0027 126.669 96.2388 126.774 96.4981C126.879 96.7574 126.932 97.0348 126.929 97.3145L126.659 128.424C126.657 128.723 126.591 129.019 126.467 129.291Z" fill="#2F2E41"/>
<path id="Vector_14" d="M117.78 60.1902C115.546 58.3417 112.56 60.09 110.034 59.8419C107.617 59.6045 105.672 57.4777 105.142 55.189C104.523 52.5188 105.864 49.8064 107.883 48.0959C110.095 46.2225 113.064 45.6404 115.894 45.9254C119.137 46.2522 122.125 47.7042 124.815 49.4782C127.41 51.1359 129.805 53.0884 131.952 55.2967C133.875 57.3416 135.519 59.7914 136.081 62.5816C136.593 65.1173 136.293 67.9437 134.83 70.1278C134.053 71.2478 133.001 72.1487 131.775 72.7437C130.497 73.4016 129.13 73.8805 127.894 74.6203C126.025 75.739 124.231 78.019 124.867 80.3441C125.004 80.8521 125.263 81.3187 125.622 81.7028C126.054 82.1642 126.805 81.5295 126.372 81.0669C125.612 80.2546 125.62 79.1517 125.998 78.1574C126.449 77.0365 127.267 76.1019 128.318 75.5067C129.612 74.734 131.048 74.2449 132.375 73.5383C133.647 72.8916 134.743 71.9473 135.571 70.7858C137.133 68.5255 137.558 65.6143 137.143 62.9366C136.694 60.039 135.151 57.4274 133.238 55.2507C131.156 52.8818 128.616 50.8914 126.026 49.1092C123.247 47.1968 120.186 45.5935 116.822 45.0565C113.907 44.591 110.763 44.9714 108.252 46.6032C105.909 48.1263 104.138 50.7035 104.011 53.548C103.971 54.842 104.276 56.1233 104.895 57.2601C105.515 58.397 106.426 59.3483 107.535 60.0162C108.672 60.6677 109.985 60.9458 111.289 60.8111C112.683 60.6952 114.072 60.2411 115.48 60.3331C116.116 60.3596 116.727 60.5929 117.219 60.9976C117.707 61.4015 118.264 60.5908 117.78 60.1902Z" fill="#2F2E41"/>
<path id="Vector_15" d="M98.1372 147.283C98.1432 147.246 98.1502 147.209 98.1582 147.172C98.2165 146.899 98.3284 146.639 98.4876 146.409C98.6468 146.179 98.8501 145.983 99.0856 145.832L103.149 143.211C103.624 142.905 104.201 142.8 104.753 142.92C105.305 143.039 105.787 143.372 106.093 143.846L118.629 163.282C118.936 163.756 119.041 164.333 118.921 164.885C118.802 165.437 118.469 165.919 117.994 166.226L113.93 168.847C113.455 169.152 112.879 169.257 112.327 169.138C111.775 169.019 111.293 168.686 110.986 168.212L98.4502 148.776C98.1637 148.335 98.0521 147.802 98.1372 147.283Z" fill="#2F2E41"/>
<path id="Path 336" d="M82.9141 19.1915C82.6019 18.4502 82.0791 17.8166 81.4106 17.3693C80.742 16.922 79.9569 16.6805 79.1525 16.6748H4.07007C2.9908 16.6754 1.95589 17.1044 1.19273 17.8675C0.429574 18.6307 0.000579922 19.6656 0 20.7449V115.731C0.000579922 116.81 0.429574 117.845 1.19273 118.608C1.95589 119.372 2.9908 119.801 4.07007 119.801H79.1552C80.2342 119.8 81.2686 119.371 82.0316 118.608C82.7946 117.845 83.2239 116.81 83.2253 115.731V20.7449C83.2271 20.2117 83.1222 19.6836 82.9168 19.1915H82.9141ZM82.3187 115.731C82.3177 116.571 81.9838 117.375 81.3903 117.969C80.7967 118.562 79.992 118.896 79.1525 118.897H4.07007C3.23047 118.897 2.42529 118.564 1.83156 117.97C1.23782 117.376 0.904128 116.571 0.903843 115.732V20.7454C0.904987 19.906 1.23894 19.1013 1.83247 18.5078C2.42601 17.9143 3.23068 17.5803 4.07007 17.5792H79.1552C79.7876 17.5816 80.4048 17.7723 80.9283 18.1271C81.4517 18.4818 81.8576 18.9845 82.0941 19.5709C82.1402 19.6878 82.1799 19.807 82.2132 19.9281C82.285 20.1946 82.3214 20.4694 82.3214 20.7454L82.3187 115.731Z" fill="#3F3D56"/>
<path id="Path 337" d="M67.2456 39.1009H44.6297C44.1498 39.1009 43.6896 38.9102 43.3503 38.5709C43.0109 38.2316 42.8203 37.7714 42.8203 37.2915C42.8203 36.8117 43.0109 36.3514 43.3503 36.0121C43.6896 35.6728 44.1498 35.4822 44.6297 35.4822H67.2456C67.7254 35.4822 68.1856 35.6728 68.525 36.0121C68.8643 36.3514 69.0549 36.8117 69.0549 37.2915C69.0549 37.7714 68.8643 38.2316 68.525 38.5709C68.1856 38.9102 67.7254 39.1009 67.2456 39.1009Z" fill="#3F3D56"/>
<path id="Path 338" d="M67.248 48.5994H44.6321C44.3943 48.5997 44.1587 48.5531 43.9389 48.4624C43.7191 48.3716 43.5194 48.2383 43.3511 48.0703C43.1828 47.9023 43.0494 47.7027 42.9583 47.483C42.8672 47.2633 42.8203 47.0279 42.8203 46.79C42.8203 46.5522 42.8672 46.3168 42.9583 46.0971C43.0494 45.8774 43.1828 45.6778 43.3511 45.5098C43.5194 45.3418 43.7191 45.2085 43.9389 45.1177C44.1587 45.027 44.3943 44.9804 44.6321 44.9807H67.248C67.4858 44.9804 67.7213 45.027 67.9411 45.1177C68.1609 45.2085 68.3607 45.3418 68.5289 45.5098C68.6972 45.6778 68.8307 45.8774 68.9218 46.0971C69.0129 46.3168 69.0597 46.5522 69.0597 46.79C69.0597 47.0279 69.0129 47.2633 68.9218 47.483C68.8307 47.7027 68.6972 47.9023 68.5289 48.0703C68.3607 48.2383 68.1609 48.3716 67.9411 48.4624C67.7213 48.5531 67.4858 48.5997 67.248 48.5994Z" fill="#3F3D56"/>
<path id="Path 339" d="M33.0241 54.0078H16.4965C15.9568 54.0073 15.4394 53.7926 15.0578 53.411C14.6762 53.0294 14.4615 52.512 14.4609 51.9723V32.4684C14.4615 31.9287 14.6762 31.4113 15.0578 31.0297C15.4394 30.6481 15.9568 30.4334 16.4965 30.4329H33.0241C33.5638 30.4334 34.0812 30.6481 34.4628 31.0297C34.8445 31.4113 35.0591 31.9287 35.0597 32.4684V51.9723C35.0591 52.512 34.8445 53.0294 34.4628 53.411C34.0812 53.7926 33.5638 54.0073 33.0241 54.0078Z" fill="#68D391"/>
<path id="Path 340" d="M67.0852 68.0491H15.9734C15.4935 68.0491 15.0333 67.8585 14.694 67.5192C14.3547 67.1798 14.1641 66.7196 14.1641 66.2398C14.1641 65.7599 14.3547 65.2997 14.694 64.9604C15.0333 64.621 15.4935 64.4304 15.9734 64.4304H67.0852C67.5651 64.4304 68.0253 64.621 68.3646 64.9604C68.7039 65.2997 68.8946 65.7599 68.8946 66.2398C68.8946 66.7196 68.7039 67.1798 68.3646 67.5192C68.0253 67.8585 67.5651 68.0491 67.0852 68.0491Z" fill="#CCCCCC"/>
<path id="Path 341" d="M67.0852 77.5479H15.9734C15.4935 77.5479 15.0333 77.3572 14.694 77.0179C14.3547 76.6786 14.1641 76.2184 14.1641 75.7385C14.1641 75.2587 14.3547 74.7985 14.694 74.4591C15.0333 74.1198 15.4935 73.9292 15.9734 73.9292H67.0852C67.5651 73.9292 68.0253 74.1198 68.3646 74.4591C68.7039 74.7985 68.8946 75.2587 68.8946 75.7385C68.8946 76.2184 68.7039 76.6786 68.3646 77.0179C68.0253 77.3572 67.5651 77.5479 67.0852 77.5479Z" fill="#CCCCCC"/>
<path id="Path 342" d="M67.0906 87.0464H15.9788C15.4993 87.0458 15.0398 86.8549 14.701 86.5156C14.3622 86.1764 14.1719 85.7165 14.1719 85.2371C14.1719 84.7576 14.3622 84.2978 14.701 83.9585C15.0398 83.6193 15.4993 83.4284 15.9788 83.4277H67.0906C67.3284 83.4274 67.564 83.474 67.7838 83.5648C68.0036 83.6556 68.2033 83.7888 68.3716 83.9568C68.5399 84.1249 68.6733 84.3244 68.7644 84.5441C68.8555 84.7638 68.9024 84.9993 68.9024 85.2371C68.9024 85.4749 68.8555 85.7104 68.7644 85.93C68.6733 86.1497 68.5399 86.3493 68.3716 86.5173C68.2033 86.6854 68.0036 86.8186 67.7838 86.9094C67.564 87.0002 67.3284 87.0467 67.0906 87.0464Z" fill="#CCCCCC"/>
<path id="Path 343" d="M67.0852 96.545H15.9734C15.4935 96.545 15.0333 96.3543 14.694 96.015C14.3547 95.6757 14.1641 95.2155 14.1641 94.7356C14.1641 94.2557 14.3547 93.7955 14.694 93.4562C15.0333 93.1169 15.4935 92.9263 15.9734 92.9263H67.0852C67.5651 92.9263 68.0253 93.1169 68.3646 93.4562C68.7039 93.7955 68.8946 94.2557 68.8946 94.7356C68.8946 95.2155 68.7039 95.6757 68.3646 96.015C68.0253 96.3543 67.5651 96.545 67.0852 96.545Z" fill="#CCCCCC"/>
<path id="Path 344" d="M67.0852 106.043H15.9734C15.4935 106.043 15.0333 105.853 14.694 105.514C14.3547 105.174 14.1641 104.714 14.1641 104.234C14.1641 103.754 14.3547 103.294 14.694 102.955C15.0333 102.615 15.4935 102.425 15.9734 102.425H67.0852C67.5651 102.425 68.0253 102.615 68.3646 102.955C68.7039 103.294 68.8946 103.754 68.8946 104.234C68.8946 104.714 68.7039 105.174 68.3646 105.514C68.0253 105.853 67.5651 106.043 67.0852 106.043Z" fill="#CCCCCC"/>
<path id="Ellipse 44" d="M83.4769 34.9225C93.1204 34.9225 100.938 27.1048 100.938 17.4612C100.938 7.81766 93.1204 0 83.4769 0C73.8333 0 66.0156 7.81766 66.0156 17.4612C66.0156 27.1048 73.8333 34.9225 83.4769 34.9225Z" fill="#68D391"/>
<path id="Path 395" d="M81.747 24.1222C81.3542 24.1228 80.9718 23.9957 80.6575 23.7601L80.638 23.7455L76.5344 20.6063C76.3444 20.4606 76.1849 20.2789 76.065 20.0716C75.9452 19.8642 75.8674 19.6353 75.836 19.3979C75.8047 19.1604 75.8204 18.9192 75.8823 18.6878C75.9441 18.4565 76.051 18.2396 76.1967 18.0495C76.3424 17.8595 76.5241 17.7 76.7315 17.5801C76.9388 17.4603 77.1677 17.3825 77.4051 17.3511C77.6425 17.3198 77.8838 17.3355 78.1152 17.3974C78.3465 17.4593 78.5634 17.5661 78.7535 17.7118L81.4115 19.7501L87.6925 11.5558C87.8381 11.3659 88.0198 11.2064 88.227 11.0866C88.4343 10.9669 88.6631 10.8891 88.9004 10.8577C89.1378 10.8264 89.3789 10.8421 89.6102 10.904C89.8414 10.9658 90.0582 11.0726 90.2482 11.2183L90.2487 11.2187L90.2098 11.2728L90.2498 11.2187C90.633 11.5132 90.8838 11.9478 90.947 12.427C91.0102 12.9063 90.8807 13.391 90.587 13.7749L83.1991 23.4088C83.0282 23.6308 82.8085 23.8104 82.5569 23.9337C82.3054 24.0571 82.0288 24.1208 81.7486 24.12L81.747 24.1222Z" fill="white"/>
<path id="Vector_16" d="M193.949 174H75.1509C75.0653 174 74.9832 173.966 74.9227 173.906C74.8621 173.845 74.8281 173.763 74.8281 173.677C74.8281 173.592 74.8621 173.51 74.9227 173.449C74.9832 173.389 75.0653 173.354 75.1509 173.354H193.949C194.034 173.354 194.116 173.389 194.177 173.449C194.238 173.51 194.272 173.592 194.272 173.677C194.272 173.763 194.238 173.845 194.177 173.906C194.116 173.966 194.034 174 193.949 174Z" fill="#3F3D56"/>
</g>
<defs>
<clipPath id="clip0_1746_16647">
<rect width="194.272" height="174" fill="white"/>
</clipPath>
</defs>
</svg>
