<svg width="168" height="174" viewBox="0 0 168 174" fill="none" xmlns="http://www.w3.org/2000/svg">
<g id="undraw_certification_re_ifll (1) 1">
<path id="Vector" d="M44.6516 39.0615C43.4611 39.5157 42.2455 39.9008 41.0108 40.2147C39.3797 40.6129 38.4589 40.7974 36.8847 40.1855C36.8294 40.164 36.7766 40.1427 36.7268 40.1218C33.743 38.8511 31.1923 36.739 29.3852 34.0426C27.5782 31.3461 26.5928 28.1817 26.5489 24.9344C26.541 24.823 26.541 24.7059 26.541 24.5917C26.5394 24.0413 26.5657 23.4912 26.6197 22.9435C26.6887 22.1975 26.8078 21.457 26.9763 20.727L26.9606 20.7241C25.686 19.4188 25.1956 17.6307 25.3582 15.834C25.4696 14.6159 25.8556 13.4391 26.487 12.3921C27.1185 11.3452 27.9789 10.4554 29.0035 9.78988C30.6093 8.77868 32.4199 8.13857 34.3036 7.9161C34.8094 7.85768 35.3181 7.82811 35.8273 7.82755H40.6107C41.5987 7.59587 42.6023 7.43739 43.6135 7.35338H43.6214C53.2486 6.5536 60.8408 12.9462 60.1327 20.7241C60.1274 20.7327 60.1196 20.7413 60.1143 20.7498C59.9098 21.084 59.7288 21.4011 59.5689 21.7039C59.4141 21.9866 59.283 22.258 59.1702 22.5151C58.2917 24.5031 62.4667 55.3476 60.9693 55.816C60.117 56.0817 56.6815 33.1294 57.2978 37.494C58.074 42.9696 49.0868 37.4194 44.6516 39.0615Z" fill="#2F2E41"/>
<path id="Vector_2" d="M59.1627 94.8191L72.508 123.295L21.1719 118.088L31.888 90.751L59.1627 94.8191Z" fill="#FFB6B6"/>
<path id="Vector_3" d="M85.9471 151.913C77.0201 154.889 67.6124 156.151 58.2181 155.633L54.133 148.997C54.133 148.997 53.9619 151.469 53.7068 155.247C49.2348 154.728 44.8211 153.79 40.5236 152.447C32.3736 149.895 24.7339 145.94 16.9899 142.292C15.4214 132.927 14.8328 118.486 23.5046 110.079L70.1807 118.645C70.1807 118.645 77.6696 124.256 75.6661 126.265C73.6627 128.272 73.3525 127.961 74.6688 129.28C75.9851 130.598 78.8293 132.361 78.8583 133.514C78.8699 133.964 82.062 142.127 85.9471 151.913Z" fill="#2F2E41"/>
<path id="Vector_4" d="M51.0113 39.793L39.7345 40.581L32.4459 47.6353L29.8933 48.0917C27.5988 48.5014 25.5342 49.7403 24.091 51.5733C22.6478 53.4063 21.9263 55.7061 22.0634 58.0364C22.5884 66.9465 23.764 80.2598 26.2212 84.5791C30.0312 91.2765 33.1782 89.1751 30.0312 91.2765C26.8842 93.3779 24.7714 91.7267 26.2212 95.0477C27.671 98.3687 24.2617 102.628 24.2617 102.628L22.9045 103.988L24.344 104.579L70.2101 110.556C70.2101 110.556 66.2442 92.6964 68.7244 88.3091C71.2046 83.9217 77.2182 70.6598 71.8512 65.4705L66.6035 46.974L57.5768 44.3075L51.0113 39.793Z" fill="#6C63FF"/>
<path id="Vector_5" d="M119.272 113.095C118.517 113.071 117.776 112.883 117.101 112.545C116.426 112.206 115.833 111.724 115.362 111.133C114.891 110.542 114.554 109.855 114.374 109.121C114.194 108.386 114.175 107.622 114.319 106.879L92.8047 92.2852L95.3718 85.3323L120.799 102.853C122.028 103.189 123.092 103.965 123.788 105.034C124.485 106.103 124.765 107.391 124.577 108.654C124.389 109.916 123.745 111.065 122.767 111.884C121.789 112.703 120.545 113.134 119.272 113.095Z" fill="#FFB6B6"/>
<path id="Vector_6" d="M58.5013 46.1004L55.375 47.3403L72.0523 79.9644L106.577 103.535L111.554 95.1107L85.2731 72.3743L74.7515 52.1632C73.2708 49.3189 70.7904 47.125 67.7892 46.0053C64.788 44.8856 61.479 44.9195 58.5013 46.1004Z" fill="#6C63FF"/>
<path id="Vector_7" d="M44.7766 36.9237C51.0304 36.9237 56.1001 31.8459 56.1001 25.5821C56.1001 19.3183 51.0304 14.2405 44.7766 14.2405C38.5228 14.2405 33.4531 19.3183 33.4531 25.5821C33.4531 31.8459 38.5228 36.9237 44.7766 36.9237Z" fill="#FFB6B6"/>
<path id="Vector_8" d="M54.6272 20.7863C54.4384 20.8861 54.2522 20.978 54.0633 21.0699C53.8666 21.1645 53.67 21.2591 53.4707 21.3484C49.6811 23.0689 46.5944 23.2606 44.722 20.7863C44.6707 19.4845 44.3781 18.2036 43.8592 17.0091C43.9509 18.344 43.5996 19.6719 42.86 20.7863H39.0888C35.2049 23.3683 33.2118 25.7403 35.9077 34.2166C36.0834 34.7735 37.2872 54.5579 37.6307 56.0788C31.751 53.8198 26.6791 29.8353 26.5506 23.5154C26.5427 23.413 26.5427 23.3053 26.5427 23.2002C26.5412 22.6939 26.5675 22.188 26.6214 21.6846C26.6906 20.9974 26.8098 20.3161 26.9781 19.6463L26.9623 19.6436C26.3641 19.0708 25.9077 18.3659 25.6295 17.5852C25.3514 16.8045 25.259 15.9695 25.36 15.1467C26.3463 13.8532 27.5669 12.7571 28.9581 11.9159C30.223 11.3023 31.5416 10.8064 32.8971 10.4344C32.9312 10.4265 32.96 10.4186 32.9941 10.4108C33.4085 10.2978 33.8333 10.1954 34.2582 10.1061C35.1337 9.92216 36.0189 9.78799 36.9095 9.70418C36.9751 9.70155 37.038 9.69629 37.0957 9.69629C37.452 9.69652 37.8016 9.79269 38.108 9.97472C38.1106 9.97472 38.1106 9.97735 38.1159 9.97735C38.4103 10.1535 38.6544 10.4027 38.8248 10.7008C38.9952 10.9989 39.0861 11.3359 39.0888 11.6795H43.2901C43.4448 11.6795 43.5995 11.6847 43.7543 11.6926C49.6051 11.9264 54.3072 14.4323 54.6088 20.1926C54.6219 20.3923 54.6272 20.5866 54.6272 20.7863Z" fill="#2F2E41"/>
<path id="Vector_9" d="M29.7881 21.2422C33.9081 21.2422 37.2481 17.8969 37.2481 13.7703C37.2481 9.64364 33.9081 6.29834 29.7881 6.29834C25.6681 6.29834 22.3281 9.64364 22.3281 13.7703C22.3281 17.8969 25.6681 21.2422 29.7881 21.2422Z" fill="#2F2E41"/>
<path id="Vector_10" d="M40.0311 10.3141C39.1836 14.3525 35.0023 16.7678 31.002 15.7798C29.0811 15.3053 27.427 14.086 26.4036 12.39C25.3802 10.694 25.0714 8.66026 25.5451 6.73622C26.5315 2.7296 31.3863 3.88467 34.5742 1.27054C39.084 -2.42753 41.1741 4.86802 40.0311 10.3141Z" fill="#2F2E41"/>
<path id="Vector_11" d="M23.4565 122.727C29.8145 96.7576 42.4122 74.4365 63.2758 56.9482C64.0833 55.6177 65.3847 54.6624 66.8945 54.2918C68.4043 53.9212 69.9992 54.1656 71.3293 54.9713L120.927 85.0919C122.256 85.9006 123.21 87.2041 123.58 88.7163C123.95 90.2285 123.706 91.826 122.901 93.1583C114.938 119.806 103.01 142.929 83.0818 158.937C82.2743 160.268 80.973 161.223 79.4632 161.593C77.9534 161.964 76.3585 161.72 75.0283 160.914L25.4303 130.793C24.102 129.985 23.1482 128.681 22.7781 127.169C22.4081 125.657 22.652 124.059 23.4565 122.727Z" fill="#E2E8F0"/>
<path id="Vector_12" opacity="0.2" d="M32.272 131.479C30.9437 130.67 29.9899 129.367 29.6199 127.855C29.2499 126.342 29.4939 124.745 30.2983 123.413C36.6563 97.4432 49.2541 75.1221 70.1176 57.6338C70.6521 56.7629 71.4068 56.0489 72.3053 55.564L71.3293 54.9713C69.9991 54.1656 68.4043 53.9212 66.8945 54.2918C65.3847 54.6624 64.0833 55.6177 63.2758 56.9481C42.4123 74.4364 29.8145 96.7575 23.4565 122.727C22.6521 124.059 22.4081 125.657 22.7781 127.169C23.1481 128.681 24.1019 129.985 25.4302 130.793L75.0282 160.914C75.911 161.446 76.9185 161.735 77.9486 161.751C78.9788 161.767 79.9949 161.511 80.8941 161.007L32.272 131.479Z" fill="black"/>
<path id="Vector_13" d="M90.4341 116.97L57.1416 96.8778C56.6127 96.5577 56.2323 96.0404 56.0839 95.4395C55.9355 94.8386 56.0313 94.2033 56.3502 93.6731C56.6691 93.1429 57.1852 92.7612 57.7849 92.6118C58.3846 92.4624 59.019 92.5575 59.5488 92.8763L92.8413 112.968C93.3689 113.289 93.7481 113.806 93.8957 114.407C94.0433 115.007 93.9474 115.641 93.6288 116.171C93.3103 116.7 92.7951 117.082 92.1963 117.232C91.5975 117.381 90.9638 117.287 90.4341 116.97Z" fill="white"/>
<path id="Vector_14" d="M71.0686 90.3259L63.7442 85.9057C63.2134 85.5876 62.8305 85.0714 62.6797 84.4706C62.529 83.8697 62.6226 83.2335 62.9402 82.7019C63.2577 82.1702 63.7731 81.7867 64.373 81.6357C64.9728 81.4846 65.608 81.5785 66.1388 81.8965L66.1514 81.9042L73.4758 86.3244C74.0035 86.6451 74.3829 87.1623 74.5306 87.7627C74.6783 88.363 74.5823 88.9975 74.2637 89.5271C73.9451 90.0567 73.4299 90.4382 72.831 90.5879C72.232 90.7376 71.5982 90.6434 71.0686 90.3259Z" fill="white"/>
<path id="Vector_15" d="M85.1481 125.766L51.8556 105.674C51.326 105.354 50.9448 104.837 50.7956 104.236C50.6463 103.636 50.7413 103 51.0597 102.469C51.3781 101.939 51.8938 101.556 52.4935 101.406C53.0932 101.256 53.7279 101.351 54.258 101.669L54.2627 101.672L87.5552 121.764C88.0829 122.085 88.4621 122.602 88.6097 123.202C88.7573 123.803 88.6613 124.437 88.3428 124.967C88.0242 125.496 87.5091 125.878 86.9103 126.027C86.3114 126.177 85.6778 126.083 85.1481 125.766Z" fill="white"/>
<path id="Vector_16" d="M94.6616 79.0857C100.032 79.0857 104.386 74.7252 104.386 69.3461C104.386 63.967 100.032 59.6064 94.6616 59.6064C89.2911 59.6064 84.9375 63.967 84.9375 69.3461C84.9375 74.7252 89.2911 79.0857 94.6616 79.0857Z" fill="#3F3D56"/>
<path id="Vector_17" d="M77.9087 173.71C89.3873 173.71 98.6924 164.39 98.6924 152.893C98.6924 141.396 89.3873 132.076 77.9087 132.076C66.4302 132.076 57.125 141.396 57.125 152.893C57.125 164.39 66.4302 173.71 77.9087 173.71Z" fill="#48BB78"/>
<path id="Vector_18" d="M75.0689 163.727C74.71 163.727 74.356 163.643 74.035 163.482C73.714 163.322 73.4349 163.088 73.2196 162.8L67.5495 155.228C67.367 154.985 67.2342 154.708 67.1586 154.413C67.0831 154.119 67.0662 153.812 67.109 153.511C67.1519 153.209 67.2536 152.92 67.4083 152.658C67.563 152.396 67.7677 152.167 68.0107 151.985C68.2538 151.802 68.5303 151.669 68.8246 151.594C69.1189 151.518 69.4251 151.502 69.7258 151.545C70.0265 151.588 70.3157 151.69 70.577 151.845C70.8383 152.001 71.0665 152.206 71.2485 152.449L74.9581 157.403L84.4857 143.089C84.6541 142.836 84.8706 142.619 85.1229 142.449C85.3752 142.28 85.6582 142.162 85.9559 142.103C86.2536 142.043 86.5602 142.043 86.858 142.102C87.1558 142.161 87.4392 142.278 87.6918 142.447C87.9444 142.615 88.1614 142.832 88.3303 143.085C88.4992 143.338 88.6168 143.621 88.6764 143.919C88.7359 144.218 88.7363 144.525 88.6773 144.823C88.6184 145.121 88.5014 145.405 88.333 145.658L76.9928 162.696C76.7876 163.004 76.5117 163.258 76.1882 163.437C75.8646 163.617 75.5029 163.716 75.1333 163.726C75.1118 163.726 75.0904 163.727 75.0689 163.727Z" fill="white"/>
<path id="Vector_19" d="M145.025 47.4012C145.851 47.3304 146.48 46.8066 146.431 46.2311C146.382 45.6557 145.673 45.2465 144.847 45.3172C144.021 45.388 143.391 45.9118 143.441 46.4873C143.49 47.0627 144.199 47.4719 145.025 47.4012Z" fill="white"/>
<path id="Vector_20" d="M154.314 44.2442C155.14 44.1734 155.77 43.6496 155.72 43.0741C155.671 42.4987 154.962 42.0895 154.136 42.1603C153.31 42.231 152.68 42.7548 152.73 43.3303C152.779 43.9057 153.488 44.3149 154.314 44.2442Z" fill="#3F3D56"/>
<path id="Vector_21" d="M140.626 40.3006C141.452 40.2298 142.082 39.706 142.033 39.1305C141.984 38.5551 141.274 38.1459 140.449 38.2167C139.623 38.2874 138.993 38.8112 139.042 39.3867C139.091 39.9621 139.801 40.3713 140.626 40.3006Z" fill="#FF6584"/>
<path id="Vector_22" d="M136.718 38.0122C137.073 37.9317 137.268 37.4516 137.153 36.9398C137.037 36.428 136.655 36.0783 136.3 36.1588C135.944 36.2392 135.75 36.7193 135.865 37.2312C135.981 37.743 136.363 38.0926 136.718 38.0122Z" fill="#E6E6E6"/>
<path id="Vector_23" d="M133.945 32.4573C134.3 32.3768 134.495 31.8967 134.379 31.3849C134.264 30.8731 133.882 30.5234 133.526 30.6039C133.171 30.6843 132.976 31.1644 133.092 31.6762C133.207 32.188 133.589 32.5377 133.945 32.4573Z" fill="#3F3D56"/>
<path id="Vector_24" d="M147.257 40.2583C147.613 40.1778 147.807 39.6977 147.692 39.1859C147.576 38.6741 147.194 38.3244 146.839 38.4049C146.483 38.4853 146.289 38.9654 146.404 39.4772C146.52 39.989 146.902 40.3387 147.257 40.2583Z" fill="#E6E6E6"/>
<path id="Vector_25" d="M143.202 43.633C143.558 43.5526 143.752 43.0725 143.637 42.5607C143.521 42.0489 143.14 41.6992 142.784 41.7796C142.429 41.8601 142.234 42.3402 142.35 42.852C142.465 43.3638 142.847 43.7135 143.202 43.633Z" fill="#FF6584"/>
<path id="Vector_26" d="M150.593 46.3821C150.948 46.3016 151.143 45.8215 151.028 45.3097C150.912 44.7979 150.53 44.4482 150.175 44.5287C149.819 44.6091 149.625 45.0892 149.74 45.601C149.856 46.1128 150.238 46.4625 150.593 46.3821Z" fill="#3F3D56"/>
<path id="Vector_27" d="M106.666 4.37233C106.808 3.81247 106.271 3.19328 105.468 2.98933C104.664 2.78538 103.898 3.07389 103.756 3.63375C103.615 4.19361 104.151 4.8128 104.955 5.01675C105.758 5.2207 106.525 4.93219 106.666 4.37233Z" fill="white"/>
<path id="Vector_28" d="M96.8459 4.30883C96.9876 3.74898 96.451 3.12979 95.6475 2.92584C94.844 2.72188 94.0778 3.0104 93.9362 3.57026C93.7945 4.13011 94.3311 4.74932 95.1346 4.95327C95.9381 5.15722 96.7043 4.86869 96.8459 4.30883Z" fill="#3F3D56"/>
<path id="Vector_29" d="M108.502 12.5261C108.644 11.9663 108.107 11.3471 107.304 11.1431C106.5 10.9392 105.734 11.2277 105.592 11.7876C105.451 12.3474 105.987 12.9666 106.791 13.1706C107.594 13.3745 108.361 13.086 108.502 12.5261Z" fill="#FF6584"/>
<path id="Vector_30" d="M110.792 15.6008C110.85 15.0793 110.604 14.6237 110.241 14.5832C109.879 14.5427 109.539 14.9325 109.48 15.454C109.422 15.9755 109.669 16.4311 110.031 16.4716C110.393 16.5121 110.734 16.1223 110.792 15.6008Z" fill="#E6E6E6"/>
<path id="Vector_31" d="M111.589 21.7595C111.647 21.238 111.4 20.7824 111.038 20.7419C110.676 20.7014 110.335 21.0912 110.277 21.6127C110.219 22.1342 110.465 22.5897 110.828 22.6303C111.19 22.6708 111.531 22.2809 111.589 21.7595Z" fill="#3F3D56"/>
<path id="Vector_32" d="M101.558 10.0229C101.616 9.50145 101.369 9.04587 101.007 9.00534C100.645 8.9648 100.304 9.35467 100.246 9.87613C100.188 10.3976 100.434 10.8532 100.796 10.8937C101.159 10.9342 101.499 10.5444 101.558 10.0229Z" fill="#E6E6E6"/>
<path id="Vector_33" d="M106.495 8.165C106.553 7.64354 106.307 7.18796 105.945 7.14743C105.582 7.10689 105.242 7.49676 105.183 8.01822C105.125 8.53968 105.372 8.99526 105.734 9.03579C106.096 9.07633 106.437 8.68646 106.495 8.165Z" fill="#FF6584"/>
<path id="Vector_34" d="M100.417 3.14474C100.475 2.62328 100.229 2.1677 99.8664 2.12716C99.5043 2.08663 99.1635 2.47649 99.1053 2.99795C99.0472 3.51941 99.2936 3.975 99.6558 4.01553C100.018 4.05606 100.359 3.6662 100.417 3.14474Z" fill="#3F3D56"/>
<path id="Vector_35" d="M26.5495 123.002C25.8084 122.698 25.1421 122.236 24.5967 121.649C24.0514 121.061 23.6399 120.362 23.3907 119.6C23.1416 118.837 23.0608 118.03 23.1539 117.233C23.247 116.437 23.5118 115.67 23.9299 114.985L7.95312 92.4911L13.0786 86.5352L31.8594 113.391C32.9568 114.182 33.7266 115.348 34.0228 116.669C34.319 117.99 34.1211 119.374 33.4666 120.559C32.812 121.743 31.7464 122.647 30.4715 123.097C29.1967 123.547 27.8012 123.513 26.5495 123.002Z" fill="#FFB6B6"/>
<path id="Vector_36" d="M26.9231 51.7181C26.1148 51.2418 25.1635 51.0696 24.2399 51.2324C23.3162 51.3953 22.4808 51.8826 21.8836 52.6068L0.296875 82.8453L20.3021 111.304L28.1303 102.883L15.9532 83.7165L32.1366 68.2833C33.4665 65.3652 33.6697 62.057 32.7068 58.9976C31.7439 55.9383 29.6834 53.3448 26.9231 51.7181Z" fill="#6C63FF"/>
</g>
</svg>
