<svg width="194" height="174" viewBox="0 0 194 174" fill="none" xmlns="http://www.w3.org/2000/svg">
<g id="undraw_mail_sent_re_0ofv 1" clip-path="url(#clip0_1319_14855)">
<path id="Vector" d="M192.134 66.5411C192.064 66.5412 191.997 66.5199 191.94 66.4802L97.8931 0.983481C97.6069 0.785091 97.2668 0.679067 96.9186 0.679661C96.5703 0.680255 96.2306 0.787436 95.9451 0.986802L2.57596 66.4795C2.50211 66.5313 2.41071 66.5517 2.32186 66.5361C2.23302 66.5205 2.154 66.4702 2.1022 66.3964C2.0504 66.3225 2.03006 66.2311 2.04565 66.1423C2.06124 66.0534 2.11149 65.9744 2.18534 65.9226L95.5545 0.429888C95.9543 0.150818 96.4299 0.000804453 96.9175 3.22634e-06C97.405 -0.000798 97.8811 0.14765 98.2818 0.425405L192.328 65.9219C192.388 65.9633 192.432 66.0226 192.456 66.0911C192.479 66.1597 192.48 66.2339 192.458 66.303C192.437 66.372 192.393 66.4324 192.335 66.4752C192.277 66.5181 192.206 66.5411 192.134 66.5411Z" fill="#3F3D56"/>
<path id="Vector_2" d="M7.91113 68.8628L97.0109 2.82898L186.787 73.5614L101.602 124.06L55.3535 113.518L7.91113 68.8628Z" fill="#E6E6E6"/>
<path id="Vector_3" d="M59.2572 155.251H15.2398C14.9695 155.252 14.7018 155.199 14.452 155.095C14.2022 154.992 13.9752 154.841 13.7839 154.65C13.5927 154.459 13.441 154.232 13.3375 153.982C13.2339 153.733 13.1807 153.465 13.1807 153.195C13.1807 152.924 13.2339 152.657 13.3375 152.407C13.441 152.158 13.5927 151.931 13.7839 151.74C13.9752 151.549 14.2022 151.397 14.452 151.294C14.7018 151.191 14.9695 151.138 15.2398 151.138H59.2572C59.5275 151.138 59.7952 151.191 60.045 151.294C60.2948 151.397 60.5218 151.549 60.7131 151.74C60.9043 151.931 61.056 152.158 61.1595 152.407C61.263 152.657 61.3163 152.924 61.3163 153.195C61.3163 153.465 61.263 153.733 61.1595 153.982C61.056 154.232 60.9043 154.459 60.7131 154.65C60.5218 154.841 60.2948 154.992 60.045 155.095C59.7952 155.199 59.5275 155.252 59.2572 155.251Z" fill="#E2E8F0"/>
<path id="Vector_4" d="M31.0323 146.41H15.2398C14.9695 146.41 14.7018 146.357 14.452 146.254C14.2022 146.151 13.9752 145.999 13.7839 145.808C13.5927 145.617 13.441 145.39 13.3375 145.141C13.2339 144.891 13.1807 144.624 13.1807 144.353C13.1807 144.083 13.2339 143.815 13.3375 143.566C13.441 143.316 13.5927 143.089 13.7839 142.898C13.9752 142.707 14.2022 142.556 14.452 142.453C14.7018 142.349 14.9695 142.296 15.2398 142.297H31.0323C31.3025 142.296 31.5702 142.349 31.82 142.453C32.0698 142.556 32.2969 142.707 32.4881 142.898C32.6793 143.089 32.8311 143.316 32.9346 143.566C33.0381 143.815 33.0914 144.083 33.0914 144.353C33.0914 144.624 33.0381 144.891 32.9346 145.141C32.8311 145.39 32.6793 145.617 32.4881 145.808C32.2969 145.999 32.0698 146.151 31.82 146.254C31.5702 146.357 31.3025 146.41 31.0323 146.41Z" fill="#48BB78"/>
<path id="Vector_5" d="M98.2636 105.643C97.929 105.643 97.5976 105.578 97.2879 105.452L42.3374 82.6511V11.2814C42.3381 10.6503 42.5892 10.0453 43.0354 9.59902C43.4817 9.15277 44.0867 8.90174 44.7178 8.901H150.136C150.767 8.90174 151.372 9.15277 151.819 9.59902C152.265 10.0453 152.516 10.6503 152.517 11.2814V82.7009L152.413 82.7451L99.2688 105.441C98.9506 105.574 98.6088 105.643 98.2636 105.643Z" fill="white"/>
<path id="Vector_6" d="M98.2637 105.813C97.907 105.813 97.5536 105.744 97.2233 105.609L42.1675 82.7647V11.2814C42.1682 10.6052 42.4372 9.95695 42.9153 9.47881C43.3935 9.00068 44.0417 8.73172 44.7179 8.73096H150.136C150.813 8.73172 151.461 9.00068 151.939 9.47881C152.417 9.95695 152.686 10.6052 152.687 11.2814V82.8132L99.3357 105.597C98.9964 105.74 98.6319 105.813 98.2637 105.813ZM42.8476 82.3104L97.4826 104.98C97.9922 105.187 98.5629 105.184 99.07 104.971L152.007 82.3642V11.2814C152.006 10.7855 151.809 10.3102 151.458 9.95953C151.108 9.60891 150.632 9.41166 150.136 9.41108H44.7179C44.2221 9.41166 43.7467 9.60891 43.3961 9.95953C43.0454 10.3102 42.8482 10.7855 42.8476 11.2814L42.8476 82.3104Z" fill="#3F3D56"/>
<path id="Vector_7" d="M191.454 65.861H191.386L152.347 82.5307L98.9336 105.339C98.7249 105.426 98.501 105.472 98.2745 105.473C98.0481 105.474 97.8237 105.431 97.6141 105.345L42.5075 82.4831L2.5096 65.8882L2.4485 65.861H2.38042C1.74931 65.8617 1.14424 66.1127 0.69798 66.5589C0.251716 67.0052 0.000700268 67.6103 0 68.2414V171.62C0.000701167 172.251 0.251717 172.856 0.69798 173.302C1.14424 173.748 1.74931 173.999 2.38042 174H191.454C192.085 173.999 192.69 173.748 193.136 173.302C193.582 172.856 193.833 172.251 193.834 171.62V68.2414C193.833 67.6103 193.582 67.0052 193.136 66.5589C192.69 66.1127 192.085 65.8617 191.454 65.861ZM193.154 171.62C193.154 172.07 192.975 172.503 192.656 172.822C192.337 173.14 191.905 173.32 191.454 173.32H2.38042C1.92953 173.32 1.49716 173.14 1.17833 172.822C0.859498 172.503 0.6803 172.07 0.680119 171.62V68.2414C0.680736 67.8017 0.851292 67.3792 1.15613 67.0624C1.46096 66.7455 1.87648 66.5587 2.31583 66.5411L42.5075 83.2176L97.3524 105.974C97.9461 106.216 98.6113 106.212 99.2023 105.964L152.347 83.2686L191.522 66.5411C191.96 66.56 192.375 66.7473 192.679 67.064C192.983 67.3807 193.153 67.8024 193.154 68.2414V171.62Z" fill="#3F3D56"/>
<path id="Vector_8" d="M97.7144 85.405C95.6858 85.4088 93.711 84.7528 92.0879 83.536L91.9872 83.4604L70.7978 67.237C69.8164 66.4851 68.9928 65.5473 68.3739 64.4771C67.755 63.4069 67.353 62.2253 67.1908 60.9997C67.0286 59.7742 67.1093 58.5286 67.4284 57.3343C67.7476 56.1399 68.2988 55.0201 69.0507 54.0388C69.8026 53.0574 70.7404 52.2338 71.8106 51.6149C72.8808 50.996 74.0624 50.594 75.288 50.4318C76.5136 50.2695 77.7591 50.3503 78.9535 50.6694C80.1478 50.9885 81.2676 51.5398 82.249 52.2917L95.9739 62.8158L128.408 20.5168C129.16 19.5358 130.098 18.7125 131.169 18.0939C132.239 17.4754 133.421 17.0738 134.647 16.912C135.872 16.7502 137.118 16.8314 138.312 17.151C139.506 17.4706 140.626 18.0223 141.607 18.7745L141.405 19.0483L141.612 18.7785C143.591 20.2995 144.886 22.5433 145.213 25.0177C145.539 27.4921 144.871 29.9951 143.354 31.9774L105.204 81.7311C104.322 82.8776 103.187 83.8054 101.888 84.4425C100.589 85.0797 99.1612 85.409 97.7144 85.405Z" fill="#48BB78"/>
</g>
<defs>
<clipPath id="clip0_1319_14855">
<rect width="193.834" height="174" fill="white"/>
</clipPath>
</defs>
</svg>
