<svg width="169" height="174" viewBox="0 0 169 174" fill="none" xmlns="http://www.w3.org/2000/svg">
<g id="undraw_join_re_w1lh (1) 1" clip-path="url(#clip0_438_9545)">
<path id="Vector" d="M149.536 132.419L149.532 132.497L153.484 174H124.65L120.912 148.51L119.267 173.347L89.6562 173.02L92.8016 140.412L95.4764 125.298V125.295L95.8778 123.021H148.749L148.819 123.844L149.536 132.419Z" fill="#2F2E41"/>
<path id="Vector_2" d="M73.334 156.478C76.3878 157.031 79.5721 153.615 80.4464 148.848C80.8291 146.762 80.7056 144.762 80.1897 143.127L80.6579 140.38L88.5158 103.417C88.5158 103.417 102.986 74.6669 102.985 69.6758C102.985 64.6847 98.7995 62.2371 98.7995 62.2371L93.1359 62.2897L75.3751 105.376L72.1765 137.215L71.659 141.584C70.5957 142.933 69.7703 144.761 69.3877 146.847C68.5134 151.614 70.2802 155.925 73.334 156.478Z" fill="#FFB6B6"/>
<path id="Vector_3" d="M130.946 44.4268L125.682 32.3354L108.573 35.2766L107.422 49.5023L130.946 44.4268Z" fill="#FFB6B6"/>
<path id="Vector_4" opacity="0.1" d="M130.946 44.4268L125.682 32.3354L108.573 35.2766L107.422 49.5023L130.946 44.4268Z" fill="black"/>
<path id="Vector_5" d="M168.124 69.5898C168.124 69.5898 155.951 47.0412 153.648 44.7536C152.622 43.7353 151.011 43.7211 149.537 44.0179L132.591 38.2178L126.847 35.0122L126.469 41.1108L107.612 44.4727C107.716 40.7535 108.245 39.3389 108.245 39.3389L101.335 47.368L87.8461 53.9038L87.8535 53.9626C86.8635 54.3059 85.925 54.8932 85.214 55.8646C82.5819 59.4593 75.3438 103.249 75.3438 103.249L90.8071 106.517L92.9116 93.4001L94.4262 105.21L95.5778 127.269C95.5778 127.269 116.634 145.242 126.834 138.706C137.033 132.171 149.535 132.497 149.535 132.497L149.847 122.273C150.069 121.92 150.193 121.713 150.193 121.713L149.864 85.4444V75.7935C152.371 79.262 155.395 82.2448 158.912 83.6419C170.427 88.217 168.124 69.5898 168.124 69.5898Z" fill="#E6E6E6"/>
<path id="Vector_6" d="M115.333 37.4042C124.026 37.4042 131.072 30.4049 131.072 21.7709C131.072 13.1369 124.026 6.1377 115.333 6.1377C106.64 6.1377 99.5938 13.1369 99.5938 21.7709C99.5938 30.4049 106.64 37.4042 115.333 37.4042Z" fill="#FFB6B6"/>
<path id="Vector_7" d="M126.627 26.189C126.627 26.189 127.996 21.431 131.075 21.7709C134.155 22.1107 134.839 19.3919 134.155 18.0325C133.47 16.6731 132.102 9.87601 132.102 9.87601C132.102 9.87601 132.786 5.11807 128.68 4.43836C124.574 3.75866 123.206 3.07895 122.521 1.71954C121.837 0.360123 111.572 -0.99929 108.151 1.03983C104.729 3.07895 101.992 6.99127 99.5969 8.09379C97.2018 9.19631 95.1488 11.2354 96.5174 14.634C97.8861 18.0325 99.871 24.6793 99.871 24.6793C99.871 24.6793 103.361 23.4701 104.045 25.5093C104.729 27.5484 101.992 24.8295 105.414 19.3919C108.835 13.9542 108.835 8.5166 114.31 10.5557C119.784 12.5948 125.943 11.9151 125.259 15.9934C124.574 20.0716 126.627 26.189 126.627 26.189Z" fill="#2F2E41"/>
<g id="Group">
<path id="Vector_8" d="M125.665 150.123H6.13049C2.75007 150.123 0 147.391 0 144.034V80.9654C0 77.608 2.75007 74.8762 6.13049 74.8762H125.665C129.045 74.8762 131.795 77.608 131.795 80.9654V144.034C131.795 147.391 129.045 150.123 125.665 150.123Z" fill="white"/>
<path id="Vector_9" d="M125.665 150.123H6.13049C2.75007 150.123 0 147.391 0 144.034V80.9654C0 77.608 2.75007 74.8762 6.13049 74.8762H125.665C129.045 74.8762 131.795 77.608 131.795 80.9654V144.034C131.795 147.391 129.045 150.123 125.665 150.123ZM6.13049 75.8931C3.31468 75.8931 1.02375 78.1686 1.02375 80.9654V144.034C1.02375 146.831 3.31468 149.106 6.13049 149.106H125.665C128.48 149.106 130.771 146.831 130.771 144.034V80.9654C130.771 78.1686 128.48 75.8931 125.665 75.8931H6.13049Z" fill="#3F3D56"/>
<path id="Vector_10" d="M116.442 82.5027C117.29 82.5027 117.977 81.8198 117.977 80.9774C117.977 80.135 117.29 79.4521 116.442 79.4521C115.594 79.4521 114.906 80.135 114.906 80.9774C114.906 81.8198 115.594 82.5027 116.442 82.5027Z" fill="#3F3D56"/>
<path id="Vector_11" d="M120.536 82.5027C121.384 82.5027 122.071 81.8198 122.071 80.9774C122.071 80.135 121.384 79.4521 120.536 79.4521C119.688 79.4521 119 80.135 119 80.9774C119 81.8198 119.688 82.5027 120.536 82.5027Z" fill="#3F3D56"/>
<path id="Vector_12" d="M124.629 82.5027C125.477 82.5027 126.165 81.8198 126.165 80.9774C126.165 80.135 125.477 79.4521 124.629 79.4521C123.781 79.4521 123.094 80.135 123.094 80.9774C123.094 81.8198 123.781 82.5027 124.629 82.5027Z" fill="#3F3D56"/>
<path id="Vector_13" d="M8.70531 105.636C8.28192 105.636 7.9375 105.978 7.9375 106.399C7.9375 106.604 8.01723 106.793 8.16194 106.933C8.30791 107.082 8.49911 107.161 8.70531 107.161H123.609C124.032 107.161 124.376 106.819 124.376 106.399C124.376 106.194 124.297 106.004 124.152 105.864C124.006 105.715 123.815 105.636 123.609 105.636H8.70531Z" fill="#E6E6E6"/>
<path id="Vector_14" d="M109.274 105.382V107.416H8.70344C8.42191 107.416 8.16598 107.304 7.98171 107.116C7.79228 106.933 7.67969 106.678 7.67969 106.399C7.67969 105.839 8.14038 105.382 8.70343 105.382H109.274Z" fill="#48BB78"/>
<path id="Vector_15" d="M122.324 101.569H112.087C110.958 101.569 110.039 100.657 110.039 99.5349C110.039 98.4133 110.958 97.5012 112.087 97.5012H122.324C123.453 97.5012 124.372 98.4133 124.372 99.5349C124.372 100.657 123.453 101.569 122.324 101.569Z" fill="#E6E6E6"/>
<path id="Vector_16" d="M55.2697 90.8916H9.46937C8.3404 90.8916 7.42188 89.9795 7.42188 88.8579C7.42188 87.7363 8.3404 86.8242 9.46937 86.8242H55.2697C56.3986 86.8242 57.3172 87.7363 57.3172 88.8579C57.3172 89.9795 56.3986 90.8916 55.2697 90.8916Z" fill="#E6E6E6"/>
<path id="Vector_17" d="M8.70531 128.515C8.28192 128.515 7.9375 128.857 7.9375 129.278C7.9375 129.483 8.01723 129.672 8.16194 129.813C8.30791 129.961 8.49911 130.04 8.70531 130.04H123.609C124.032 130.04 124.376 129.698 124.376 129.278C124.376 129.073 124.297 128.883 124.152 128.743C124.006 128.595 123.815 128.515 123.609 128.515H8.70531Z" fill="#E6E6E6"/>
<path id="Vector_18" d="M69.86 128.261V130.295H8.70344C8.42191 130.295 8.16598 130.183 7.98171 129.995C7.79228 129.812 7.67969 129.557 7.67969 129.278C7.67969 128.719 8.14039 128.261 8.70343 128.261H69.86Z" fill="#48BB78"/>
<path id="Vector_19" d="M122.324 124.448H112.087C110.958 124.448 110.039 123.536 110.039 122.414C110.039 121.292 110.958 120.38 112.087 120.38H122.324C123.453 120.38 124.372 121.292 124.372 122.414C124.372 123.536 123.453 124.448 122.324 124.448Z" fill="#E6E6E6"/>
</g>
<g id="Group_2">
<path id="Vector_20" d="M140.25 38.6075C149.104 38.6075 156.282 31.6285 156.282 23.0196C156.282 14.4106 149.104 7.43164 140.25 7.43164C131.396 7.43164 124.219 14.4106 124.219 23.0196C124.219 31.6285 131.396 38.6075 140.25 38.6075Z" fill="#48BB78"/>
<path id="Vector_21" d="M145.69 15.157C143.556 19.0171 141.422 22.8773 139.287 26.7374C137.927 24.3502 136.574 21.9588 135.211 19.5734C134.74 18.7496 133.459 19.4906 133.931 20.3164C135.512 23.0816 137.076 25.8559 138.657 28.6211C138.927 29.0939 139.669 29.1048 139.936 28.6211C142.281 24.3807 144.625 20.1404 146.97 15.9C147.429 15.0691 146.15 14.3255 145.69 15.157Z" fill="white"/>
</g>
<path id="Vector_22" d="M162.381 64.1075L146.409 56.5182C146.409 56.5182 145.767 51.4387 142.772 49.6269C142.263 48.4202 141.677 47.0946 141.145 46.0442C139.829 43.4466 141.803 38.5447 140.158 38.5447C138.513 38.5447 136.081 43.7 136.21 45.0805C136.308 46.1403 137.19 47.9905 137.372 49.6102C135.366 50.3616 133.748 51.6496 132.684 52.6752C131.763 53.5626 131.421 54.8867 131.781 56.11C132.824 59.6547 135.43 66.9756 139.171 66.9756C144.106 66.9756 145.422 65.9952 145.422 65.9952C145.422 65.9952 155.621 78.7401 163.188 79.7205C170.755 80.7009 162.381 64.1075 162.381 64.1075Z" fill="#FFB6B6"/>
</g>
<defs>
<clipPath id="clip0_438_9545">
<rect width="168.308" height="174" fill="white"/>
</clipPath>
</defs>
</svg>
