<svg width="247" height="223" viewBox="0 0 247 223" fill="none" xmlns="http://www.w3.org/2000/svg">
<g id="undraw_add_files_re_v09g (1) 1" clip-path="url(#clip0_438_9105)">
<path id="Vector" d="M126.491 0.486054L118.454 2.57095L19.4374 28.2573L11.4005 30.3422C7.49947 31.3589 4.15863 33.8907 2.11094 37.3822C0.0632523 40.8737 -0.524062 45.0397 0.477848 48.9662L35.3278 184.911C36.3385 188.835 38.8553 192.196 42.3261 194.255C45.7969 196.315 49.9383 196.906 53.8416 195.898L53.8623 195.893L168.911 166.048L168.932 166.042C172.833 165.025 176.174 162.494 178.222 159.002C180.27 155.511 180.857 151.345 179.855 147.418L145.005 11.4738C143.994 7.54951 141.477 4.18879 138.007 2.1289C134.536 0.0690115 130.394 -0.521811 126.491 0.486054Z" fill="#EDF2F7"/>
<path id="Vector_2" d="M127.584 4.74853L118.065 7.21795L22.0127 32.1354L12.4936 34.6047C9.71558 35.3287 7.33648 37.1317 5.87826 39.6181C4.42005 42.1044 4.0018 45.0711 4.71529 47.8673L39.5652 183.812C40.285 186.606 42.0773 188.999 44.5489 190.466C47.0206 191.933 49.9697 192.354 52.7493 191.636L52.7701 191.631L167.819 161.785L167.84 161.78C170.618 161.056 172.997 159.253 174.455 156.767C175.914 154.28 176.332 151.314 175.618 148.518L140.768 12.5731C140.049 9.77862 138.256 7.38538 135.785 5.91849C133.313 4.45159 130.364 4.03084 127.584 4.74853Z" fill="white"/>
<path id="Vector_3" d="M120.403 48.7709L62.2023 63.869C61.5522 64.0376 60.8622 63.9395 60.2841 63.5964C59.7059 63.2533 59.2869 62.6931 59.1193 62.0392C58.9516 61.3853 59.0491 60.6912 59.3902 60.1096C59.7313 59.5279 60.2881 59.1065 60.9382 58.9378L119.139 43.8398C119.789 43.6718 120.478 43.7702 121.056 44.1134C121.633 44.4566 122.052 45.0165 122.22 45.6701C122.387 46.3236 122.29 47.0173 121.949 47.5987C121.609 48.1802 121.052 48.6018 120.403 48.7709Z" fill="#E2E8F0"/>
<path id="Vector_4" d="M132.646 54.4694L64.3351 72.1903C63.6851 72.3589 62.9951 72.2609 62.4169 71.9177C61.8387 71.5746 61.4197 71.0144 61.2521 70.3605C61.0844 69.7066 61.1819 69.0125 61.523 68.4309C61.8641 67.8493 62.4209 67.4278 63.071 67.2591L131.382 49.5383C132.032 49.3697 132.722 49.4677 133.3 49.8109C133.878 50.154 134.297 50.7141 134.465 51.3681C134.633 52.022 134.535 52.7161 134.194 53.2977C133.853 53.8793 133.296 54.3008 132.646 54.4694Z" fill="#E2E8F0"/>
<path id="Vector_5" d="M129.965 86.0626L71.7648 101.161C71.4429 101.244 71.1079 101.263 70.7787 101.216C70.4496 101.17 70.1328 101.058 69.8466 100.888C69.5603 100.718 69.3101 100.493 69.1102 100.226C68.9103 99.9588 68.7648 99.6547 68.6817 99.3309C68.5987 99.0071 68.58 98.6701 68.6264 98.339C68.6729 98.0079 68.7838 97.6892 68.9527 97.4013C69.1216 97.1133 69.3452 96.8616 69.6108 96.6605C69.8764 96.4595 70.1788 96.313 70.5007 96.2295L128.701 81.1314C129.023 81.0479 129.358 81.029 129.687 81.0758C130.016 81.1226 130.333 81.2341 130.619 81.404C130.906 81.5739 131.156 81.7989 131.356 82.0661C131.556 82.3332 131.701 82.6374 131.784 82.9612C131.867 83.285 131.886 83.622 131.84 83.9531C131.793 84.2842 131.682 84.6028 131.513 84.8908C131.344 85.1788 131.121 85.4305 130.855 85.6316C130.59 85.8326 130.287 85.9791 129.965 86.0626Z" fill="#F2F2F2"/>
<path id="Vector_6" d="M142.208 91.7611L73.8976 109.482C73.5757 109.565 73.2407 109.584 72.9115 109.538C72.5824 109.491 72.2657 109.379 71.9794 109.209C71.6931 109.039 71.4429 108.814 71.243 108.547C71.0431 108.28 70.8976 107.976 70.8146 107.652C70.7316 107.328 70.7128 106.991 70.7593 106.66C70.8057 106.329 70.9166 106.01 71.0855 105.723C71.2544 105.435 71.478 105.183 71.7436 104.982C72.0092 104.781 72.3116 104.634 72.6335 104.551L140.944 86.8299C141.594 86.6613 142.284 86.7593 142.863 87.1025C143.441 87.4456 143.86 88.0058 144.027 88.6597C144.195 89.3136 144.098 90.0077 143.756 90.5893C143.415 91.171 142.859 91.5924 142.208 91.7611Z" fill="#F2F2F2"/>
<path id="Vector_7" d="M139.518 123.354L81.3178 138.452C80.6679 138.62 79.9783 138.522 79.4005 138.179C78.8227 137.836 78.404 137.276 78.2364 136.622C78.0689 135.969 78.1662 135.275 78.5069 134.693C78.8477 134.112 79.404 133.69 80.0537 133.521L138.254 118.423C138.904 118.255 139.594 118.353 140.172 118.696C140.751 119.039 141.17 119.599 141.337 120.253C141.505 120.907 141.407 121.601 141.066 122.183C140.725 122.764 140.168 123.186 139.518 123.354Z" fill="#F2F2F2"/>
<path id="Vector_8" d="M151.765 129.053L83.4545 146.774C83.1325 146.857 82.7972 146.877 82.4679 146.83C82.1385 146.784 81.8216 146.672 81.535 146.502C81.2485 146.332 80.9981 146.107 80.798 145.84C80.598 145.573 80.4523 145.268 80.3693 144.944C80.2862 144.62 80.2674 144.283 80.314 143.952C80.3606 143.621 80.4716 143.302 80.6408 143.014C80.8099 142.726 81.0338 142.474 81.2997 142.273C81.5656 142.072 81.8682 141.926 82.1904 141.843L150.501 124.122C151.151 123.953 151.841 124.051 152.419 124.394C152.998 124.737 153.417 125.298 153.584 125.951C153.752 126.605 153.654 127.299 153.313 127.881C152.972 128.463 152.415 128.884 151.765 129.053Z" fill="#F2F2F2"/>
<path id="Vector_9" d="M52.2629 79.3497L31.6663 84.6928C31.3546 84.7733 31.0239 84.7261 30.7468 84.5616C30.4696 84.3971 30.2687 84.1288 30.188 83.8154L25.46 65.3725C25.38 65.0589 25.4269 64.7263 25.5904 64.4475C25.7539 64.1687 26.0207 63.9665 26.3322 63.8854L46.9288 58.5423C47.2405 58.4618 47.5712 58.509 47.8483 58.6735C48.1255 58.8379 48.3265 59.1063 48.4072 59.4197L53.1351 77.8626C53.2151 78.1761 53.1682 78.5088 53.0047 78.7876C52.8412 79.0664 52.5744 79.2686 52.2629 79.3497Z" fill="#E2E8F0"/>
<path id="Vector_10" d="M61.8254 116.641L41.2288 121.985C40.9171 122.065 40.5864 122.018 40.3093 121.853C40.0321 121.689 39.8312 121.421 39.7505 121.107L35.0225 102.664C34.9425 102.351 34.9894 102.018 35.1529 101.739C35.3164 101.46 35.5832 101.258 35.8947 101.177L56.4913 95.834C56.803 95.7536 57.1337 95.8007 57.4108 95.9652C57.688 96.1297 57.889 96.3981 57.9696 96.7114L62.6976 115.154C62.7776 115.468 62.7307 115.801 62.5672 116.079C62.4037 116.358 62.1369 116.56 61.8254 116.641Z" fill="#E2E8F0"/>
<path id="Vector_11" d="M71.3879 153.933L50.7913 159.276C50.4796 159.357 50.1489 159.31 49.8718 159.145C49.5946 158.981 49.3937 158.712 49.313 158.399L44.585 139.956C44.505 139.642 44.5519 139.31 44.7154 139.031C44.8789 138.752 45.1457 138.55 45.4572 138.469L66.0538 133.126C66.3655 133.045 66.6962 133.092 66.9734 133.257C67.2505 133.421 67.4515 133.69 67.5322 134.003L72.2601 152.446C72.3401 152.76 72.2932 153.092 72.1297 153.371C71.9662 153.65 71.6994 153.852 71.3879 153.933Z" fill="#E2E8F0"/>
<path id="Vector_12" d="M206.767 34.9465H87.9107C83.8808 34.9511 80.0174 36.5635 77.1678 39.43C74.3183 42.2965 72.7155 46.1829 72.7109 50.2368V190.629C72.7155 194.683 74.3183 198.569 77.1678 201.435C80.0174 204.302 83.8808 205.914 87.9107 205.919H206.767C210.796 205.914 214.66 204.302 217.509 201.435C220.359 198.569 221.962 194.683 221.966 190.629V50.2368C221.962 46.1829 220.359 42.2965 217.509 39.43C214.66 36.5635 210.796 34.9511 206.767 34.9465Z" fill="#EDF2F7"/>
<path id="Vector_13" d="M206.766 39.3481H87.91C85.0403 39.3514 82.289 40.4996 80.2598 42.5409C78.2306 44.5822 77.0892 47.3498 77.0859 50.2366V190.629C77.0892 193.515 78.2306 196.283 80.2598 198.324C82.289 200.366 85.0403 201.514 87.91 201.517H206.766C209.636 201.514 212.387 200.366 214.416 198.324C216.446 196.283 217.587 193.515 217.59 190.629V50.2366C217.587 47.3498 216.446 44.5822 214.416 42.5409C212.387 40.4996 209.636 39.3514 206.766 39.3481Z" fill="white"/>
<path id="Vector_14" d="M213.767 218.504C226.168 218.504 236.222 208.44 236.222 196.024C236.222 183.609 226.168 173.544 213.767 173.544C201.366 173.544 191.312 183.609 191.312 196.024C191.312 208.44 201.366 218.504 213.767 218.504Z" fill="#ED8936"/>
<path id="Vector_15" d="M225.053 192.941H216.841V184.72C216.841 183.902 216.517 183.118 215.939 182.54C215.362 181.962 214.578 181.637 213.762 181.637C212.945 181.637 212.162 181.962 211.584 182.54C211.007 183.118 210.682 183.902 210.682 184.72V192.941H202.47C201.653 192.941 200.87 193.266 200.293 193.844C199.715 194.422 199.391 195.207 199.391 196.024C199.391 196.842 199.715 197.626 200.293 198.204C200.87 198.782 201.653 199.107 202.47 199.107H210.682V207.328C210.682 208.146 211.007 208.93 211.584 209.508C212.162 210.086 212.945 210.411 213.762 210.411C214.578 210.411 215.362 210.086 215.939 209.508C216.517 208.93 216.841 208.146 216.841 207.328V199.107H225.053C225.87 199.107 226.653 198.782 227.23 198.204C227.808 197.626 228.132 196.842 228.132 196.024C228.132 195.207 227.808 194.422 227.23 193.844C226.653 193.266 225.87 192.941 225.053 192.941Z" fill="white"/>
<path id="Vector_16" d="M188.873 116.493H128.768C128.436 116.494 128.106 116.428 127.799 116.3C127.491 116.172 127.212 115.985 126.977 115.748C126.741 115.512 126.555 115.231 126.427 114.922C126.3 114.613 126.234 114.282 126.234 113.947C126.234 113.612 126.3 113.281 126.427 112.972C126.555 112.663 126.741 112.382 126.977 112.146C127.212 111.909 127.491 111.722 127.799 111.594C128.106 111.466 128.436 111.4 128.768 111.401H188.873C189.544 111.402 190.187 111.67 190.661 112.148C191.135 112.625 191.401 113.272 191.401 113.947C191.401 114.622 191.135 115.269 190.661 115.746C190.187 116.224 189.544 116.492 188.873 116.493Z" fill="#E2E8F0"/>
<path id="Vector_17" d="M199.314 125.087H128.768C128.436 125.087 128.106 125.022 127.799 124.894C127.491 124.766 127.212 124.578 126.977 124.342C126.741 124.105 126.555 123.825 126.427 123.516C126.3 123.206 126.234 122.875 126.234 122.54C126.234 122.206 126.3 121.875 126.427 121.565C126.555 121.256 126.741 120.975 126.977 120.739C127.212 120.503 127.491 120.315 127.799 120.187C128.106 120.059 128.436 119.994 128.768 119.994H199.314C199.985 119.994 200.629 120.263 201.104 120.74C201.579 121.218 201.845 121.865 201.845 122.54C201.845 123.216 201.579 123.863 201.104 124.341C200.629 124.818 199.985 125.087 199.314 125.087Z" fill="#E2E8F0"/>
<path id="Vector_18" d="M188.873 155.005H128.768C128.436 155.005 128.106 154.94 127.799 154.812C127.491 154.684 127.212 154.497 126.977 154.26C126.741 154.024 126.555 153.743 126.427 153.434C126.3 153.125 126.234 152.793 126.234 152.459C126.234 152.124 126.3 151.793 126.427 151.484C126.555 151.175 126.741 150.894 126.977 150.657C127.212 150.421 127.491 150.233 127.799 150.105C128.106 149.978 128.436 149.912 128.768 149.912H188.873C189.544 149.912 190.188 150.181 190.663 150.658C191.138 151.136 191.404 151.783 191.404 152.459C191.404 153.134 191.138 153.782 190.663 154.259C190.188 154.737 189.544 155.005 188.873 155.005Z" fill="#E2E8F0"/>
<path id="Vector_19" d="M199.314 163.598H128.768C128.436 163.599 128.106 163.533 127.799 163.405C127.491 163.278 127.212 163.09 126.977 162.854C126.741 162.617 126.555 162.336 126.427 162.027C126.3 161.718 126.234 161.387 126.234 161.052C126.234 160.718 126.3 160.386 126.427 160.077C126.555 159.768 126.741 159.487 126.977 159.251C127.212 159.014 127.491 158.827 127.799 158.699C128.106 158.571 128.436 158.506 128.768 158.506H199.314C199.647 158.506 199.976 158.571 200.284 158.699C200.591 158.827 200.87 159.014 201.106 159.251C201.341 159.487 201.528 159.768 201.655 160.077C201.783 160.386 201.848 160.718 201.848 161.052C201.848 161.387 201.783 161.718 201.655 162.027C201.528 162.336 201.341 162.617 201.106 162.854C200.87 163.09 200.591 163.278 200.284 163.405C199.976 163.533 199.647 163.599 199.314 163.598Z" fill="#E2E8F0"/>
<path id="Vector_20" d="M115.312 128.988H94.0418C93.72 128.988 93.4115 128.859 93.184 128.63C92.9565 128.401 92.8285 128.091 92.8281 127.767V108.721C92.8285 108.397 92.9565 108.087 93.184 107.858C93.4115 107.629 93.72 107.5 94.0418 107.5H115.312C115.634 107.5 115.943 107.629 116.17 107.858C116.398 108.087 116.526 108.397 116.526 108.721V127.767C116.526 128.091 116.398 128.401 116.17 128.63C115.943 128.859 115.634 128.988 115.312 128.988Z" fill="#E2E8F0"/>
<path id="Vector_21" d="M115.312 167.5H94.0418C93.72 167.499 93.4115 167.37 93.184 167.142C92.9565 166.913 92.8285 166.602 92.8281 166.279V147.232C92.8285 146.909 92.9565 146.598 93.184 146.369C93.4115 146.14 93.72 146.012 94.0418 146.011H115.312C115.634 146.012 115.943 146.14 116.17 146.369C116.398 146.598 116.526 146.909 116.526 147.232V166.279C116.526 166.602 116.398 166.913 116.17 167.142C115.943 167.37 115.634 167.499 115.312 167.5Z" fill="#E2E8F0"/>
<path id="Vector_22" d="M188.945 73.6221H144.633C143.961 73.6221 143.318 73.3539 142.843 72.8763C142.368 72.3988 142.102 71.7512 142.102 71.0759C142.102 70.4006 142.368 69.7529 142.843 69.2754C143.318 68.7979 143.961 68.5297 144.633 68.5297H188.945C189.617 68.5297 190.261 68.7979 190.735 69.2754C191.21 69.7529 191.477 70.4006 191.477 71.0759C191.477 71.7512 191.21 72.3988 190.735 72.8763C190.261 73.3539 189.617 73.6221 188.945 73.6221Z" fill="#E2E8F0"/>
<path id="Vector_23" d="M199.387 82.2156H144.633C144.3 82.2156 143.971 82.1498 143.664 82.0218C143.357 81.8938 143.078 81.7063 142.843 81.4699C142.608 81.2334 142.421 80.9527 142.294 80.6438C142.167 80.3349 142.102 80.0038 142.102 79.6694C142.102 79.335 142.167 79.0039 142.294 78.695C142.421 78.3861 142.608 78.1054 142.843 77.8689C143.078 77.6325 143.357 77.4449 143.664 77.317C143.971 77.189 144.3 77.1232 144.633 77.1232H199.387C200.058 77.1232 200.702 77.3914 201.176 77.8689C201.651 78.3464 201.918 78.9941 201.918 79.6694C201.918 80.3447 201.651 80.9923 201.176 81.4699C200.702 81.9474 200.058 82.2156 199.387 82.2156Z" fill="#E2E8F0"/>
<path id="Vector_24" d="M134.824 92.6298H93.9715C93.6497 92.6295 93.3412 92.5007 93.1137 92.2719C92.8862 92.043 92.7582 91.7326 92.7578 91.4089V59.3361C92.7582 59.0124 92.8862 58.7021 93.1137 58.4732C93.3412 58.2443 93.6497 58.1156 93.9715 58.1152H134.824C135.146 58.1156 135.454 58.2443 135.682 58.4732C135.909 58.7021 136.037 59.0124 136.038 59.3361V91.4089C136.037 91.7326 135.909 92.043 135.682 92.2719C135.454 92.5007 135.146 92.6295 134.824 92.6298Z" fill="#E2E8F0"/>
</g>
<defs>
<clipPath id="clip0_438_9105">
<rect width="247" height="223" fill="white"/>
</clipPath>
</defs>
</svg>
