<svg width="299" height="231" viewBox="0 0 299 231" fill="none" xmlns="http://www.w3.org/2000/svg">
<g clip-path="url(#clip0_2591_16578)">
<path d="M170.183 112.952C176.888 112.952 182.324 107.526 182.324 100.833C182.324 94.1397 176.888 88.7139 170.183 88.7139C163.477 88.7139 158.041 94.1397 158.041 100.833C158.041 107.526 163.477 112.952 170.183 112.952Z" fill="#E6E6E6"/>
<path d="M199.939 116.407L187.251 103.742C188.224 102.233 188.883 100.543 189.189 98.7743C189.496 97.0054 189.443 95.1932 189.035 93.4449C188.627 91.6967 187.872 90.0479 186.814 88.5964C185.756 87.1449 184.417 85.9201 182.876 84.9946C179.974 83.2644 176.527 82.685 173.218 83.3712C169.908 84.0574 166.978 85.959 165.006 88.6996C163.192 91.2382 162.321 94.3282 162.543 97.4385C162.764 100.549 164.064 103.485 166.219 105.742C168.374 107.999 171.25 109.437 174.352 109.807C177.453 110.177 180.587 109.457 183.215 107.771L195.903 120.436C196.439 120.969 197.164 121.269 197.921 121.269C198.678 121.269 199.403 120.969 199.938 120.434C200.473 119.9 200.774 119.176 200.774 118.421C200.774 117.666 200.474 116.941 199.939 116.407ZM182.741 103.27C181.169 104.839 179.101 105.816 176.888 106.033C174.675 106.251 172.455 105.696 170.607 104.463C168.758 103.23 167.395 101.395 166.749 99.2716C166.104 97.1479 166.216 94.8666 167.067 92.8163C167.918 90.766 169.455 89.0735 171.416 88.0274C173.376 86.9812 175.64 86.6461 177.821 87.079C180.001 87.512 181.964 88.6862 183.375 90.4017C184.785 92.1172 185.556 94.2678 185.556 96.487C185.558 97.7469 185.31 98.9947 184.827 100.159C184.344 101.323 183.635 102.38 182.741 103.27Z" fill="#3F3D56"/>
<path d="M291.914 135.087C324.362 170.905 230.3 222.523 154.295 222.523C78.2907 222.523 25.7075 182.528 16.6768 135.087C-5.21927 20.0596 203.237 -53.0514 154.295 47.6516C82.9571 194.438 266.36 106.88 291.914 135.087Z" fill="#E2E8F0"/>
<path d="M277.355 143.564C309.803 179.382 215.741 231 139.736 231C63.7317 231 11.1484 191.005 2.11777 143.564C-19.7784 28.5367 188.678 -44.5743 139.736 56.1287C68.398 202.915 251.801 115.357 277.355 143.564Z" fill="#25205C"/>
<path d="M45.8738 59.5884C23.1049 58.5877 5.451 53.6855 5.68292 48.4278C5.82197 45.2757 12.2658 42.741 23.362 41.4739C23.4017 41.4691 23.442 41.4722 23.4805 41.483C23.519 41.4938 23.555 41.512 23.5864 41.5368C23.6178 41.5615 23.644 41.5922 23.6634 41.6271C23.6829 41.662 23.6953 41.7004 23.6998 41.74C23.7044 41.7797 23.701 41.8199 23.6899 41.8582C23.6789 41.8966 23.6603 41.9324 23.6353 41.9636C23.6103 41.9948 23.5794 42.0207 23.5443 42.0399C23.5092 42.0591 23.4707 42.0712 23.4309 42.0754C12.9783 43.2692 6.40987 45.7135 6.28895 48.4545C6.07922 53.209 24.219 58.0306 45.9004 58.9835C67.5819 59.9363 86.076 56.7247 86.2858 51.9702C86.4072 49.2177 80.0385 46.1982 69.665 44.0902C69.6258 44.0823 69.5886 44.0669 69.5555 44.0447C69.5224 44.0225 69.494 43.9939 69.4719 43.9608C69.4498 43.9276 69.4345 43.8904 69.4269 43.8513C69.4193 43.8122 69.4194 43.7719 69.4274 43.7329C69.4353 43.6939 69.451 43.6568 69.4733 43.6238C69.4956 43.5908 69.5243 43.5625 69.5576 43.5406C69.5909 43.5186 69.6282 43.5035 69.6674 43.496C69.7066 43.4885 69.7469 43.4888 69.786 43.4968C80.7966 45.7343 87.0314 48.8324 86.8918 51.9968C86.6599 57.2545 68.6426 60.5891 45.8738 59.5884Z" fill="#6C63FF"/>
<path d="M25.6514 60.4688C27.5561 64.0804 30.3777 67.1294 33.8338 69.3108C37.2899 71.4922 41.2593 72.7294 45.3449 72.8987C49.4305 73.0679 53.489 72.1633 57.1143 70.2753C60.7396 68.3873 63.8046 65.5821 66.0027 62.1405C52.5317 62.3217 39.061 61.7636 25.6514 60.4688Z" fill="#6C63FF"/>
<path d="M68.5216 55.7721C69.6679 52.3401 69.9982 48.6889 69.4863 45.1075C68.9745 41.526 67.6345 38.1126 65.5725 35.1375C63.5104 32.1623 60.7829 29.7071 57.6058 27.966C54.4287 26.2249 50.8892 25.2458 47.2675 25.1062C43.6457 24.9666 40.0411 25.6703 36.739 27.1617C33.4368 28.653 30.5278 30.891 28.242 33.6986C25.9562 36.5062 24.3565 39.8062 23.5695 43.3376C22.7824 46.869 22.8296 50.5347 23.7074 54.0447C38.5078 56.5525 53.5715 57.1332 68.5216 55.7721Z" fill="#6C63FF"/>
<path d="M51.7093 40.1443C53.2169 40.1443 54.4391 38.9244 54.4391 37.4195C54.4391 35.9147 53.2169 34.6948 51.7093 34.6948C50.2017 34.6948 48.9795 35.9147 48.9795 37.4195C48.9795 38.9244 50.2017 40.1443 51.7093 40.1443Z" fill="white"/>
<path d="M37.66 50.7377C40.1727 50.7377 42.2097 48.7045 42.2097 46.1965C42.2097 43.6884 40.1727 41.6553 37.66 41.6553C35.1473 41.6553 33.1104 43.6884 33.1104 46.1965C33.1104 48.7045 35.1473 50.7377 37.66 50.7377Z" fill="white"/>
<path d="M106.327 46.2892C108.002 46.2892 109.36 44.9337 109.36 43.2618C109.36 41.5898 108.002 40.2344 106.327 40.2344C104.652 40.2344 103.294 41.5898 103.294 43.2618C103.294 44.9337 104.652 46.2892 106.327 46.2892Z" fill="#6C63FF"/>
<path d="M37.7784 138.93C38.7835 138.93 39.5983 138.117 39.5983 137.113C39.5983 136.11 38.7835 135.297 37.7784 135.297C36.7733 135.297 35.9585 136.11 35.9585 137.113C35.9585 138.117 36.7733 138.93 37.7784 138.93Z" fill="#E6E6E6"/>
<path d="M165.169 201.296C166.175 201.296 166.989 200.483 166.989 199.48C166.989 198.476 166.175 197.663 165.169 197.663C164.164 197.663 163.35 198.476 163.35 199.48C163.35 200.483 164.164 201.296 165.169 201.296Z" fill="#E6E6E6"/>
<path d="M46.5745 103.812C47.0771 103.812 47.4845 103.405 47.4845 102.903C47.4845 102.402 47.0771 101.995 46.5745 101.995C46.0719 101.995 45.6646 102.402 45.6646 102.903C45.6646 103.405 46.0719 103.812 46.5745 103.812Z" fill="#E6E6E6"/>
<path d="M121.796 171.626C122.298 171.626 122.706 171.219 122.706 170.718C122.706 170.216 122.298 169.81 121.796 169.81C121.293 169.81 120.886 170.216 120.886 170.718C120.886 171.219 121.293 171.626 121.796 171.626Z" fill="#E6E6E6"/>
<path d="M258.59 162.847C259.092 162.847 259.5 162.44 259.5 161.939C259.5 161.437 259.092 161.03 258.59 161.03C258.087 161.03 257.68 161.437 257.68 161.939C257.68 162.44 258.087 162.847 258.59 162.847Z" fill="#E6E6E6"/>
<path d="M215.823 189.791C216.325 189.791 216.733 189.384 216.733 188.883C216.733 188.381 216.325 187.975 215.823 187.975C215.32 187.975 214.913 188.381 214.913 188.883C214.913 189.384 215.32 189.791 215.823 189.791Z" fill="#E6E6E6"/>
<path d="M171.236 157.095C171.738 157.095 172.146 156.688 172.146 156.187C172.146 155.685 171.738 155.278 171.236 155.278C170.733 155.278 170.326 155.685 170.326 156.187C170.326 156.688 170.733 157.095 171.236 157.095Z" fill="#E6E6E6"/>
<path d="M113.606 67.4816C114.109 67.4816 114.516 67.0749 114.516 66.5733C114.516 66.0717 114.109 65.665 113.606 65.665C113.104 65.665 112.696 66.0717 112.696 66.5733C112.696 67.0749 113.104 67.4816 113.606 67.4816Z" fill="#E6E6E6"/>
<path d="M120.886 22.6754C121.389 22.6754 121.796 22.2688 121.796 21.7671C121.796 21.2655 121.389 20.8589 120.886 20.8589C120.383 20.8589 119.976 21.2655 119.976 21.7671C119.976 22.2688 120.383 22.6754 120.886 22.6754Z" fill="#E6E6E6"/>
<path d="M116.639 211.286C117.142 211.286 117.549 210.88 117.549 210.378C117.549 209.876 117.142 209.47 116.639 209.47C116.137 209.47 115.729 209.876 115.729 210.378C115.729 210.88 116.137 211.286 116.639 211.286Z" fill="#E6E6E6"/>
<path d="M71.7493 192.213C72.2519 192.213 72.6593 191.806 72.6593 191.305C72.6593 190.803 72.2519 190.396 71.7493 190.396C71.2468 190.396 70.8394 190.803 70.8394 191.305C70.8394 191.806 71.2468 192.213 71.7493 192.213Z" fill="#E6E6E6"/>
<path d="M214.003 159.517C214.505 159.517 214.913 159.11 214.913 158.608C214.913 158.107 214.505 157.7 214.003 157.7C213.5 157.7 213.093 158.107 213.093 158.608C213.093 159.11 213.5 159.517 214.003 159.517Z" fill="#E6E6E6"/>
<path d="M45.5037 70.7815C47.0114 70.7815 48.2335 69.5616 48.2335 68.0568C48.2335 66.5519 47.0114 65.332 45.5037 65.332C43.9961 65.332 42.7739 66.5519 42.7739 68.0568C42.7739 69.5616 43.9961 70.7815 45.5037 70.7815Z" fill="white"/>
<path d="M107.237 109.866C107.237 118.004 94.6313 136.967 90.9475 142.335C90.8363 142.497 90.6872 142.63 90.513 142.721C90.3389 142.813 90.1449 142.861 89.948 142.861C89.751 142.861 89.5571 142.813 89.3829 142.721C89.2087 142.63 89.0596 142.497 88.9484 142.335C85.2646 136.967 72.6592 118.004 72.6592 109.866C72.6592 107.6 73.1064 105.356 73.9752 103.262C74.8441 101.168 76.1175 99.2661 77.7229 97.6637C79.3284 96.0613 81.2343 94.7902 83.3318 93.923C85.4294 93.0557 87.6776 92.6094 89.948 92.6094C92.2183 92.6094 94.4665 93.0557 96.5641 93.923C98.6616 94.7902 100.568 96.0613 102.173 97.6637C103.778 99.2661 105.052 101.168 105.921 103.262C106.79 105.356 107.237 107.6 107.237 109.866Z" fill="white"/>
<path d="M89.9479 117.435C94.8058 117.435 98.7439 113.504 98.7439 108.656C98.7439 103.807 94.8058 99.876 89.9479 99.876C85.09 99.876 81.1519 103.807 81.1519 108.656C81.1519 113.504 85.09 117.435 89.9479 117.435Z" fill="#6C63FF"/>
<path d="M89.7967 152.251C95.4084 152.251 99.9576 151.37 99.9576 150.283C99.9576 149.196 95.4084 148.315 89.7967 148.315C84.185 148.315 79.6357 149.196 79.6357 150.283C79.6357 151.37 84.185 152.251 89.7967 152.251Z" fill="white"/>
<path d="M248.261 96.249C248.184 96.3979 248.119 96.5526 248.067 96.7117L233.574 100.731L230.962 98.1801L226.589 101.611L230.773 106.576C231.111 106.977 231.571 107.258 232.082 107.376C232.594 107.495 233.13 107.444 233.61 107.233L249.266 100.335C249.797 100.703 250.428 100.9 251.074 100.902C251.721 100.903 252.353 100.708 252.885 100.342C253.418 99.9768 253.827 99.4579 254.057 98.8549C254.287 98.2518 254.328 97.593 254.174 96.9663C254.019 96.3395 253.678 95.7745 253.194 95.3463C252.71 94.9181 252.107 94.647 251.466 94.5691C250.824 94.4913 250.173 94.6103 249.601 94.9103C249.029 95.2104 248.561 95.6773 248.261 96.249Z" fill="#FFB8B8"/>
<path d="M233.063 100.967L227.623 105.193C227.468 105.313 227.29 105.399 227.099 105.444C226.908 105.489 226.709 105.492 226.517 105.454C226.325 105.415 226.143 105.336 225.984 105.221C225.825 105.106 225.693 104.958 225.597 104.788L222.216 98.8156C221.604 98.0217 221.332 97.0179 221.46 96.0243C221.589 95.0308 222.107 94.1286 222.9 93.5156C223.694 92.9027 224.699 92.6289 225.695 92.7544C226.691 92.88 227.596 93.3945 228.212 94.1853L233.168 98.9063C233.309 99.0415 233.42 99.2056 233.493 99.3875C233.565 99.5694 233.598 99.7647 233.588 99.9603C233.578 100.156 233.526 100.347 233.436 100.521C233.345 100.694 233.218 100.846 233.063 100.967Z" fill="#6C63FF"/>
<path d="M249.651 94.2499L255.168 96.7273C255.399 96.831 255.579 97.0221 255.669 97.2585C255.759 97.4949 255.751 97.7573 255.647 97.9879L254.994 99.4369C255.07 99.4717 255.13 99.5354 255.16 99.6142C255.19 99.6929 255.188 99.7802 255.153 99.8571L254.892 100.437C254.857 100.513 254.793 100.573 254.714 100.603C254.636 100.633 254.548 100.63 254.471 100.596L254.21 101.176C254.287 101.211 254.347 101.274 254.376 101.353C254.406 101.432 254.404 101.519 254.369 101.596L254.108 102.176C254.073 102.252 254.01 102.312 253.931 102.342C253.852 102.372 253.764 102.369 253.687 102.335L250.16 110.16C250.056 110.39 249.865 110.57 249.628 110.66C249.391 110.75 249.128 110.742 248.897 110.638L243.381 108.161C243.15 108.057 242.969 107.866 242.879 107.63C242.79 107.393 242.798 107.131 242.901 106.9L248.388 94.7282C248.492 94.4976 248.683 94.3177 248.92 94.228C249.157 94.1383 249.42 94.1462 249.651 94.2499Z" fill="#3F3D56"/>
<path d="M244.382 107.39L248.808 109.38C249.03 109.479 249.282 109.486 249.509 109.4C249.736 109.315 249.92 109.143 250.021 108.922L252.065 104.384L252.775 102.811L254.625 98.7052C254.724 98.4843 254.731 98.2333 254.645 98.007C254.559 97.7808 254.387 97.5976 254.166 97.4976L252.775 96.8715L249.737 95.5082C249.516 95.4094 249.264 95.4024 249.037 95.4888C248.81 95.5752 248.627 95.7479 248.528 95.969L246.738 99.9382L244.701 104.457L243.924 106.183C243.825 106.404 243.817 106.655 243.903 106.881C243.989 107.107 244.161 107.291 244.382 107.39Z" fill="#F2F2F2"/>
<path d="M235.135 163.617L238.853 163.617L240.623 149.301L235.134 149.301L235.135 163.617Z" fill="#FFB8B8"/>
<path d="M234.187 162.406L241.51 162.405C242.122 162.405 242.73 162.526 243.296 162.76C243.862 162.994 244.377 163.337 244.81 163.77C245.243 164.202 245.587 164.716 245.822 165.281C246.056 165.846 246.177 166.452 246.177 167.063V167.215L234.187 167.215L234.187 162.406Z" fill="#2F2E41"/>
<path d="M244.841 162.709L248.56 162.709L250.329 148.393L244.84 148.393L244.841 162.709Z" fill="#FFB8B8"/>
<path d="M243.893 161.497L251.216 161.497C251.829 161.497 252.436 161.618 253.002 161.852C253.568 162.086 254.083 162.429 254.516 162.861C254.949 163.294 255.293 163.807 255.528 164.373C255.762 164.938 255.883 165.543 255.883 166.155V166.307L243.893 166.307L243.893 161.497Z" fill="#2F2E41"/>
<path d="M218.455 130.023C219.248 132.367 220.75 134.408 222.756 135.862C224.761 137.316 227.169 138.112 229.648 138.14L229.836 138.143C231.756 138.197 234.009 137.58 236.22 136.693C240.588 134.94 244.783 132.133 245.896 131.361L244.009 149.462L243.245 156.801C243.226 156.991 243.247 157.183 243.306 157.364C243.365 157.545 243.462 157.712 243.59 157.854C243.718 157.996 243.875 158.109 244.049 158.187C244.224 158.265 244.413 158.305 244.604 158.306H249.314C249.616 158.306 249.91 158.206 250.149 158.022C250.388 157.838 250.56 157.58 250.637 157.288L258.414 127.725C258.647 126.84 258.666 125.913 258.468 125.019C258.271 124.126 257.864 123.292 257.279 122.587C256.695 121.882 255.951 121.326 255.109 120.965C254.266 120.604 253.35 120.448 252.435 120.511L236.281 121.616L237.409 117.111L222.99 116.154L222.947 116.185C222.602 116.436 222.265 116.699 221.944 116.975C221.14 117.653 220.427 118.433 219.823 119.294C218.743 120.839 218.055 122.622 217.817 124.49C217.578 126.359 217.798 128.258 218.455 130.023Z" fill="#2F2E41"/>
<path d="M218.455 130.023C219.248 132.367 220.75 134.408 222.756 135.862C224.761 137.316 227.169 138.112 229.648 138.14C232.018 136.943 234.305 135.588 236.493 134.086L236.22 136.693L233.842 159.526C233.823 159.716 233.844 159.908 233.903 160.089C233.963 160.27 234.06 160.437 234.188 160.579C234.316 160.721 234.472 160.834 234.647 160.912C234.821 160.99 235.01 161.03 235.201 161.031H239.912C240.214 161.031 240.507 160.931 240.747 160.747C240.986 160.563 241.157 160.305 241.234 160.013L244.009 149.463L249.011 130.45C249.244 129.565 249.263 128.638 249.066 127.744C248.868 126.851 248.461 126.017 247.877 125.312C247.292 124.607 246.548 124.051 245.706 123.69C244.864 123.329 243.947 123.173 243.033 123.236L226.878 124.341L228.007 119.836L219.823 119.294C218.743 120.839 218.055 122.622 217.817 124.491C217.578 126.359 217.798 128.258 218.455 130.023Z" fill="#2F2E41"/>
<path d="M221.923 118.019L221.814 118.006L219.298 105.658C219.277 105.551 217.22 94.9007 223.526 89.3329L223.635 88.5708C223.663 88.3758 223.734 88.1892 223.841 88.0238C223.948 87.8585 224.09 87.7184 224.257 87.6131C224.424 87.5078 224.612 87.4399 224.807 87.4141C225.003 87.3883 225.202 87.4051 225.391 87.4635L231.331 89.3026C231.667 89.4059 231.95 89.6352 232.121 89.9423C232.292 90.2494 232.337 90.6106 232.247 90.9501L231.669 93.1425C232.47 94.081 241.895 105.407 238.612 114.134L237.142 119.871L221.923 118.019Z" fill="#6C63FF"/>
<path d="M246.588 108.383C246.446 108.472 246.312 108.572 246.185 108.682L231.657 104.79L230.708 101.268L225.195 102.004L226.269 108.402C226.356 108.919 226.608 109.394 226.989 109.755C227.369 110.117 227.856 110.345 228.378 110.407L245.373 112.411C245.643 112.997 246.085 113.488 246.641 113.817C247.197 114.146 247.841 114.299 248.486 114.254C249.131 114.21 249.747 113.97 250.252 113.568C250.757 113.165 251.128 112.618 251.314 112C251.501 111.382 251.494 110.722 251.296 110.108C251.098 109.494 250.716 108.955 250.203 108.562C249.69 108.169 249.07 107.942 248.424 107.91C247.778 107.878 247.138 108.043 246.588 108.383Z" fill="#FFB8B8"/>
<path d="M231.097 104.733L224.26 105.612C224.066 105.637 223.868 105.62 223.681 105.562C223.494 105.504 223.321 105.406 223.175 105.275C223.029 105.145 222.913 104.984 222.835 104.805C222.756 104.625 222.718 104.431 222.721 104.235L222.852 97.3767C222.729 96.3825 223.007 95.3803 223.623 94.59C224.24 93.7996 225.145 93.2855 226.141 93.1605C227.137 93.0354 228.141 93.3096 228.935 93.9228C229.728 94.5361 230.246 95.4384 230.374 96.4319L232.237 103.012C232.29 103.2 232.302 103.398 232.272 103.591C232.242 103.785 232.17 103.97 232.062 104.133C231.954 104.296 231.812 104.434 231.645 104.538C231.479 104.642 231.292 104.708 231.097 104.733Z" fill="#6C63FF"/>
<path d="M229.173 85.7876C233.287 85.7876 236.622 82.4584 236.622 78.3518C236.622 74.2451 233.287 70.916 229.173 70.916C225.058 70.916 221.723 74.2451 221.723 78.3518C221.723 82.4584 225.058 85.7876 229.173 85.7876Z" fill="#FFB8B8"/>
<path d="M228.781 78.9728L227.848 77.2775C226.082 84.4623 229.202 90.4086 229.202 90.4086L217.09 84.7772L217.206 82.7791L216.007 84.1366L214.285 83.1894L214.058 81.8934L212.758 82.2148L217.503 73.6206C222.108 65.4425 228.803 68.5648 228.803 68.5648C239.454 68.0594 238.153 78.548 238.153 78.548L228.781 78.9728Z" fill="#2F2E41"/>
<path d="M143.979 134.385C145.696 133.286 143.608 126.975 139.313 120.289C135.019 113.602 130.145 109.073 128.428 110.172C126.71 111.271 128.799 117.582 133.093 124.269C137.388 130.955 142.261 135.484 143.979 134.385Z" fill="#3F3D56"/>
</g>
<defs>
<clipPath id="clip0_2591_16578">
<rect width="298" height="231" fill="white" transform="translate(0.5)"/>
</clipPath>
</defs>
</svg>
