<svg width="229" height="174" viewBox="0 0 229 174" fill="none" xmlns="http://www.w3.org/2000/svg">
<g id="undraw_order_confirmed_re_g0if (3) 1" clip-path="url(#clip0_577_13436)">
<path id="Vector" d="M91.5135 36.0836H90.6792V13.2281C90.6792 11.491 90.3371 9.77086 89.6723 8.16595C89.0075 6.56104 88.0331 5.10278 86.8048 3.87444C85.5764 2.64609 84.1182 1.67171 82.5133 1.00694C80.9084 0.342159 79.1882 1.47184e-06 77.4511 0H29.0287C25.5204 -6.68805e-06 22.1557 1.39366 19.675 3.87441C17.1942 6.35515 15.8005 9.71978 15.8005 13.2281V138.615C15.8005 140.352 16.1427 142.072 16.8075 143.677C17.4722 145.282 18.4466 146.74 19.675 147.969C20.9033 149.197 22.3616 150.171 23.9665 150.836C25.5714 151.501 27.2915 151.843 29.0286 151.843H77.451C80.9593 151.843 84.324 150.449 86.8047 147.969C89.2855 145.488 90.6792 142.123 90.6792 138.615V52.3525H91.5135V36.0836Z" fill="#3F3D56"/>
<path id="Vector_2" d="M77.9849 3.44153H71.6642C71.9548 4.15417 72.0658 4.92735 71.9873 5.69298C71.9087 6.4586 71.6431 7.19316 71.2138 7.83195C70.7845 8.47073 70.2047 8.99414 69.5255 9.35607C68.8463 9.71799 68.0885 9.90732 67.3188 9.90738H39.5782C38.8086 9.90732 38.0508 9.71799 37.3716 9.35607C36.6923 8.99415 36.1125 8.47074 35.6832 7.83195C35.2539 7.19316 34.9883 6.4586 34.9098 5.69298C34.8312 4.92736 34.9422 4.15417 35.2329 3.44153H29.3293C28.032 3.44153 26.7475 3.69705 25.5489 4.19349C24.3504 4.68994 23.2614 5.41759 22.3441 6.3349C21.4268 7.25222 20.6991 8.34123 20.2027 9.53975C19.7062 10.7383 19.4507 12.0229 19.4507 13.3201V138.523C19.4507 139.82 19.7062 141.105 20.2027 142.303C20.6991 143.502 21.4267 144.591 22.3441 145.508C23.2614 146.426 24.3504 147.153 25.5489 147.65C26.7474 148.146 28.032 148.402 29.3293 148.402H77.9849C79.2822 148.402 80.5668 148.146 81.7653 147.65C82.9638 147.153 84.0528 146.426 84.9701 145.508C85.8875 144.591 86.6151 143.502 87.1116 142.303C87.608 141.105 87.8635 139.82 87.8635 138.523V13.3201C87.8635 12.0229 87.608 10.7383 87.1116 9.53975C86.6151 8.34123 85.8875 7.25222 84.9701 6.3349C84.0528 5.41759 82.9638 4.68994 81.7653 4.19349C80.5668 3.69705 79.2822 3.44153 77.9849 3.44153Z" fill="white"/>
<path id="Vector_3" d="M107.034 151.865H0.280193C0.205881 151.865 0.134613 151.835 0.0820665 151.783C0.0295201 151.73 0 151.659 0 151.585C0 151.51 0.0295201 151.439 0.0820665 151.386C0.134613 151.334 0.205881 151.304 0.280193 151.304H107.034C107.108 151.304 107.179 151.334 107.232 151.386C107.284 151.439 107.314 151.51 107.314 151.585C107.314 151.659 107.284 151.73 107.232 151.783C107.179 151.835 107.108 151.865 107.034 151.865Z" fill="#CBCBCB"/>
<path id="Ellipse 44" d="M53.6571 96.8572C66.7249 96.8572 77.3184 86.2637 77.3184 73.1959C77.3184 60.1282 66.7249 49.5347 53.6571 49.5347C40.5894 49.5347 29.9958 60.1282 29.9958 73.1959C29.9958 86.2637 40.5894 96.8572 53.6571 96.8572Z" fill="#00BFA6"/>
<path id="Path 395" d="M51.3124 82.222C50.7801 82.2229 50.2619 82.0506 49.836 81.7313L49.8096 81.7115L44.2489 77.4577C43.9914 77.2603 43.7752 77.0141 43.6128 76.7331C43.4505 76.4521 43.345 76.1419 43.3025 75.8202C43.26 75.4985 43.2813 75.1715 43.3652 74.858C43.449 74.5446 43.5938 74.2506 43.7913 73.9931C43.9887 73.7356 44.2349 73.5194 44.5159 73.3571C44.7969 73.1947 45.1071 73.0892 45.4288 73.0467C45.7505 73.0042 46.0774 73.0255 46.3909 73.1094C46.7044 73.1932 46.9983 73.338 47.2559 73.5355L50.8577 76.2975L59.3689 65.1937C59.5662 64.9363 59.8124 64.7202 60.0932 64.5579C60.3741 64.3956 60.6841 64.2902 61.0057 64.2477C61.3273 64.2052 61.6541 64.2265 61.9675 64.3103C62.2808 64.3942 62.5746 64.5389 62.8321 64.7362L62.8328 64.7368L62.7799 64.8101L62.8342 64.7368C63.3536 65.1359 63.6934 65.7248 63.779 66.3742C63.8647 67.0236 63.6892 67.6805 63.2911 68.2007L53.2801 81.2554C53.0485 81.5561 52.7507 81.7995 52.4098 81.9667C52.069 82.1338 51.6942 82.2202 51.3145 82.219L51.3124 82.222Z" fill="white"/>
<path id="Vector_4" d="M194.523 154.19C194.81 153.725 195.149 153.293 195.533 152.903C195.691 152.739 195.858 152.584 196.03 152.434C197.076 151.503 198.352 150.867 199.725 150.592C201.098 150.317 202.52 150.413 203.844 150.87C205.168 151.326 206.346 152.128 207.258 153.191C208.17 154.254 208.782 155.541 209.032 156.919C210.187 152.645 207.179 148.436 204.155 145.202C201.129 141.97 197.67 138.424 197.687 133.995C197.696 131.531 198.901 129.332 200.722 127.702C200.778 127.653 200.834 127.603 200.891 127.556C203.091 125.67 205.922 124.683 208.817 124.793C214.197 125.082 218.894 128.697 222.156 132.986C227.406 139.886 229.707 149.572 226.031 157.427C222.798 164.336 215.903 168.438 208.865 171.736C207.883 172.197 206.902 172.644 205.923 173.077C205.917 173.078 205.91 173.083 205.903 173.085C205.856 173.105 205.809 173.126 205.765 173.147C205.563 173.236 205.361 173.326 205.16 173.414L205.253 173.474L205.542 173.662C205.442 173.601 205.343 173.542 205.243 173.481C205.213 173.463 205.181 173.446 205.151 173.427C201.695 171.353 198.19 169.159 195.803 165.921C193.326 162.56 192.33 157.744 194.523 154.19Z" fill="#83B23E"/>
<path id="Vector_5" d="M217.583 146.383C218.349 148.124 218.856 149.968 219.09 151.855C219.273 153.538 219.204 155.24 218.885 156.902C218.199 160.319 216.702 163.521 214.52 166.239C212.874 168.302 210.974 170.149 208.865 171.736C207.883 172.197 206.902 172.644 205.923 173.077C205.917 173.078 205.91 173.083 205.903 173.085C205.856 173.105 205.809 173.126 205.765 173.147C205.563 173.236 205.361 173.326 205.161 173.414L205.253 173.474L205.543 173.662C205.442 173.601 205.343 173.542 205.243 173.481C205.213 173.463 205.181 173.446 205.152 173.427C205.912 170.766 206.024 167.962 205.478 165.249C204.931 162.536 203.743 159.994 202.011 157.835C200.271 155.704 198.051 154.014 195.533 152.903C195.691 152.739 195.858 152.584 196.03 152.434C197 152.879 197.929 153.409 198.805 154.018C201.94 156.185 204.294 159.303 205.518 162.912C206.611 166.185 206.748 169.703 205.912 173.051C206.085 172.938 206.259 172.821 206.429 172.706C209.649 170.534 212.616 167.926 214.852 164.728C216.78 162.026 218.013 158.89 218.444 155.598C218.873 152.002 217.973 148.466 216.367 145.258C214.595 141.825 212.361 138.651 209.728 135.824C207.083 132.918 204.093 130.347 200.824 128.168C200.751 128.118 200.699 128.042 200.68 127.956C200.661 127.869 200.676 127.778 200.722 127.702C200.757 127.633 200.818 127.58 200.891 127.556C200.929 127.546 200.968 127.545 201.006 127.553C201.043 127.56 201.079 127.577 201.11 127.6C201.513 127.869 201.914 128.141 202.309 128.421C205.601 130.752 208.59 133.483 211.209 136.551C213.74 139.508 216.042 142.794 217.583 146.383Z" fill="white"/>
<path id="Ellipse 44_2" d="M147.113 10.9865C149.888 10.9865 152.138 8.73676 152.138 5.96153C152.138 3.18629 149.888 0.936523 147.113 0.936523C144.338 0.936523 142.088 3.18629 142.088 5.96153C142.088 8.73676 144.338 10.9865 147.113 10.9865Z" fill="#F1F1F1"/>
<path id="Ellipse 44_3" d="M209.596 78.2329C211.288 78.2329 212.66 76.8612 212.66 75.1692C212.66 73.4772 211.288 72.1056 209.596 72.1056C207.904 72.1056 206.532 73.4772 206.532 75.1692C206.532 76.8612 207.904 78.2329 209.596 78.2329Z" fill="#F1F1F1"/>
<path id="Ellipse 44_4" d="M119.934 86.6386C121.627 86.6386 122.998 85.267 122.998 83.575C122.998 81.883 121.627 80.5114 119.934 80.5114C118.242 80.5114 116.871 81.883 116.871 83.575C116.871 85.267 118.242 86.6386 119.934 86.6386Z" fill="#F1F1F1"/>
<path id="Vector_6" d="M121.664 174H228.418C228.492 174 228.563 173.97 228.616 173.918C228.669 173.865 228.698 173.794 228.698 173.72C228.698 173.645 228.669 173.574 228.616 173.522C228.563 173.469 228.492 173.44 228.418 173.44H121.664C121.59 173.44 121.519 173.469 121.466 173.522C121.414 173.574 121.384 173.645 121.384 173.72C121.384 173.794 121.414 173.865 121.466 173.918C121.519 173.97 121.59 174 121.664 174Z" fill="#CBCBCB"/>
<path id="Vector_7" d="M216.637 27.0764C216.777 26.0812 216.547 25.0692 215.991 24.232C215.435 23.3949 214.591 22.7909 213.619 22.5344C212.647 22.2779 211.615 22.3868 210.718 22.8404C209.822 23.294 209.122 24.0609 208.753 24.9957L200.09 34.9269L202.632 42.0261L211.344 30.4218C211.913 30.6039 212.514 30.6592 213.106 30.5837C213.699 30.5082 214.267 30.3037 214.772 29.9848C215.276 29.6658 215.705 29.2401 216.027 28.7376C216.349 28.2351 216.557 27.6681 216.637 27.0764Z" fill="#FFB7B7"/>
<path id="Vector_8" d="M180.728 65.8558L209.484 35.1665L205.605 29L169.538 59.503L180.728 65.8558Z" fill="#3182CE"/>
<path id="Vector_9" d="M174.31 47.0725C179.881 47.0725 184.397 42.5564 184.397 36.9855C184.397 31.4146 179.881 26.8986 174.31 26.8986C168.739 26.8986 164.223 31.4146 164.223 36.9855C164.223 42.5564 168.739 47.0725 174.31 47.0725Z" fill="#2F2E41"/>
<path id="Vector_10" d="M175.121 31.2873C177.292 29.0862 179.918 27.3877 182.816 26.3113C184.676 25.6222 186.701 25.1964 188.645 25.5878C190.59 25.9791 192.429 27.3244 192.972 29.2325C193.415 30.7927 192.957 32.4725 192.269 33.9412C191.58 35.41 190.661 36.7719 190.104 38.2954C189.536 39.8499 189.366 41.5217 189.607 43.159C189.849 44.7963 190.496 46.3473 191.49 47.6711C192.483 48.9949 193.791 50.0497 195.296 50.7396C196.8 51.4296 198.453 51.7329 200.104 51.6221C198.194 51.8783 196.432 52.7762 194.565 53.2541C192.697 53.7321 190.493 53.6997 189.105 52.3616C187.636 50.946 187.607 48.6443 187.678 46.6058C187.783 43.5755 187.889 40.5452 187.995 37.5149C188.048 35.9695 188.094 34.3746 187.537 32.9322C186.98 31.4898 185.655 30.2268 184.109 30.2399C182.937 30.2498 181.9 30.9598 180.96 31.6599C180.02 32.3601 179.025 33.107 177.858 33.2112C176.691 33.3153 175.358 32.4514 175.445 31.2828L175.121 31.2873Z" fill="#2F2E41"/>
<path id="Vector_11" d="M135.999 104.715C135.031 104.984 133.998 104.888 133.095 104.446C132.192 104.004 131.483 103.246 131.102 102.316C130.721 101.386 130.694 100.349 131.026 99.4005C131.359 98.4521 132.028 97.6586 132.906 97.1704L141.621 87.2842L148.991 88.8765L138.625 99.0302C138.879 99.57 139.013 100.159 139.015 100.756C139.018 101.353 138.889 101.943 138.639 102.485C138.389 103.027 138.023 103.508 137.567 103.893C137.111 104.278 136.576 104.559 135.999 104.715Z" fill="#FFB7B7"/>
<path id="Vector_12" d="M164.669 69.4579L142.95 96.7207L136.329 93.6811L161.858 53.9371L164.669 69.4579Z" fill="#3182CE"/>
<path id="Vector_13" d="M147.339 151.644L142.163 151.562L142.785 169.205H147.338L147.339 151.644Z" fill="#FFB7B7"/>
<path id="Vector_14" d="M148.5 167.719L139.533 167.718H139.533C138.017 167.718 136.564 168.32 135.492 169.392C134.421 170.464 133.819 171.917 133.819 173.432V173.618L148.499 173.619L148.5 167.719Z" fill="#2F2E41"/>
<path id="Vector_15" d="M181.611 146.964L175.957 150.595L187.268 164.202L191.099 161.742L181.611 146.964Z" fill="#FFB7B7"/>
<path id="Vector_16" d="M191.273 159.864L183.728 164.708L183.728 164.708C182.452 165.527 181.555 166.819 181.232 168.3C180.909 169.78 181.188 171.329 182.006 172.604L182.107 172.76L194.461 164.829L191.273 159.864Z" fill="#2F2E41"/>
<path id="Vector_17" d="M183.626 93.0914C183.626 93.0914 171.062 51.3629 167.025 50.799C162.987 50.2351 156.481 61.5061 156.481 61.5061C148.047 72.2678 139.349 107.127 139.349 107.127C139.349 107.127 153.848 108.035 164.447 113.674C175.046 119.313 187.554 113.388 187.554 113.388L183.626 93.0914Z" fill="#1364B0"/>
<path id="Vector_18" opacity="0.1" d="M183.626 93.2283C183.626 93.2283 171.062 51.4998 167.024 50.9359C162.987 50.372 158.134 61.7573 158.134 61.7573C153.931 79.1293 139.349 107.264 139.349 107.264C139.349 107.264 153.848 108.172 164.447 113.811C175.046 119.45 187.554 113.525 187.554 113.525L183.626 93.2283Z" fill="#3EA2AB"/>
<path id="Vector_19" d="M173.318 80.6066V101.575L175.786 131.949L188.115 154.925L182.23 159.128L165.419 137.273L158.77 115.572L148.327 163.611L140.482 163.05L145.93 96.4454L156.27 77.6976L173.318 80.6066Z" fill="#535353"/>
<path id="Vector_20" d="M160.651 60.3255C156.728 64.2482 160.371 68.4511 160.371 68.4511L155.888 78.5381L173.54 83.3014L179.709 55.7364L175.506 51.2533C167.1 50.9732 167.095 50.799 167.095 50.799C165.623 52.2402 160.651 60.3255 160.651 60.3255Z" fill="#535353"/>
<path id="Vector_21" d="M180.419 53.0175C179.618 52.4257 178.706 51.9989 177.739 51.7617C176.771 51.5246 175.765 51.4818 174.781 51.6359C173.796 51.79 172.852 52.1379 172.003 52.6595C171.154 53.181 170.417 53.8659 169.834 54.6743C165.397 60.8532 161.293 70.8306 166.947 83.2742C176.025 103.255 183.925 113.483 187.136 113.482C187.277 113.483 187.416 113.461 187.549 113.417C189.526 112.746 192.384 109.401 192.902 106.454C193.087 105.399 193.043 103.929 191.781 102.92C188.157 100.021 181.65 90.9943 179.62 79.1134C178.498 72.5486 180.674 66.5686 182.696 62.7082C183.55 61.1108 183.8 59.2591 183.4 57.4925C183 55.7258 181.976 54.1626 180.517 53.0894L180.419 53.0175Z" fill="#3182CE"/>
<path id="Vector_22" d="M174.829 46.0815C178.428 44.1145 179.75 39.603 177.783 36.0047C175.816 32.4064 171.304 31.084 167.706 33.051C164.108 35.018 162.785 39.5295 164.752 43.1278C166.719 46.7261 171.231 48.0485 174.829 46.0815Z" fill="#FFB7B7"/>
<path id="Vector_23" d="M160.825 39.0049H171.547L171.657 37.4656L172.207 39.0049H173.858L174.075 35.954L175.165 39.0049H178.359V38.8537C178.357 36.7297 177.512 34.6934 176.01 33.1915C174.508 31.6896 172.472 30.8448 170.348 30.8424H168.837C166.713 30.8448 164.676 31.6896 163.174 33.1915C161.672 34.6934 160.828 36.7297 160.825 38.8537V39.0049Z" fill="#2F2E41"/>
<path id="Vector_24" d="M176.74 44.5379L181.315 43.0533V31.942H172.673L172.887 32.1556C175.864 35.1288 179.175 45.6769 176.74 44.5379Z" fill="#2F2E41"/>
</g>
<defs>
<clipPath id="clip0_577_13436">
<rect width="228.698" height="174" fill="white"/>
</clipPath>
</defs>
</svg>
