<svg width="194" height="174" viewBox="0 0 194 174" fill="none" xmlns="http://www.w3.org/2000/svg">
<g id="undraw_pending_approval_xuu9 (1) 1" clip-path="url(#clip0_1746_16859)">
<path id="Vector" d="M99.0061 101.402L56.8138 102.144C56.1478 102.157 55.4858 102.038 54.8656 101.795C54.2454 101.552 53.6792 101.189 53.1995 100.727C52.7198 100.265 52.3359 99.7129 52.0699 99.1022C51.8039 98.4916 51.6609 97.8344 51.6492 97.1684C51.6375 96.5024 51.7573 95.8406 52.0017 95.2209C52.246 94.6013 52.6102 94.0359 53.0734 93.5572C53.5366 93.0785 54.0897 92.6958 54.7009 92.4311C55.3122 92.1664 55.9697 92.0249 56.6357 92.0146L98.8281 91.2728C99.4571 91.2618 100.065 91.5011 100.517 91.9381C100.97 92.375 101.23 92.9739 101.241 93.6029L101.336 98.9884C101.347 99.5899 101.128 100.173 100.725 100.62C100.322 101.066 99.7641 101.343 99.1646 101.394C99.1121 101.398 99.0593 101.401 99.0061 101.402Z" fill="#6C63FF"/>
<path id="Vector_2" d="M90.8603 102.778L56.2451 104.358C55.9339 104.372 55.6229 104.325 55.33 104.219C55.0371 104.113 54.7679 103.951 54.5378 103.741C54.3077 103.531 54.1212 103.277 53.989 102.995C53.8568 102.713 53.7814 102.408 53.7672 102.097L53.4009 94.0718C53.3722 93.4433 53.5944 92.8292 54.0185 92.3645C54.4426 91.8998 55.0339 91.6226 55.6623 91.5939L90.2776 90.0137C90.5888 89.9995 90.8997 90.0467 91.1927 90.1526C91.4856 90.2585 91.7548 90.4211 91.9849 90.6311C92.215 90.8411 92.4015 91.0944 92.5337 91.3764C92.6659 91.6585 92.7413 91.9638 92.7555 92.275L93.1218 100.3C93.149 100.913 92.9382 101.512 92.5333 101.973C92.1284 102.434 91.561 102.72 90.9498 102.772C90.9202 102.775 90.8903 102.777 90.8603 102.778Z" fill="#2F2E41"/>
<path id="Vector_3" d="M32.3203 171.628V126.736C32.321 126.107 32.5712 125.504 33.0159 125.06C33.4606 124.615 34.0635 124.365 34.6924 124.364H40.0787C40.7076 124.365 41.3105 124.615 41.7552 125.06C42.1999 125.504 42.4501 126.107 42.4508 126.736V171.628C42.4501 172.257 42.1999 172.86 41.7552 173.305C41.3105 173.749 40.7076 173.999 40.0787 174H34.6924C34.0635 173.999 33.4606 173.749 33.0159 173.305C32.5712 172.86 32.321 172.257 32.3203 171.628Z" fill="#6C63FF"/>
<path id="Vector_4" d="M46.4531 171.628V126.736C46.4538 126.107 46.704 125.504 47.1487 125.06C47.5934 124.615 48.1963 124.365 48.8252 124.364H54.2115C54.8404 124.365 55.4433 124.615 55.888 125.06C56.3327 125.504 56.5829 126.107 56.5836 126.736V171.628C56.5829 172.257 56.3327 172.86 55.888 173.305C55.4433 173.749 54.8404 173.999 54.2115 174H48.8252C48.1963 173.999 47.5934 173.749 47.1487 173.305C46.704 172.86 46.4538 172.257 46.4531 171.628Z" fill="#6C63FF"/>
<path id="Vector_5" d="M47.8616 77.5142C58.1405 77.5142 66.4732 69.1815 66.4732 58.9026C66.4732 48.6237 58.1405 40.291 47.8616 40.291C37.5827 40.291 29.25 48.6237 29.25 58.9026C29.25 69.1815 37.5827 77.5142 47.8616 77.5142Z" fill="#6C63FF"/>
<path id="Vector_6" d="M57.9336 65.2574C58.5322 65.0607 59.0819 64.7381 59.5454 64.3112C59.8526 64.0065 60.0894 63.6382 60.2393 63.2323C60.3891 62.8264 60.4485 62.3927 60.4131 61.9614C60.3936 61.6542 60.3033 61.3556 60.1493 61.089C59.9953 60.8224 59.7818 60.595 59.5254 60.4247C58.8598 59.9977 57.9696 59.9965 57.0633 60.3959L57.0976 53.1302L56.3678 53.1267L56.3274 61.6683L56.8898 61.3146C57.5419 60.9051 58.4732 60.6168 59.1312 61.039C59.2938 61.1506 59.4285 61.2981 59.5248 61.4702C59.6211 61.6423 59.6765 61.8343 59.6865 62.0312C59.7111 62.3525 59.6662 62.6752 59.5549 62.9776C59.4436 63.2799 59.2684 63.5547 59.0413 63.7833C58.2354 64.5531 57.0596 64.7938 55.7188 65.009L55.8344 65.7296C56.5468 65.6352 57.2494 65.4772 57.9336 65.2574Z" fill="#2F2E41"/>
<path id="Vector_7" d="M64.6237 52.7629L60.7266 53.2776L60.8221 54.0011L64.7192 53.4864L64.6237 52.7629Z" fill="#2F2E41"/>
<path id="Vector_8" d="M52.3268 54.3872L48.4297 54.9019L48.5252 55.6254L52.4223 55.1107L52.3268 54.3872Z" fill="#2F2E41"/>
<path id="Vector_9" d="M8.37673 57.4332L35.0986 90.0934C35.5201 90.6081 35.8362 91.2009 36.0286 91.8378C36.221 92.4747 36.286 93.1433 36.2199 93.8053C36.1539 94.4674 35.958 95.11 35.6436 95.6963C35.3291 96.2826 34.9022 96.8013 34.3873 97.2226C33.8723 97.6439 33.2794 97.9597 32.6424 98.1518C32.0054 98.3439 31.3368 98.4086 30.6748 98.3423C30.0128 98.276 29.3703 98.0798 28.7841 97.7651C28.1979 97.4504 27.6794 97.0233 27.2583 96.5082L0.536294 63.8482C0.339014 63.6071 0.191148 63.3295 0.10115 63.0313C0.0111522 62.7331 -0.0192229 62.42 0.0117642 62.1101C0.0427512 61.8001 0.134488 61.4993 0.281742 61.2248C0.428996 60.9503 0.628879 60.7075 0.869978 60.5102L5.03868 57.0994C5.52562 56.701 6.15085 56.5124 6.77684 56.575C7.40283 56.6376 7.97833 56.9463 8.37673 57.4332Z" fill="#6C63FF"/>
<path id="Vector_10" d="M17.2881 64.7225L39.2307 91.5412C39.428 91.7822 39.5759 92.0598 39.6659 92.358C39.7559 92.6563 39.7862 92.9693 39.7552 93.2792C39.7243 93.5892 39.6325 93.89 39.4853 94.1645C39.338 94.439 39.1381 94.6818 38.897 94.8791L31.7767 100.705C31.5356 100.902 31.258 101.05 30.9598 101.14C30.6616 101.23 30.3485 101.26 30.0386 101.229C29.7286 101.198 29.4278 101.107 29.1533 100.959C28.8788 100.812 28.636 100.612 28.4387 100.371L6.49605 73.5525C6.09837 73.0653 5.91017 72.4403 5.97272 71.8146C6.03528 71.1888 6.3435 70.6134 6.82975 70.2146L13.9502 64.3887C14.4371 63.9903 15.0623 63.8017 15.6883 63.8643C16.3143 63.9269 16.8898 64.2356 17.2881 64.7225Z" fill="#2F2E41"/>
<path id="Path 336" d="M169.419 32.1191C169.151 31.482 168.701 30.9376 168.127 30.5532C167.552 30.1687 166.878 29.9612 166.186 29.9563H101.662C100.734 29.9568 99.8449 30.3255 99.1891 30.9813C98.5332 31.6372 98.1646 32.5265 98.1641 33.454V115.084C98.1646 116.011 98.5332 116.9 99.1891 117.556C99.8449 118.212 100.734 118.581 101.662 118.581H166.189C167.116 118.58 168.005 118.211 168.661 117.556C169.316 116.9 169.685 116.011 169.686 115.084V33.454C169.688 32.9958 169.598 32.542 169.421 32.1191H169.419ZM168.907 115.084C168.906 115.805 168.62 116.497 168.109 117.007C167.599 117.517 166.908 117.804 166.186 117.805H101.662C100.94 117.804 100.248 117.518 99.7381 117.008C99.2278 116.498 98.9411 115.806 98.9408 115.084V33.4545C98.9418 32.7332 99.2288 32.0416 99.7388 31.5316C100.249 31.0215 100.94 30.7345 101.662 30.7335H166.189C166.732 30.7356 167.263 30.8995 167.712 31.2044C168.162 31.5092 168.511 31.9412 168.714 32.4452C168.754 32.5456 168.788 32.6481 168.817 32.7522C168.878 32.9812 168.91 33.2173 168.91 33.4545L168.907 115.084Z" fill="#3F3D56"/>
<path id="Path 337" d="M155.954 49.2287H136.518C136.314 49.229 136.111 49.1891 135.922 49.1111C135.734 49.0331 135.562 48.9186 135.417 48.7742C135.273 48.6297 135.158 48.4582 135.08 48.2694C135.001 48.0806 134.961 47.8782 134.961 47.6738C134.961 47.4694 135.001 47.267 135.08 47.0782C135.158 46.8894 135.273 46.7179 135.417 46.5735C135.562 46.429 135.734 46.3146 135.922 46.2366C136.111 46.1586 136.314 46.1186 136.518 46.1189H155.954C156.158 46.1186 156.361 46.1586 156.55 46.2366C156.739 46.3146 156.91 46.429 157.055 46.5735C157.2 46.7179 157.314 46.8894 157.393 47.0782C157.471 47.267 157.511 47.4694 157.511 47.6738C157.511 47.8782 157.471 48.0806 157.393 48.2694C157.314 48.4582 157.2 48.6297 157.055 48.7742C156.91 48.9186 156.739 49.0331 156.55 49.1111C156.361 49.1891 156.158 49.229 155.954 49.2287Z" fill="#3F3D56"/>
<path id="Path 338" d="M155.954 57.3916H136.518C136.314 57.3919 136.111 57.3519 135.922 57.2739C135.734 57.1959 135.562 57.0814 135.417 56.937C135.273 56.7926 135.158 56.6211 135.08 56.4323C135.001 56.2434 134.961 56.0411 134.961 55.8367C134.961 55.6323 135.001 55.4299 135.08 55.2411C135.158 55.0522 135.273 54.8807 135.417 54.7363C135.562 54.5919 135.734 54.4774 135.922 54.3994C136.111 54.3214 136.314 54.2814 136.518 54.2817H155.954C156.158 54.2814 156.361 54.3214 156.55 54.3994C156.739 54.4774 156.91 54.5919 157.055 54.7363C157.2 54.8807 157.314 55.0522 157.393 55.2411C157.471 55.4299 157.511 55.6323 157.511 55.8367C157.511 56.0411 157.471 56.2434 157.393 56.4323C157.314 56.6211 157.2 56.7926 157.055 56.937C156.91 57.0814 156.739 57.1959 156.55 57.2739C156.361 57.3519 156.158 57.3919 155.954 57.3916Z" fill="#3F3D56"/>
<path id="Path 339" d="M126.547 62.0397H112.343C111.879 62.0392 111.435 61.8548 111.107 61.5268C110.779 61.1989 110.594 60.7542 110.594 60.2904V43.5291C110.594 43.0653 110.779 42.6207 111.107 42.2927C111.435 41.9647 111.879 41.7803 112.343 41.7798H126.547C127.01 41.7803 127.455 41.9647 127.783 42.2927C128.111 42.6207 128.295 43.0653 128.296 43.5291V60.2904C128.295 60.7542 128.111 61.1989 127.783 61.5268C127.455 61.8548 127.01 62.0392 126.547 62.0397Z" fill="#ED8936"/>
<path id="Path 340" d="M155.815 74.1064H111.891C111.478 74.1064 111.083 73.9426 110.791 73.651C110.5 73.3594 110.336 72.9639 110.336 72.5515C110.336 72.1391 110.5 71.7436 110.791 71.452C111.083 71.1604 111.478 70.9966 111.891 70.9966H155.815C156.228 70.9966 156.623 71.1604 156.915 71.452C157.207 71.7436 157.37 72.1391 157.37 72.5515C157.37 72.9639 157.207 73.3594 156.915 73.651C156.623 73.9426 156.228 74.1064 155.815 74.1064Z" fill="#CCCCCC"/>
<path id="Path 341" d="M155.821 82.2695H111.896C111.484 82.2689 111.089 82.1048 110.798 81.8132C110.507 81.5217 110.344 81.1266 110.344 80.7146C110.344 80.3026 110.507 79.9075 110.798 79.6159C111.089 79.3244 111.484 79.1603 111.896 79.1597H155.821C156.025 79.1594 156.228 79.1993 156.417 79.2773C156.606 79.3553 156.777 79.4698 156.922 79.6142C157.067 79.7587 157.181 79.9302 157.26 80.119C157.338 80.3078 157.378 80.5102 157.378 80.7146C157.378 80.919 157.338 81.1214 157.26 81.3102C157.181 81.499 157.067 81.6705 156.922 81.8149C156.777 81.9594 156.606 82.0738 156.417 82.1518C156.228 82.2298 156.025 82.2698 155.821 82.2695Z" fill="#CCCCCC"/>
<path id="Path 342" d="M155.821 90.4323H111.896C111.484 90.4317 111.089 90.2676 110.798 89.9761C110.507 89.6845 110.344 89.2894 110.344 88.8774C110.344 88.4655 110.507 88.0703 110.798 87.7788C111.089 87.4873 111.484 87.3232 111.896 87.3225H155.821C156.025 87.3222 156.228 87.3622 156.417 87.4402C156.606 87.5182 156.777 87.6327 156.922 87.7771C157.067 87.9215 157.181 88.093 157.26 88.2818C157.338 88.4706 157.378 88.673 157.378 88.8774C157.378 89.0818 157.338 89.2842 157.26 89.473C157.181 89.6618 157.067 89.8334 156.922 89.9778C156.777 90.1222 156.606 90.2367 156.417 90.3147C156.228 90.3927 156.025 90.4327 155.821 90.4323Z" fill="#CCCCCC"/>
<path id="Path 343" d="M155.821 98.5952H111.896C111.484 98.5946 111.089 98.4304 110.798 98.1389C110.507 97.8474 110.344 97.4522 110.344 97.0403C110.344 96.6283 110.507 96.2332 110.798 95.9416C111.089 95.6501 111.484 95.486 111.896 95.4854H155.821C156.025 95.485 156.228 95.525 156.417 95.603C156.606 95.681 156.777 95.7955 156.922 95.9399C157.067 96.0843 157.181 96.2559 157.26 96.4447C157.338 96.6335 157.378 96.8359 157.378 97.0403C157.378 97.2447 157.338 97.4471 157.26 97.6359C157.181 97.8247 157.067 97.9962 156.922 98.1406C156.777 98.285 156.606 98.3995 156.417 98.4775C156.228 98.5555 156.025 98.5955 155.821 98.5952Z" fill="#CCCCCC"/>
<path id="Path 344" d="M155.821 106.758H111.896C111.484 106.758 111.089 106.594 110.798 106.302C110.507 106.01 110.344 105.615 110.344 105.203C110.344 104.791 110.507 104.396 110.798 104.105C111.089 103.813 111.484 103.649 111.896 103.648H155.821C156.025 103.648 156.228 103.688 156.417 103.766C156.606 103.844 156.777 103.959 156.922 104.103C157.067 104.247 157.181 104.419 157.26 104.608C157.338 104.797 157.378 104.999 157.378 105.203C157.378 105.408 157.338 105.61 157.26 105.799C157.181 105.988 157.067 106.159 156.922 106.304C156.777 106.448 156.606 106.563 156.417 106.641C156.228 106.719 156.025 106.759 155.821 106.758Z" fill="#CCCCCC"/>
<path id="Ellipse 44" d="M171.299 44.5196C183.593 44.5196 193.559 34.5536 193.559 22.2598C193.559 9.96605 183.593 0 171.299 0C159.005 0 149.039 9.96605 149.039 22.2598C149.039 34.5536 159.005 44.5196 171.299 44.5196Z" fill="#ED8936"/>
<path id="Vector_11" d="M170.869 37.5817C172.316 37.5817 173.488 36.409 173.488 34.9625C173.488 33.5159 172.316 32.3433 170.869 32.3433C169.423 32.3433 168.25 33.5159 168.25 34.9625C168.25 36.409 169.423 37.5817 170.869 37.5817Z" fill="white"/>
<path id="Vector_12" d="M170.582 7.6318C168.608 7.65138 166.719 8.44073 165.317 9.83187C163.916 11.223 163.113 13.1061 163.079 15.0804C163.078 15.1182 163.078 15.3839 163.078 15.7315C163.078 16.241 163.281 16.7297 163.641 17.0901C164.001 17.4504 164.49 17.6529 164.999 17.6529C165.509 17.6528 165.998 17.4501 166.359 17.0895C166.719 16.7288 166.922 16.2397 166.922 15.7298V15.7285C166.922 15.4921 166.921 15.3285 166.921 15.3184C166.921 14.6858 167.086 14.0641 167.399 13.5144C167.712 12.9647 168.163 12.5059 168.707 12.1832C169.251 11.8606 169.87 11.6851 170.502 11.6741C171.135 11.663 171.759 11.8169 172.314 12.1204C172.869 12.4239 173.336 12.8667 173.668 13.4052C174 13.9437 174.186 14.5593 174.208 15.1915C174.229 15.8237 174.086 16.4508 173.793 17.0109C173.499 17.5711 173.064 18.0451 172.531 18.3863L172.532 18.3871C172.532 18.3871 169.797 20.1476 168.963 22.5628L168.964 22.5629C168.818 23.0577 168.743 23.5711 168.744 24.0871C168.744 24.2992 168.756 26.1552 168.78 27.6616C168.789 28.1814 169.001 28.677 169.372 29.0415C169.742 29.4061 170.241 29.6103 170.761 29.6102C171.021 29.6102 171.279 29.5589 171.519 29.4594C171.76 29.3598 171.978 29.2138 172.162 29.0299C172.346 28.8459 172.492 28.6274 172.591 28.3871C172.691 28.1467 172.742 27.8891 172.742 27.6289L172.742 27.6167C172.734 26.2371 172.729 24.6307 172.729 24.5141C172.729 23.0312 174.16 21.5536 175.335 20.59C176.695 19.4884 177.651 17.9663 178.053 16.2627C178.14 15.9115 178.187 15.5519 178.196 15.1903C178.196 14.1977 178 13.2148 177.62 12.2977C177.24 11.3806 176.683 10.5474 175.982 9.84549C175.28 9.1436 174.446 8.58683 173.529 8.20697C172.612 7.8271 171.629 7.63159 170.637 7.63159C170.619 7.63159 170.6 7.63166 170.582 7.6318Z" fill="white"/>
<path id="Vector_13" d="M43.2 50.668C46.5322 48.4773 50.7202 49.4628 54.4238 49.749C57.7703 50.0076 61.7368 49.7528 64.0906 47.0187C66.5393 44.1741 66.3347 39.9508 64.3073 36.9421C62.3118 33.9807 58.9993 32.1107 55.4949 31.6177C53.5533 31.3332 51.5737 31.456 49.6821 31.9784C47.7905 32.5008 46.0284 33.4112 44.5079 34.6518L45.6989 35.1451C45.0048 28.5098 40.1262 22.5114 33.5807 20.8843C26.958 19.2381 19.5518 22.0477 16.0185 27.9527C12.5352 33.774 12.9478 41.8972 17.9617 46.7348C20.3695 49.0581 23.6448 50.2417 26.9688 49.6101C30.0343 49.0276 32.7581 46.7929 33.3318 43.6371C33.8636 40.7116 32.7019 37.3888 29.8563 36.1112C29.0777 35.748 28.2267 35.5665 27.3677 35.5802C26.5087 35.594 25.664 35.8026 24.8973 36.1904C24.203 36.5811 23.6163 37.1377 23.1898 37.8106C22.7632 38.4835 22.5101 39.2516 22.453 40.0463C22.4 40.8156 22.5567 41.5849 22.9065 42.2721C23.3015 43.0785 24.5053 42.3721 24.1114 41.5679C23.8569 40.9766 23.7845 40.3228 23.9036 39.6902C24.0227 39.0576 24.3278 38.4749 24.7798 38.0166C25.8142 36.9361 27.447 36.7566 28.8214 37.1984C31.3364 38.0068 32.4468 40.8919 31.9729 43.3395C31.4421 46.081 29.1017 47.8426 26.4368 48.2936C23.5388 48.7841 20.7126 47.5604 18.7009 45.5023C14.4879 41.1921 14.1233 34.2499 16.9653 29.1056C19.8484 23.8869 25.9985 21.0846 31.8565 21.96C37.6491 22.8256 42.4197 27.3818 43.9062 32.9997C44.0937 33.7035 44.2266 34.4208 44.3036 35.1451C44.3083 35.2809 44.352 35.4125 44.4295 35.5241C44.507 35.6358 44.6149 35.7228 44.7404 35.7748C44.866 35.8268 45.0038 35.8416 45.1375 35.8174C45.2713 35.7933 45.3952 35.7311 45.4946 35.6385C50.4444 31.5276 58.6771 31.9685 62.7357 37.1401C64.7261 39.6763 65.3126 43.6147 62.9883 46.1623C60.7752 48.5882 57.0998 48.5906 54.0771 48.3249C50.2103 47.9851 45.9594 47.186 42.4957 49.4631C41.7484 49.9543 42.4467 51.1632 43.2 50.668Z" fill="#2F2E41"/>
<path id="Vector_14" d="M58.2037 142.391H30.2962C29.7413 142.39 29.2092 142.169 28.8168 141.777C28.4244 141.385 28.2037 140.853 28.2031 140.298V130.995C28.2037 130.44 28.4244 129.908 28.8168 129.516C29.2092 129.123 29.7413 128.903 30.2962 128.902H58.2037C58.7587 128.903 59.2907 129.123 59.6831 129.516C60.0755 129.908 60.2962 130.44 60.2968 130.995V140.298C60.2962 140.853 60.0755 141.385 59.6831 141.777C59.2907 142.169 58.7587 142.39 58.2037 142.391Z" fill="#2F2E41"/>
<path id="Vector_15" d="M59.1553 96.5271C58.2815 92.0586 54.888 88.52 50.4835 87.065C52.074 86.5532 53.0853 85.7953 53.0853 84.9477C53.0853 83.4064 49.7534 82.157 45.6433 82.157C41.5332 82.157 38.2013 83.4064 38.2013 84.9477C38.2013 85.8077 39.2401 86.5761 40.871 87.088C34.1183 89.1013 29.217 94.978 29.217 101.898C29.217 101.898 27.1384 115.223 25.5064 125.875C24.4623 132.69 30.1673 138.781 37.5918 138.781H63.7033C65.4137 138.781 66.8052 137.491 66.8052 135.905C66.8052 135.905 61.9937 111.042 59.1553 96.5271Z" fill="#2F2E41"/>
</g>
<defs>
<clipPath id="clip0_1746_16859">
<rect width="193.556" height="174" fill="white"/>
</clipPath>
</defs>
</svg>
