<svg width="146" height="174" viewBox="0 0 146 174" fill="none" xmlns="http://www.w3.org/2000/svg">
<g id="undraw_completing_re_i7ap (1) 1" clip-path="url(#clip0_684_27128)">
<path id="Vector" d="M56.5496 142.813C53.6444 139.816 49.4343 138.098 44.9988 138.098L44.8277 138.098C41.9062 138.1 39.0368 137.325 36.5131 135.853L36.2504 135.7L36.462 135.482C37.6071 134.297 38.5633 132.944 39.297 131.468C38.7759 131.954 38.1544 132.319 37.4764 132.538C36.7984 132.757 36.0806 132.825 35.3737 132.736C34.6274 132.647 33.911 132.39 33.2781 131.984C32.6452 131.579 32.1123 131.036 31.7194 130.395C30.1692 127.88 28.3213 124.311 28.3213 121.592C28.3237 119.294 28.8049 117.021 29.7342 114.919C30.6635 112.817 32.0205 110.932 33.7187 109.384C34.7939 108.414 35.6526 107.229 36.239 105.906C36.8254 104.582 37.1263 103.15 37.122 101.702L37.1211 101.496C37.1208 99.5902 37.3537 97.6914 37.8147 95.8421L37.8615 95.6553L38.0536 95.6621C39.2926 95.7042 40.5323 95.6004 41.7471 95.3526C40.6077 95.2129 39.493 94.9164 38.4347 94.4716L38.228 94.388L38.2981 94.1762C43.1338 91.1821 54.0492 92.7326 60.3849 78.237C65.5222 66.4831 83.6485 88.671 83.6485 101.496C83.6485 102.805 82.3534 104.534 83.3229 105.399C93.8035 114.749 86.5721 120.753 84.2921 126.795C83.7511 128.229 84.9241 129.802 84.9241 131.353C84.9241 131.616 84.9174 131.888 84.9041 132.16L84.8839 132.579L84.5345 132.347C83.8432 131.894 83.2024 131.368 82.623 130.779C83.2241 132.162 83.5073 133.662 83.452 135.17C83.3966 136.677 83.004 138.152 82.3031 139.487C81.2048 141.56 80.1422 143.044 79.1449 143.898C75.9501 146.632 71.8317 148.042 67.6318 147.84C63.4318 147.639 59.4675 145.84 56.5496 142.813Z" fill="#B2F1AD"/>
<path id="Vector_2" d="M74.0971 174C74.1685 174 74.2375 173.974 74.2914 173.927C74.3453 173.88 74.3805 173.816 74.3906 173.745C74.4032 173.656 75.6385 164.747 74.5291 152.906C73.5045 141.971 70.2141 126.22 60.3574 113.284C60.3338 113.253 60.3043 113.227 60.2706 113.208C60.2369 113.188 60.1996 113.175 60.161 113.17C60.1223 113.165 60.083 113.167 60.0453 113.177C60.0076 113.187 59.9722 113.204 59.9411 113.228C59.9101 113.252 59.8841 113.281 59.8644 113.315C59.8448 113.349 59.8321 113.386 59.8269 113.424C59.8217 113.463 59.8241 113.502 59.8341 113.54C59.8441 113.578 59.8615 113.613 59.8852 113.644C69.6567 126.468 72.9206 142.103 73.938 152.962C75.041 164.733 73.8153 173.573 73.8028 173.661C73.7969 173.703 73.8 173.746 73.8121 173.787C73.8241 173.828 73.8448 173.866 73.8727 173.898C73.9006 173.93 73.9351 173.956 73.9738 173.973C74.0125 173.991 74.0546 174 74.0971 174Z" fill="#3F3D56"/>
<path id="Vector_3" d="M66.0535 131.531C66.1162 131.531 66.1773 131.511 66.2281 131.474C66.2788 131.438 66.3166 131.386 66.336 131.326C66.3554 131.266 66.3554 131.202 66.3361 131.142C66.3167 131.083 66.279 131.031 66.2283 130.994C63.4197 129.093 60.3856 127.548 57.1959 126.396C52.2126 124.572 44.6347 122.918 36.8334 125.4C36.7962 125.412 36.7617 125.431 36.7318 125.456C36.7019 125.481 36.6773 125.512 36.6593 125.547C36.6413 125.582 36.6304 125.619 36.6271 125.658C36.6237 125.697 36.6281 125.736 36.6399 125.774C36.6518 125.811 36.6709 125.845 36.696 125.875C36.7212 125.905 36.7521 125.929 36.7868 125.947C36.8214 125.965 36.8593 125.976 36.8982 125.979C36.9371 125.983 36.9763 125.978 37.0135 125.966C44.6549 123.534 52.0954 125.161 56.9918 126.954C60.1302 128.086 63.1156 129.605 65.8792 131.474C65.9298 131.511 65.9909 131.531 66.0535 131.531Z" fill="#3F3D56"/>
<path id="Vector_4" d="M79.6395 97.6921C79.6441 97.6296 79.6287 97.5672 79.5957 97.5139C79.5626 97.4607 79.5135 97.4192 79.4554 97.3956C79.3973 97.3719 79.3333 97.3673 79.2724 97.3823C79.2115 97.3973 79.1569 97.4312 79.1165 97.4791C77.0181 100.144 75.2591 103.058 73.88 106.157C71.7015 110.996 69.5061 118.435 71.4207 126.395C71.4298 126.433 71.4462 126.469 71.4692 126.5C71.4921 126.532 71.521 126.558 71.5542 126.579C71.5875 126.599 71.6244 126.613 71.663 126.619C71.7015 126.625 71.7409 126.624 71.7788 126.614C71.8167 126.605 71.8525 126.589 71.884 126.566C71.9156 126.543 71.9423 126.514 71.9626 126.481C71.983 126.447 71.9966 126.41 72.0026 126.372C72.0087 126.333 72.0071 126.294 71.9979 126.256C70.1227 118.459 72.2809 111.155 74.4214 106.401C75.7771 103.352 77.5067 100.484 79.5704 97.8619C79.6108 97.814 79.6351 97.7546 79.6395 97.6921Z" fill="#3F3D56"/>
<path id="Vector_5" d="M136.898 173.686H113.266L113.165 173.501C112.862 172.953 112.571 172.373 112.298 171.776C109.864 166.565 108.835 160.605 107.927 155.346L107.244 151.382C107.161 150.902 107.223 150.409 107.423 149.964C107.622 149.52 107.95 149.145 108.364 148.888C108.777 148.631 109.258 148.503 109.745 148.521C110.232 148.539 110.702 148.701 111.096 148.988C114.687 151.601 118.28 154.212 121.874 156.82C123.235 157.811 124.789 158.957 126.278 160.195C126.421 159.498 126.572 158.798 126.722 158.108C126.825 157.632 127.069 157.197 127.421 156.86C127.773 156.523 128.217 156.299 128.698 156.215C129.178 156.132 129.672 156.195 130.117 156.394C130.562 156.593 130.937 156.921 131.194 157.335L133.959 161.777C135.976 165.021 137.756 168.218 137.393 171.666C137.395 171.708 137.392 171.75 137.384 171.791C137.311 172.357 137.177 172.914 136.982 173.451L136.898 173.686Z" fill="#B2F1AD"/>
<path id="Vector_6" d="M125.889 80.7812L121.328 63.9007C121.133 63.1861 120.664 62.5769 120.024 62.2047C119.383 61.8324 118.622 61.727 117.904 61.911C117.533 62.0062 117.185 62.176 116.882 62.4101C116.578 62.6441 116.326 62.9375 116.139 63.2724C115.953 63.6073 115.837 63.9766 115.798 64.3579C115.759 64.7391 115.798 65.1243 115.913 65.49L121.188 82.8795L123.948 93.5811C123.546 93.888 123.248 94.3112 123.095 94.7933C122.942 95.2753 122.941 95.7927 123.092 96.2753C123.243 96.7579 123.54 97.1822 123.94 97.4906C124.341 97.799 124.827 97.9765 125.332 97.9991C125.838 98.0216 126.338 97.8881 126.764 97.6166C127.191 97.3452 127.524 96.9489 127.717 96.4817C127.911 96.0145 127.956 95.499 127.847 95.0053C127.737 94.5116 127.478 94.0635 127.105 93.722L125.889 80.7812Z" fill="#A0616A"/>
<path id="Vector_7" d="M87.5105 77.1455L101.368 66.4811C101.953 66.0275 102.337 65.3619 102.437 64.6277C102.536 63.8936 102.343 63.1498 101.898 62.557C101.669 62.2503 101.379 61.9936 101.046 61.8026C100.714 61.6116 100.346 61.4903 99.9658 61.446C99.5851 61.4017 99.1994 61.4355 98.8322 61.5451C98.465 61.6548 98.1239 61.8381 97.8299 62.0838L83.7753 73.6028L74.9401 80.2422C74.5029 79.988 73.998 79.8746 73.4941 79.9173C72.9901 79.9601 72.5116 80.1569 72.1234 80.4811C71.7352 80.8053 71.4563 81.2411 71.3244 81.7293C71.1926 82.2176 71.2142 82.7346 71.3864 83.2101C71.5586 83.6856 71.8731 84.0966 72.287 84.3872C72.7009 84.6778 73.1942 84.8339 73.7 84.8344C74.2057 84.8348 74.6993 84.6796 75.1137 84.3897C75.5282 84.0999 75.8433 83.6895 76.0164 83.2143L87.5105 77.1455Z" fill="#A0616A"/>
<path id="Vector_8" d="M98.8051 79.5971L98.1943 93.2388L117.373 89.0705C115.741 83.589 114.631 82.654 115.857 78.8392L98.8051 79.5971Z" fill="#A0616A"/>
<path id="Vector_9" d="M110.598 54.588H104.207L101.463 59.2841L100.155 59.212C99.5159 59.1767 98.8758 59.2721 98.2744 59.4926C97.673 59.713 97.1228 60.0538 96.6576 60.4941C96.1923 60.9344 95.8217 61.4649 95.5685 62.0532C95.3152 62.6416 95.1846 63.2754 95.1846 63.916L96.7958 66.4132C96.7958 66.4132 93.9143 71.435 98.065 73.9056C98.065 73.9056 97.3247 78.5604 98.065 78.5103C98.8054 78.4603 100.511 77.5129 98.8053 78.4603C97.1001 79.4076 97.2273 79.5348 97.4479 79.7554L97.6685 79.976L115.599 82.9868C115.599 82.9868 116.123 79.5108 116.18 78.8908C116.236 78.2708 115.858 79.7866 116.236 78.2708C116.615 76.7551 117.184 77.3235 116.615 76.7551C116.047 76.1866 120.298 69.1447 118.552 66.4132L121.352 63.6817C121.352 61.0616 117.144 58.9375 114.524 58.9375H114.188L110.598 54.588Z" fill="#E6E6E6"/>
<path id="Vector_10" d="M95.2009 168.426H92.6143L91.3838 158.45L95.2012 158.45L95.2009 168.426Z" fill="#A0616A"/>
<path id="Vector_11" d="M87.3943 172.243C87.3955 172.533 87.511 172.81 87.7157 173.015C87.9204 173.22 88.1977 173.336 88.4874 173.338H93.3565L93.5073 173.026L94.1961 171.605L94.4628 173.026L94.5218 173.338H96.3583L96.3321 173.023L95.8424 167.151L95.2018 167.112L92.4338 166.948L91.7539 166.906V168.659C91.2379 169.208 87.1888 171.283 87.3943 172.243Z" fill="#2F2E41"/>
<path id="Vector_12" d="M133.641 161.652L131.466 163.051L125.033 155.326L128.244 153.261L133.641 161.652Z" fill="#A0616A"/>
<path id="Vector_13" d="M129.14 169.085C129.298 169.328 129.545 169.499 129.828 169.561C130.111 169.622 130.407 169.57 130.652 169.415L134.747 166.78L134.705 166.436L134.515 164.868L135.508 165.919L135.727 166.15L137.272 165.156L137.079 164.906L133.49 160.232L132.93 160.545L130.513 161.905L129.919 162.238L130.868 163.713C130.731 164.453 128.448 168.389 129.14 169.085Z" fill="#2F2E41"/>
<path id="Vector_14" d="M145.706 173.868L65.6153 173.946C65.5354 173.946 65.4589 173.914 65.4025 173.857C65.3461 173.8 65.3145 173.724 65.3145 173.644C65.3145 173.564 65.3461 173.487 65.4025 173.43C65.4589 173.374 65.5354 173.342 65.6153 173.341L145.706 173.263C145.786 173.264 145.863 173.296 145.919 173.352C145.976 173.409 146.007 173.486 146.007 173.566C146.007 173.646 145.976 173.722 145.919 173.779C145.863 173.836 145.786 173.868 145.706 173.868Z" fill="#CACACA"/>
<path id="Vector_15" d="M117.073 87.5295C117.073 87.5295 104.814 94.0142 98.3293 89.59C98.3293 89.59 96.9109 96.4598 96.3425 97.0282C95.7741 97.5966 94.8685 97.8443 95.5107 98.4784C96.153 99.1124 96.5105 99.9687 95.2897 101.056C94.0689 102.144 92.8515 101.799 94.0286 102.919C95.2057 104.039 90.4689 131.512 90.4689 131.512C90.4689 131.512 91.2268 157.06 90.4689 157.833C89.7111 158.606 88.6981 158.779 89.6782 159.734C90.6584 160.69 90.6584 159.949 90.6584 161.266V162.584L91.1069 163.894H97.2587C97.2587 163.894 98.7433 162.17 97.2587 160.672C95.7741 159.174 97.7105 158.764 98.1633 157.359C98.6161 155.953 99.374 157.469 98.6161 155.953C97.8582 154.437 97.4942 154.726 97.4868 153.729C97.4793 152.732 108.658 113.701 108.658 113.701L110.012 135.304L126.298 158.963L131.091 155.368C131.091 155.368 127.601 150.455 128.417 149.779C129.233 149.104 126.012 148.257 127.028 147.495C128.044 146.733 125.598 145.965 126.52 144.955C127.441 143.945 125.25 141.4 123.98 141.4C122.71 141.4 120.928 137.156 120.928 137.156L123.589 103.634L117.073 87.5295Z" fill="#2F2E41"/>
<path id="Vector_16" d="M104.078 40.799C103.992 40.9129 103.3 40.8515 102.469 40.7301C100.826 40.4902 100.602 40.7753 99.3732 41.8929C97.5934 43.5118 98.6054 53.3857 97.7308 55.5251L97.4482 55.7333C98.0087 55.6263 98.5591 55.4723 99.0936 55.2729C99.3956 54.3201 99.6984 53.3643 100.003 52.4123C100.291 53.153 100.472 53.9309 100.54 54.7225C100.964 54.5558 101.384 54.1479 103.152 53.6009C104.042 52.997 110.482 52.3899 111.31 52.1242C113.411 44.9753 110.025 42.0843 104.078 40.799Z" fill="#2F2E41"/>
<path id="Vector_17" d="M106.253 51.8227C109.651 51.8227 112.407 49.0675 112.407 45.6687C112.407 42.27 109.651 39.5148 106.253 39.5148C102.854 39.5148 100.099 42.27 100.099 45.6687C100.099 49.0675 102.854 51.8227 106.253 51.8227Z" fill="#A0616A"/>
<path id="Vector_18" d="M110.128 40.2566C109.781 40.2054 109.447 40.0884 109.144 39.9118C108.994 39.8211 108.872 39.6901 108.793 39.5336C108.714 39.3771 108.68 39.2015 108.696 39.0268C108.772 38.5896 109.266 38.3285 109.709 38.3551C110.15 38.4187 110.569 38.5882 110.931 38.8493C110.891 38.4267 110.71 38.0298 110.418 37.7221C110.126 37.4145 109.738 37.2141 109.318 37.1531C109.901 37.1217 110.507 37.094 111.045 37.3181C111.584 37.5421 112.033 38.097 111.936 38.6723C112.842 38.5556 113.735 39.1867 114.109 40.0199C114.483 40.8531 114.409 41.8315 114.11 42.6945C114.08 42.8266 114.023 42.9509 113.941 43.0589C113.859 43.1669 113.755 43.256 113.636 43.3203C113.331 43.436 113.003 43.242 112.739 43.0508C111.36 42.0518 110.104 40.8921 108.999 39.596" fill="#2F2E41"/>
<path id="Vector_19" d="M112.811 52.2113C112.55 52.3341 112.686 52.7911 112.483 52.9957C112.395 53.0823 112.289 53.1484 112.172 53.189C112.142 52.8076 112.053 52.4331 111.909 52.0787C111.883 52.0142 111.839 51.9422 111.771 51.9479C111.691 51.9574 111.67 52.0616 111.668 52.1393C111.652 52.5246 111.567 52.904 111.416 53.2591C111.415 53.2629 111.413 53.2685 111.411 53.2723C111.352 53.2704 111.291 53.2685 111.235 53.2666C110.795 53.2496 109.821 52.1204 109.605 52.5031C110.367 51.1522 111.295 49.1211 111.437 47.5769C111.487 47.2536 111.463 46.9234 111.367 46.6106C111.317 46.455 111.224 46.3169 111.098 46.2128C110.972 46.1087 110.819 46.0429 110.657 46.0232C110.577 46.0196 110.497 46.0337 110.423 46.0645C110.349 46.0953 110.283 46.1421 110.229 46.2014C110.175 46.2608 110.135 46.3313 110.112 46.408C110.089 46.4846 110.082 46.5654 110.094 46.6447L109.984 46.6296C108.965 45.7997 109.844 44.3578 108.658 43.7875C108.256 43.5943 105.797 44.2404 105.363 44.1267C105.354 43.6696 105.261 43.2181 105.088 42.7947C105.062 42.7303 105.018 42.6583 104.95 42.664C104.87 42.6735 104.85 42.7777 104.848 42.8553C104.832 43.2407 104.746 43.62 104.596 43.9751C103.995 43.8898 103.383 43.922 102.794 44.0698C102.275 44.2062 101.782 44.4412 101.261 44.5662C101.003 44.6452 100.732 44.6708 100.465 44.6414C100.197 44.6121 99.9379 44.5285 99.7035 44.3957C99.0423 43.9524 98.9267 42.9709 99.2564 42.2471C99.495 41.7827 99.8175 41.3665 100.208 41.0194C100.505 40.7314 100.814 40.4548 101.123 40.1781C101.399 39.9299 101.676 39.6817 101.953 39.4335C102.301 39.1058 102.672 38.8031 103.063 38.5279C103.687 38.1186 104.388 37.8413 105.124 37.713C105.859 37.5846 106.613 37.6079 107.339 37.7814C108.211 37.9898 109.376 37.6961 110.174 38.1035C110.59 38.3176 111.513 39.138 111.879 39.4297C112.815 40.1744 112.181 39.5676 113.205 39.9981C115.646 41.0247 114.567 51.3848 112.811 52.2113Z" fill="#2F2E41"/>
<path id="Vector_20" d="M44.6723 97.1285C65.75 97.1285 82.8369 80.0417 82.8369 58.964C82.8369 37.8863 65.75 20.7994 44.6723 20.7994C23.5947 20.7994 6.50781 37.8863 6.50781 58.964C6.50781 80.0417 23.5947 97.1285 44.6723 97.1285Z" fill="white"/>
<path id="Vector_21" d="M44.6724 97.5094C23.4184 97.5094 6.12695 80.2179 6.12695 58.9639C6.12695 37.7099 23.4184 20.4185 44.6724 20.4185C65.9264 20.4185 83.2179 37.7099 83.2179 58.9639C83.2179 80.2179 65.9264 97.5094 44.6724 97.5094ZM44.6724 21.1804C23.8385 21.1804 6.88886 38.1301 6.88886 58.9639C6.88886 79.7978 23.8385 96.7475 44.6724 96.7475C65.5063 96.7475 82.456 79.7978 82.456 58.9639C82.456 38.1301 65.5063 21.1804 44.6724 21.1804Z" fill="#6C63FF"/>
<path id="Vector_22" d="M39.4663 78.8268C38.8072 78.8268 38.1572 78.6733 37.5678 78.3785C36.9784 78.0837 36.4657 77.6557 36.0704 77.1283L25.6585 63.2456C25.324 62.7996 25.0807 62.2921 24.9424 61.7521C24.804 61.212 24.7734 60.65 24.8523 60.0981C24.9311 59.5462 25.1179 59.0153 25.402 58.5356C25.686 58.0559 26.0618 57.6369 26.5078 57.3024C26.9538 56.9679 27.4613 56.7246 28.0013 56.5862C28.5414 56.4479 29.1034 56.4173 29.6553 56.4961C30.2071 56.575 30.7381 56.7618 31.2178 57.0458C31.6975 57.3299 32.1165 57.7056 32.451 58.1516L39.2628 67.2333L56.758 40.9908C57.3829 40.0548 58.3539 39.4051 59.4576 39.1847C60.5613 38.9644 61.7074 39.1913 62.6438 39.8156C63.5803 40.4399 64.2305 41.4105 64.4516 42.5141C64.6726 43.6176 64.4464 44.7638 63.8227 45.7006L42.999 76.9362C42.6223 77.5011 42.1156 77.9675 41.5215 78.2962C40.9274 78.6249 40.2631 78.8064 39.5844 78.8254C39.545 78.8261 39.5057 78.8268 39.4663 78.8268Z" fill="#48BB78"/>
<path id="Vector_23" d="M83.9925 23.1839C84.0987 22.4543 83.3344 21.7391 82.2856 21.5865C81.2367 21.4339 80.3003 21.9016 80.1942 22.6313C80.088 23.3609 80.8522 24.0762 81.9011 24.2288C82.95 24.3814 83.8863 23.9136 83.9925 23.1839Z" fill="#E6E6E6"/>
<path id="Vector_24" d="M96.4808 21.9654C96.5869 21.2358 95.8227 20.5206 94.7738 20.368C93.725 20.2154 92.7886 20.6832 92.6825 21.4128C92.5763 22.1425 93.3405 22.8577 94.3894 23.0103C95.4383 23.1629 96.3746 22.6951 96.4808 21.9654Z" fill="#3F3D56"/>
<path id="Vector_25" d="M80.5736 13.0739C80.6797 12.3443 79.9155 11.6291 78.8666 11.4765C77.8177 11.3239 76.8814 11.7917 76.7752 12.5213C76.6691 13.251 77.4333 13.9662 78.4822 14.1188C79.531 14.2714 80.4674 13.8036 80.5736 13.0739Z" fill="#FF6584"/>
<path id="Vector_26" d="M75.1468 8.9327C75.1519 8.26285 74.7783 7.71697 74.3123 7.71344C73.8463 7.70992 73.4644 8.25009 73.4594 8.91994C73.4543 9.58979 73.8279 10.1357 74.2939 10.1392C74.7599 10.1427 75.1418 9.60255 75.1468 8.9327Z" fill="#E6E6E6"/>
<path id="Vector_27" d="M73.307 1.21926C73.3121 0.549408 72.9384 0.00352805 72.4724 4.39321e-06C72.0064 -0.00351927 71.6246 0.536648 71.6195 1.2065C71.6145 1.87635 71.9881 2.42223 72.4541 2.42575C72.9201 2.42928 73.3019 1.88911 73.307 1.21926Z" fill="#3F3D56"/>
<path id="Vector_28" d="M87.6166 14.7944C87.6216 14.1245 87.248 13.5787 86.782 13.5751C86.316 13.5716 85.9342 14.1118 85.9291 14.7816C85.924 15.4515 86.2977 15.9974 86.7637 16.0009C87.2296 16.0044 87.6115 15.4642 87.6166 14.7944Z" fill="#E6E6E6"/>
<path id="Vector_29" d="M81.5814 17.8075C81.5865 17.1376 81.2128 16.5917 80.7468 16.5882C80.2809 16.5847 79.899 17.1249 79.8939 17.7947C79.8889 18.4646 80.2625 19.0104 80.7285 19.0139C81.1945 19.0175 81.5763 18.4773 81.5814 17.8075Z" fill="#FF6584"/>
<path id="Vector_30" d="M89.9828 23.3764C89.9878 22.7066 89.6142 22.1607 89.1482 22.1572C88.6822 22.1537 88.3004 22.6938 88.2953 23.3637C88.2902 24.0335 88.6639 24.5794 89.1299 24.5829C89.5959 24.5864 89.9777 24.0463 89.9828 23.3764Z" fill="#3F3D56"/>
<path id="Vector_31" d="M12.3734 113.597C12.4795 112.867 11.7153 112.152 10.6664 111.999C9.61754 111.847 8.6812 112.315 8.57504 113.044C8.46887 113.774 9.23309 114.489 10.282 114.642C11.3308 114.794 12.2672 114.327 12.3734 113.597Z" fill="#E6E6E6"/>
<path id="Vector_32" d="M24.8616 112.378C24.9678 111.649 24.2036 110.933 23.1547 110.781C22.1058 110.628 21.1695 111.096 21.0633 111.826C20.9572 112.555 21.7214 113.271 22.7702 113.423C23.8191 113.576 24.7555 113.108 24.8616 112.378Z" fill="#3F3D56"/>
<path id="Vector_33" d="M8.95441 103.487C9.06057 102.757 8.29635 102.042 7.24748 101.889C6.1986 101.737 5.26225 102.205 5.15609 102.934C5.04993 103.664 5.81415 104.379 6.86303 104.532C7.91191 104.684 8.84825 104.217 8.95441 103.487Z" fill="#FF6584"/>
<path id="Vector_34" d="M3.5277 99.3457C3.53277 98.6758 3.15912 98.1299 2.69314 98.1264C2.22716 98.1229 1.84529 98.6631 1.84023 99.3329C1.83516 100.003 2.20882 100.549 2.6748 100.552C3.14078 100.556 3.52264 100.016 3.5277 99.3457Z" fill="#E6E6E6"/>
<path id="Vector_35" d="M1.68785 91.6322C1.69292 90.9623 1.31927 90.4164 0.853289 90.4129C0.387307 90.4094 0.00544769 90.9496 0.000382429 91.6194C-0.00468284 92.2893 0.368964 92.8351 0.834946 92.8387C1.30093 92.8422 1.68279 92.302 1.68785 91.6322Z" fill="#3F3D56"/>
<path id="Vector_36" d="M15.9974 105.207C16.0025 104.538 15.6288 103.992 15.1629 103.988C14.6969 103.985 14.315 104.525 14.31 105.195C14.3049 105.864 14.6785 106.41 15.1445 106.414C15.6105 106.417 15.9924 105.877 15.9974 105.207Z" fill="#E6E6E6"/>
<path id="Vector_37" d="M9.96228 108.22C9.96735 107.551 9.59369 107.005 9.12771 107.001C8.66173 106.998 8.27986 107.538 8.2748 108.208C8.26973 108.878 8.64339 109.423 9.10937 109.427C9.57535 109.43 9.95722 108.89 9.96228 108.22Z" fill="#FF6584"/>
<path id="Vector_38" d="M18.3636 113.789C18.3687 113.12 17.995 112.574 17.5291 112.57C17.0631 112.567 16.6812 113.107 16.6762 113.777C16.6711 114.446 17.0447 114.992 17.5107 114.996C17.9767 114.999 18.3586 114.459 18.3636 113.789Z" fill="#3F3D56"/>
</g>
<defs>
<clipPath id="clip0_684_27128">
<rect width="146.008" height="174" fill="white"/>
</clipPath>
</defs>
</svg>
