<svg width="31" height="30" viewBox="0 0 31 30" fill="none" xmlns="http://www.w3.org/2000/svg">
<g id="logos:facebook" clip-path="url(#clip0_572_12573)">
<path id="Vector" d="M30.167 15C30.167 6.71578 23.4512 0 15.167 0C6.88277 0 0.166992 6.71566 0.166992 15C0.166992 22.4869 5.6523 28.6925 12.8232 29.8178V19.3359H9.01465V15H12.8232V11.6953C12.8232 7.93594 15.0627 5.85938 18.4889 5.85938C20.1301 5.85938 21.8467 6.15234 21.8467 6.15234V9.84375H19.9553C18.0918 9.84375 17.5107 11 17.5107 12.1863V15H21.6709L21.0059 19.3359H17.5107V29.8178C24.6817 28.6925 30.167 22.487 30.167 15Z" fill="#1877F2"/>
<path id="Vector_2" d="M21.0059 19.3359L21.6709 15H17.5107V12.1863C17.5107 10.9999 18.0919 9.84375 19.9553 9.84375H21.8467V6.15234C21.8467 6.15234 20.1301 5.85938 18.4889 5.85938C15.0627 5.85938 12.8232 7.93594 12.8232 11.6953V15H9.01465V19.3359H12.8232V29.8178C13.5986 29.9393 14.3822 30.0002 15.167 30C15.9518 30.0002 16.7354 29.9393 17.5107 29.8178V19.3359H21.0059Z" fill="white"/>
</g>
<defs>
<clipPath id="clip0_572_12573">
<rect width="30" height="30" fill="white" transform="translate(0.166992)"/>
</clipPath>
</defs>
</svg>
