<svg width="23" height="24" viewBox="0 0 23 24" fill="none" xmlns="http://www.w3.org/2000/svg">
<path id="Vector" d="M22.147 11.0743C21.6301 10.5792 20.9519 10.2872 20.237 10.2518C19.5221 10.2164 18.8184 10.44 18.2551 10.8817L15.9523 3.91115C15.7601 3.32181 15.4014 2.80068 14.9196 2.41065C14.4378 2.02062 13.8534 1.77834 13.237 1.71307L2.1418 0.510581C1.85423 0.480419 1.56356 0.514938 1.29105 0.611611C1.01854 0.708284 0.77109 0.864666 0.566817 1.06931C0.362544 1.27396 0.206612 1.52169 0.110435 1.79437C0.0142572 2.06706 -0.0197328 2.3578 0.0109524 2.64531L1.21344 13.7379C1.27793 14.3546 1.51991 14.9394 1.91006 15.4213C2.3002 15.9033 2.82176 16.2617 3.41152 16.4532L10.3808 18.7418C9.95412 19.2635 9.72114 19.9168 9.72133 20.5908C9.72372 21.3616 10.031 22.1002 10.5761 22.6453C11.1211 23.1903 11.8597 23.4976 12.6306 23.5C13.4021 23.4975 14.1415 23.1903 14.6877 22.6453L22.1483 15.1861C22.4184 14.916 22.6327 14.5954 22.7789 14.2426C22.925 13.8897 23.0003 13.5115 23.0003 13.1295C23.0003 12.7476 22.925 12.3694 22.7789 12.0165C22.6327 11.6637 22.4184 11.3431 22.1483 11.073L22.147 11.0743ZM3.81235 15.2248C3.45955 15.1082 3.14769 14.8926 2.91388 14.6038C2.68008 14.3149 2.53416 13.965 2.4935 13.5957L1.32981 2.74746L6.51471 7.93236C6.42216 8.20323 6.40713 8.49457 6.47133 8.77353C6.53553 9.05248 6.67639 9.30794 6.87804 9.51111C7.01708 9.65613 7.18368 9.77192 7.36806 9.8517C7.55245 9.93147 7.75091 9.97362 7.95181 9.97567C8.1527 9.97773 8.35198 9.93964 8.53796 9.86365C8.72394 9.78766 8.89287 9.6753 9.03484 9.53315C9.17682 9.39101 9.28898 9.22194 9.36474 9.03587C9.44051 8.8498 9.47835 8.65047 9.47605 8.44958C9.47375 8.24869 9.43136 8.05028 9.35136 7.86599C9.27137 7.6817 9.15537 7.51524 9.01018 7.37637C8.81059 7.17432 8.557 7.03406 8.27976 6.97238C8.00253 6.91069 7.71339 6.9302 7.44696 7.02856L2.24912 1.83073L13.0973 2.99442C13.4677 3.03154 13.8192 3.17616 14.1084 3.4105C14.3977 3.64483 14.6121 3.95864 14.7252 4.31327L17.222 11.8902L11.3906 17.7216L3.81235 15.2248ZM18.952 11.9794C19.1789 11.7546 19.4673 11.6019 19.7808 11.5409C20.0943 11.4798 20.4189 11.513 20.7136 11.6362C21.0082 11.7595 21.2598 11.9673 21.4364 12.2334C21.6131 12.4996 21.7069 12.8121 21.7061 13.1315C21.7059 13.3433 21.6636 13.5529 21.5817 13.7483C21.4998 13.9436 21.3799 14.1207 21.229 14.2693L13.7671 21.7299C13.4596 22.0252 13.0498 22.1901 12.6235 22.1901C12.1971 22.1901 11.7873 22.0252 11.4798 21.7299C11.1807 21.4267 11.013 21.018 11.013 20.5921C11.013 20.1662 11.1807 19.7574 11.4798 19.4542L18.952 11.9794Z" fill="#ED8936"/>
</svg>
