<svg width="25" height="24" viewBox="0 0 25 24" fill="none" xmlns="http://www.w3.org/2000/svg">
<path id="Vector" d="M13.5794 0.00569779C13.3813 -0.0120202 13.1817 0.0116918 12.9933 0.0753244C12.8048 0.138957 12.6317 0.241116 12.485 0.375302C12.3382 0.511066 12.2211 0.675698 12.141 0.858866C12.0608 1.04203 12.0194 1.23979 12.0193 1.43971V6.32016C12.0166 6.65904 12.1347 6.98782 12.3524 7.24753C12.5701 7.50724 12.8732 7.68091 13.2074 7.73738C14.0109 7.87086 14.7603 8.22879 15.3691 8.76987C15.978 9.31095 16.4215 10.0131 16.6484 10.7954C16.8753 11.5777 16.8765 12.4082 16.6517 13.1911C16.427 13.974 15.9854 14.6774 15.3781 15.2202C14.7707 15.763 14.0223 16.123 13.2192 16.2587C12.416 16.3944 11.5909 16.3003 10.8389 15.9872C10.0869 15.6741 9.43882 15.1548 8.9693 14.4892C8.49978 13.8236 8.228 13.0388 8.18531 12.2254C8.12891 11.1286 8.36171 10.2094 8.87532 9.49059C9.07216 9.215 9.16455 8.87837 9.13597 8.5409C9.10739 8.20344 8.9597 7.88714 8.71932 7.64858L5.40368 4.26094C5.26192 4.11893 5.09205 4.00811 4.90495 3.9356C4.71786 3.86308 4.51767 3.83047 4.31724 3.83985C4.1168 3.84922 3.92054 3.90039 3.74103 3.99006C3.56153 4.07972 3.40274 4.20592 3.27486 4.36054C1.35126 6.66545 0.365504 9.60984 0.513583 12.6083C0.661661 15.6068 1.93273 18.4397 4.07407 20.5439C6.31374 22.7666 9.34397 24.0096 12.4994 23.9999H12.671C15.7917 23.9469 18.7698 22.6834 20.9767 20.4763C23.1836 18.2692 24.4467 15.291 24.4995 12.1702C24.5859 5.90496 19.7906 0.561303 13.5794 0.00569779ZM4.01287 4.97495C4.05567 4.92275 4.109 4.88016 4.16938 4.84997C4.22976 4.81978 4.29583 4.80267 4.36327 4.79975H4.38607C4.44815 4.79927 4.50971 4.81111 4.56718 4.83459C4.62465 4.85808 4.67689 4.89273 4.72087 4.93655L8.03651 8.32298C8.11708 8.40112 8.16714 8.50543 8.1777 8.61717C8.18826 8.7289 8.15862 8.84074 8.09411 8.93259C7.56443 9.69462 7.26418 10.5925 7.2289 11.5198H1.46884C1.56743 9.11641 2.46239 6.814 4.01287 4.97495ZM1.47004 12.4798H7.2409C7.35335 13.7091 7.89294 14.8601 8.76591 15.7329C9.63888 16.6056 10.79 17.1449 12.0193 17.2571V23.0279C9.26029 22.9078 6.64646 21.7579 4.69355 19.8053C2.74065 17.8526 1.5905 15.2389 1.47004 12.4798ZM20.2994 19.7999C18.353 21.7597 15.739 22.9133 12.9794 23.0303V17.2583C14.1465 17.1563 15.2454 16.6647 16.0994 15.8627C16.8211 15.1903 17.34 14.3293 17.5973 13.3771C17.8547 12.425 17.8402 11.4198 17.5556 10.4754C17.2709 9.53109 16.7274 8.68535 15.9866 8.03408C15.2459 7.38281 14.3376 6.95203 13.3646 6.79057C13.2559 6.76868 13.1582 6.70987 13.088 6.62413C13.0178 6.53838 12.9794 6.43099 12.9794 6.32016V1.43971C12.9787 1.37201 12.9924 1.30494 13.0194 1.24289C13.0465 1.18085 13.0865 1.12524 13.1366 1.07971C13.1848 1.03561 13.2418 1.00215 13.3038 0.981476C13.3658 0.960804 13.4315 0.953388 13.4966 0.959708C19.2074 1.47091 23.6175 6.38856 23.5371 12.1546C23.5011 15.0288 22.3385 17.774 20.2994 19.7999Z" fill="#2D35F5"/>
</svg>
