<svg width="31" height="30" viewBox="0 0 31 30" fill="none" xmlns="http://www.w3.org/2000/svg">
<g id="skill-icons:instagram" clip-path="url(#clip0_572_12568)">
<g id="Group">
<path id="Vector" d="M23.1357 0H7.19824C3.31499 0 0.166992 3.148 0.166992 7.03125V22.9688C0.166992 26.852 3.31499 30 7.19824 30H23.1357C27.019 30 30.167 26.852 30.167 22.9688V7.03125C30.167 3.148 27.019 0 23.1357 0Z" fill="url(#paint0_radial_572_12568)"/>
<path id="Vector_2" d="M23.1357 0H7.19824C3.31499 0 0.166992 3.148 0.166992 7.03125V22.9688C0.166992 26.852 3.31499 30 7.19824 30H23.1357C27.019 30 30.167 26.852 30.167 22.9688V7.03125C30.167 3.148 27.019 0 23.1357 0Z" fill="url(#paint1_radial_572_12568)"/>
<path id="Vector_3" d="M15.168 3.28125C11.9855 3.28125 11.586 3.2952 10.3361 3.35203C9.08848 3.40922 8.23688 3.60668 7.4918 3.89648C6.72094 4.19578 6.06715 4.59621 5.41582 5.24777C4.76391 5.89922 4.36348 6.55301 4.06324 7.32352C3.77262 8.06883 3.57492 8.92078 3.51879 10.1678C3.46289 11.4178 3.44824 11.8174 3.44824 15.0001C3.44824 18.1828 3.4623 18.581 3.51902 19.8309C3.57645 21.0785 3.77391 21.9301 4.06348 22.6752C4.36301 23.4461 4.76344 24.0998 5.415 24.7512C6.06621 25.4031 6.72 25.8045 7.49027 26.1038C8.23594 26.3936 9.08766 26.591 10.335 26.6482C11.585 26.705 11.9842 26.719 15.1666 26.719C18.3496 26.719 18.7478 26.705 19.9977 26.6482C21.2453 26.591 22.0978 26.3936 22.8435 26.1038C23.614 25.8045 24.2668 25.4031 24.9179 24.7512C25.5698 24.0998 25.9702 23.4461 26.2705 22.6755C26.5586 21.9301 26.7564 21.0783 26.815 19.8312C26.8711 18.5812 26.8857 18.1828 26.8857 15.0001C26.8857 11.8174 26.8711 11.418 26.815 10.168C26.7564 8.92043 26.5586 8.06895 26.2705 7.32387C25.9702 6.55301 25.5698 5.89922 24.9179 5.24777C24.2661 4.59598 23.6142 4.19555 22.8428 3.8966C22.0957 3.60668 21.2436 3.4091 19.9961 3.35203C18.746 3.2952 18.348 3.28125 15.1644 3.28125H15.168ZM14.1168 5.39309C14.4288 5.39262 14.777 5.39309 15.168 5.39309C18.2971 5.39309 18.6679 5.40434 19.9035 5.46047C21.0461 5.51273 21.6662 5.70363 22.0793 5.86406C22.6262 6.07641 23.0161 6.33035 23.426 6.74063C23.8362 7.15078 24.09 7.54137 24.3029 8.08828C24.4634 8.50078 24.6545 9.12094 24.7065 10.2635C24.7627 11.4989 24.7748 11.8699 24.7748 14.9974C24.7748 18.1249 24.7627 18.4961 24.7065 19.7313C24.6543 20.8739 24.4634 21.4941 24.3029 21.9067C24.0906 22.4536 23.8362 22.843 23.426 23.2529C23.0159 23.6631 22.6264 23.9169 22.0793 24.1294C21.6667 24.2905 21.0461 24.4809 19.9035 24.5332C18.6681 24.5893 18.2971 24.6015 15.168 24.6015C12.0389 24.6015 11.668 24.5893 10.4327 24.5332C9.29016 24.4805 8.67 24.2896 8.25656 24.1291C7.70977 23.9167 7.31906 23.6629 6.90891 23.2527C6.49875 22.8425 6.24492 22.4529 6.03199 21.9057C5.87156 21.4931 5.68043 20.873 5.6284 19.7304C5.57227 18.495 5.56102 18.124 5.56102 14.9945C5.56102 11.8651 5.57227 11.496 5.6284 10.2606C5.68066 9.11801 5.87156 8.49785 6.03199 8.08477C6.24445 7.53785 6.49875 7.14727 6.90902 6.73711C7.31918 6.32695 7.70977 6.07301 8.25668 5.8602C8.66977 5.69906 9.29016 5.50863 10.4327 5.45613C11.5138 5.40727 11.9327 5.39262 14.1168 5.39016V5.39309ZM21.4235 7.33887C20.6472 7.33887 20.0173 7.96816 20.0173 8.74465C20.0173 9.52102 20.6472 10.1509 21.4235 10.1509C22.1999 10.1509 22.8298 9.52102 22.8298 8.74465C22.8298 7.96828 22.1999 7.3384 21.4235 7.3384V7.33887ZM15.168 8.98195C11.8446 8.98195 9.15 11.6766 9.15 15.0001C9.15 18.3237 11.8446 21.017 15.168 21.017C18.4916 21.017 21.1853 18.3237 21.1853 15.0001C21.1853 11.6767 18.4914 8.98195 15.1678 8.98195H15.168ZM15.168 11.0938C17.3254 11.0938 19.0744 12.8426 19.0744 15.0001C19.0744 17.1574 17.3254 18.9064 15.168 18.9064C13.0106 18.9064 11.2618 17.1574 11.2618 15.0001C11.2618 12.8426 13.0106 11.0938 15.168 11.0938Z" fill="white"/>
</g>
</g>
<defs>
<radialGradient id="paint0_radial_572_12568" cx="0" cy="0" r="1" gradientUnits="userSpaceOnUse" gradientTransform="translate(8.13574 32.3106) rotate(-90) scale(29.7322 27.6533)">
<stop stop-color="#FFDD55"/>
<stop offset="0.1" stop-color="#FFDD55"/>
<stop offset="0.5" stop-color="#FF543E"/>
<stop offset="1" stop-color="#C837AB"/>
</radialGradient>
<radialGradient id="paint1_radial_572_12568" cx="0" cy="0" r="1" gradientUnits="userSpaceOnUse" gradientTransform="translate(-4.85812 2.16105) rotate(78.681) scale(13.2905 54.7837)">
<stop stop-color="#3771C8"/>
<stop offset="0.128" stop-color="#3771C8"/>
<stop offset="1" stop-color="#6600FF" stop-opacity="0"/>
</radialGradient>
<clipPath id="clip0_572_12568">
<rect width="30" height="30" fill="white" transform="translate(0.166992)"/>
</clipPath>
</defs>
</svg>
