<svg width="43" height="30" viewBox="0 0 43 30" fill="none" xmlns="http://www.w3.org/2000/svg">
<g id="logos:youtube-icon" clip-path="url(#clip0_572_12576)">
<path id="Vector" d="M41.8914 4.67917C41.6466 3.77476 41.1692 2.95024 40.5068 2.28771C39.8443 1.62519 39.0198 1.14777 38.1154 0.903C34.8044 0 21.4787 0 21.4787 0C21.4787 0 8.15236 0.0273333 4.84136 0.930333C3.93694 1.17512 3.11243 1.65256 2.44993 2.31512C1.78743 2.97768 1.31006 3.80223 1.06536 4.70667C0.0638576 10.5897 -0.324643 19.554 1.09286 25.2017C1.33759 26.1061 1.81497 26.9306 2.47747 27.5931C3.13996 28.2556 3.96446 28.7331 4.86886 28.9778C8.17986 29.8808 21.5059 29.8808 21.5059 29.8808C21.5059 29.8808 34.8317 29.8808 38.1425 28.9778C39.047 28.7331 39.8715 28.2557 40.534 27.5932C41.1965 26.9306 41.674 26.1061 41.9187 25.2017C42.975 19.3103 43.3005 10.3515 41.8914 4.67917Z" fill="#FF0000"/>
<path id="Vector_2" d="M17.2373 21.3434L28.292 14.9404L17.2373 8.53735V21.3434Z" fill="white"/>
</g>
<defs>
<clipPath id="clip0_572_12576">
<rect width="42.6667" height="30" fill="white" transform="translate(0.166992)"/>
</clipPath>
</defs>
</svg>
