<svg width="22" height="22" viewBox="0 0 22 22" fill="none" xmlns="http://www.w3.org/2000/svg">
<g id="Vector">
<path d="M10.693 0H12.25C12.4489 0 12.6397 0.0790177 12.7803 0.21967C12.921 0.360322 13 0.551088 13 0.75C13 0.948912 12.921 1.13968 12.7803 1.28033C12.6397 1.42098 12.4489 1.5 12.25 1.5H10.75C8.372 1.5 6.664 1.502 5.364 1.676C4.085 1.848 3.314 2.176 2.744 2.745C2.175 3.315 1.848 4.085 1.676 5.364C1.502 6.664 1.5 8.372 1.5 10.75C1.5 13.128 1.502 14.836 1.676 16.136C1.848 17.415 2.176 18.186 2.745 18.756C3.315 19.325 4.085 19.652 5.364 19.824C6.664 19.998 8.372 20 10.75 20C13.128 20 14.836 19.998 16.136 19.824C17.415 19.652 18.186 19.324 18.756 18.755C19.325 18.185 19.652 17.415 19.824 16.136C19.998 14.836 20 13.128 20 10.75V9.25C20 9.05109 20.079 8.86032 20.2197 8.71967C20.3603 8.57902 20.5511 8.5 20.75 8.5C20.9489 8.5 21.1397 8.57902 21.2803 8.71967C21.421 8.86032 21.5 9.05109 21.5 9.25V10.807C21.5 13.116 21.5 14.925 21.31 16.337C21.116 17.781 20.71 18.921 19.816 19.816C18.921 20.711 17.781 21.116 16.336 21.31C14.925 21.5 13.116 21.5 10.807 21.5H10.693C8.384 21.5 6.575 21.5 5.163 21.31C3.719 21.116 2.579 20.71 1.684 19.816C0.789 18.921 0.384 17.781 0.19 16.336C5.96046e-08 14.925 0 13.116 0 10.807V10.693C0 8.384 5.96046e-08 6.575 0.19 5.163C0.384 3.719 0.79 2.579 1.684 1.684C2.579 0.789 3.719 0.384 5.164 0.19C6.575 5.96046e-08 8.384 0 10.693 0Z" fill="#00BFA6"/>
<path fill-rule="evenodd" clip-rule="evenodd" d="M14 3.75C14 2.75544 14.3951 1.80161 15.0983 1.09835C15.8016 0.395088 16.7554 0 17.75 0C18.7446 0 19.6984 0.395088 20.4017 1.09835C21.1049 1.80161 21.5 2.75544 21.5 3.75C21.5 4.74456 21.1049 5.69839 20.4017 6.40165C19.6984 7.10491 18.7446 7.5 17.75 7.5C16.7554 7.5 15.8016 7.10491 15.0983 6.40165C14.3951 5.69839 14 4.74456 14 3.75ZM17.75 1.5C17.4545 1.5 17.1619 1.5582 16.889 1.67127C16.616 1.78434 16.3679 1.95008 16.159 2.15901C15.9501 2.36794 15.7843 2.61598 15.6713 2.88896C15.5582 3.16194 15.5 3.45453 15.5 3.75C15.5 4.04547 15.5582 4.33806 15.6713 4.61104C15.7843 4.88402 15.9501 5.13206 16.159 5.34099C16.3679 5.54992 16.616 5.71566 16.889 5.82873C17.1619 5.9418 17.4545 6 17.75 6C18.3467 6 18.919 5.76295 19.341 5.34099C19.7629 4.91903 20 4.34674 20 3.75C20 3.15326 19.7629 2.58097 19.341 2.15901C18.919 1.73705 18.3467 1.5 17.75 1.5Z" fill="#00BFA6"/>
<path d="M12.5 8.75C12.5 9.164 12.836 9.5 13.25 9.5H13.94L11.927 11.513C11.9038 11.5363 11.8762 11.5548 11.8458 11.5674C11.8154 11.58 11.7829 11.5864 11.75 11.5864C11.7171 11.5864 11.6846 11.58 11.6542 11.5674C11.6238 11.5548 11.5962 11.5363 11.573 11.513L9.987 9.927C9.65885 9.59908 9.21391 9.41487 8.75 9.41487C8.28609 9.41487 7.84115 9.59908 7.513 9.927L5.22 12.22C5.14631 12.2887 5.08721 12.3715 5.04622 12.4635C5.00523 12.5555 4.98319 12.6548 4.98141 12.7555C4.97963 12.8562 4.99816 12.9562 5.03588 13.0496C5.0736 13.143 5.12974 13.2278 5.20096 13.299C5.27218 13.3703 5.35701 13.4264 5.4504 13.4641C5.54379 13.5018 5.64382 13.5204 5.74452 13.5186C5.84523 13.5168 5.94454 13.4948 6.03654 13.4538C6.12854 13.4128 6.21134 13.3537 6.28 13.28L8.573 10.987C8.59622 10.9637 8.62381 10.9452 8.65418 10.9326C8.68456 10.92 8.71712 10.9136 8.75 10.9136C8.78288 10.9136 8.81544 10.92 8.84582 10.9326C8.87619 10.9452 8.90378 10.9637 8.927 10.987L10.513 12.573C10.8412 12.9009 11.2861 13.0851 11.75 13.0851C12.2139 13.0851 12.6588 12.9009 12.987 12.573L15 10.561V11.25C15 11.4489 15.079 11.6397 15.2197 11.7803C15.3603 11.921 15.5511 12 15.75 12C15.9489 12 16.1397 11.921 16.2803 11.7803C16.421 11.6397 16.5 11.4489 16.5 11.25V8.75C16.5 8.55109 16.421 8.36032 16.2803 8.21967C16.1397 8.07902 15.9489 8 15.75 8H13.25C13.0511 8 12.8603 8.07902 12.7197 8.21967C12.579 8.36032 12.5 8.55109 12.5 8.75Z" fill="#00BFA6"/>
</g>
</svg>
