<svg width="223" height="148" viewBox="0 0 223 148" fill="none" xmlns="http://www.w3.org/2000/svg">
<path d="M79.9902 85.1753C87.6325 71.7498 102.21 61.4412 117.642 62.4343C106.259 74.7961 99.6214 90.7804 98.9035 107.559C98.6501 114.031 99.0431 121.255 94.7402 126.101C92.0629 129.117 87.9706 130.577 83.9469 130.884C79.9231 131.19 75.9002 130.464 71.9301 129.741L70.9671 130.036C70.6005 114.597 72.348 98.6008 79.9902 85.1753Z" fill="#68D391"/>
<path d="M117.665 62.7576C106.253 68.2438 96.5228 77.4063 90.5495 88.5807C89.2581 90.9965 88.1586 93.5595 87.679 96.2694C87.1992 98.9804 87.5344 101.561 88.4616 104.136C89.3093 106.49 90.4493 108.8 90.7092 111.319C90.9832 113.974 90.005 116.456 88.2443 118.426C86.0899 120.837 83.1967 122.331 80.3165 123.693C77.1187 125.206 73.7731 126.727 71.5082 129.55C71.2337 129.893 70.7182 129.447 70.9922 129.106C74.9329 124.193 81.6784 123.27 86.356 119.312C88.5386 117.466 90.1773 114.951 90.0739 112.005C89.9835 109.428 88.8099 107.045 87.931 104.669C87.0081 102.174 86.5478 99.6657 86.8788 97.0058C87.2174 94.2847 88.2188 91.6735 89.4427 89.2352C92.2029 83.7364 95.9803 78.688 100.307 74.324C105.281 69.3078 111.076 65.1781 117.444 62.1136C117.838 61.924 118.056 62.5694 117.665 62.7576Z" fill="white"/>
<path d="M92.2992 84.8461C90.5498 83.5686 89.312 81.7117 88.807 79.607C88.3019 77.5023 88.5625 75.2869 89.5421 73.3563C89.7417 72.9663 90.3578 73.2577 90.158 73.6482C89.2425 75.4442 89 77.508 89.4743 79.4669C89.9486 81.4259 91.1085 83.151 92.7446 84.3309C93.0998 84.5877 92.6524 85.1015 92.2992 84.8461Z" fill="white"/>
<path d="M87.8744 102.999C92.2581 102.36 96.2393 100.093 99.0241 96.6526C99.2998 96.3115 99.8154 96.7567 99.5401 97.0974C96.6354 100.673 92.4875 103.023 87.9243 103.678C87.4893 103.74 87.4418 103.061 87.8744 102.999Z" fill="white"/>
<path d="M105.617 70.1455C106.191 70.7806 106.914 71.2635 107.721 71.5508C108.527 71.838 109.393 71.9206 110.24 71.7912C110.674 71.7236 110.721 72.4028 110.29 72.47C109.354 72.6087 108.398 72.5162 107.506 72.2008C106.613 71.8854 105.812 71.3567 105.172 70.6607C105.106 70.6002 105.066 70.5168 105.059 70.4277C105.053 70.3385 105.08 70.2502 105.137 70.1807C105.196 70.1128 105.28 70.071 105.37 70.0644C105.46 70.0578 105.549 70.0869 105.617 70.1455Z" fill="white"/>
<path d="M148.346 104.786C148.077 104.836 147.807 104.886 147.535 104.941C143.911 105.632 140.35 106.615 136.886 107.881C136.616 107.975 136.345 108.074 136.078 108.175C127.765 111.315 120.108 115.968 113.496 121.899C110.867 124.262 108.422 126.821 106.181 129.554C103.088 133.328 100.034 137.667 95.9918 140.128C95.573 140.389 95.1383 140.625 94.6903 140.833L71.4023 131.186C71.3604 131.138 71.316 131.094 71.2739 131.046L70.3264 130.703C70.4321 130.554 70.5449 130.402 70.6506 130.253C70.7115 130.166 70.7776 130.082 70.8386 129.995C70.8809 129.938 70.9234 129.881 70.9583 129.827C70.9723 129.808 70.9866 129.789 70.9984 129.775C71.0332 129.721 71.0714 129.675 71.104 129.626C71.7323 128.773 72.3676 127.923 73.01 127.076C73.0122 127.07 73.0122 127.071 73.0197 127.067C77.9311 120.625 83.4243 114.536 89.6683 109.473C89.8562 109.321 90.0461 109.163 90.2446 109.015C93.0718 106.749 96.0798 104.717 99.2384 102.94C100.971 101.972 102.752 101.093 104.574 100.305C109.285 98.2788 114.286 97.0051 119.393 96.5307C129.575 95.5865 139.945 97.9047 147.755 104.293C147.954 104.456 148.149 104.618 148.346 104.786Z" fill="#68D391"/>
<path d="M148.172 105.06C135.752 102.579 122.459 104.044 110.953 109.375C108.466 110.528 106.043 111.913 104.026 113.788C102.008 115.664 100.72 117.926 99.9082 120.54C99.1658 122.929 98.6835 125.459 97.3725 127.626C95.9907 129.911 93.7131 131.305 91.1194 131.819C87.946 132.448 84.7354 131.902 81.6143 131.258C78.1489 130.543 74.5607 129.746 71.05 130.638C70.6246 130.747 70.4815 130.081 70.9062 129.973C77.0143 128.42 82.9569 131.738 89.0775 131.391C91.9335 131.229 94.7578 130.207 96.4516 127.792C97.9328 125.68 98.4324 123.072 99.1631 120.646C99.9303 118.1 101.075 115.82 102.943 113.895C104.854 111.926 107.228 110.443 109.675 109.232C115.194 106.501 121.254 104.742 127.34 103.859C134.335 102.844 141.452 103.031 148.384 104.413C148.813 104.499 148.598 105.145 148.172 105.06Z" fill="white"/>
<path d="M114.602 107.446C113.975 105.374 114.106 103.147 114.972 101.163C115.838 99.1789 117.381 97.5666 119.327 96.6142C119.722 96.4228 120.038 97.0259 119.643 97.2176C117.829 98.1011 116.391 99.6031 115.589 101.452C114.787 103.302 114.673 105.376 115.268 107.302C115.397 107.721 114.73 107.862 114.602 107.446Z" fill="white"/>
<path d="M100.125 119.279C104.011 121.404 108.556 121.989 112.854 120.916C113.279 120.809 113.423 121.474 112.997 121.581C108.523 122.689 103.794 122.072 99.7555 119.851C99.3707 119.639 99.7422 119.069 100.125 119.279Z" fill="white"/>
<path d="M134.098 103.715C134.174 104.568 134.46 105.388 134.931 106.102C135.402 106.817 136.043 107.403 136.797 107.809C137.184 108.016 136.812 108.586 136.428 108.381C135.597 107.929 134.889 107.28 134.367 106.492C133.845 105.704 133.524 104.8 133.432 103.859C133.416 103.771 133.434 103.68 133.483 103.605C133.531 103.53 133.607 103.476 133.693 103.455C133.782 103.436 133.874 103.453 133.95 103.502C134.025 103.551 134.079 103.627 134.098 103.715Z" fill="white"/>
<path d="M103.984 120.702C100.723 104.953 96.6462 99.7028 96.6462 99.7028L95.0888 98.4967L93.2159 97.0438L93.2249 96.857L92.7807 96.7062L92.6763 96.6252L92.5053 96.4941L92.4778 96.5236L92.4198 96.5837L83.9445 93.7067L73.1922 90.0593L68.2132 83.5963C67.4023 82.5437 66.3583 81.6929 65.1631 81.1107C63.9678 80.5285 62.6538 80.2306 61.324 80.2405L45.4227 80.358C43.2726 80.3739 41.2063 81.1924 39.6299 82.6526L29.1782 92.3343L12.8925 100.102L12.865 100.074L12.694 100.196L10.1777 101.398L10.2815 101.938L8.72409 103.06C8.72409 103.06 4.64732 107.946 1.38589 122.599C0.556217 126.328 0.147823 134.326 0.000414249 144.182C-0.00699007 144.681 0.0849311 145.176 0.270831 145.639C0.45673 146.101 0.7329 146.523 1.08328 146.878C1.43367 147.233 1.85127 147.515 2.31182 147.708C2.77236 147.9 3.26666 148 3.76596 148H90.7514L101.608 148C102.107 148 102.601 147.9 103.061 147.708C103.522 147.516 103.939 147.234 104.289 146.879C104.64 146.524 104.916 146.103 105.102 145.641C105.288 145.179 105.381 144.684 105.374 144.186C105.23 133.461 104.822 124.745 103.984 120.702Z" fill="#718096"/>
<path d="M115.145 13.7334C111.761 13.7334 108.515 15.076 106.122 17.4658C103.729 19.8556 102.385 23.0969 102.385 26.4766C102.385 29.8563 103.729 33.0975 106.122 35.4873C108.515 37.8771 111.761 39.2197 115.145 39.2197H210.24C213.624 39.2197 216.87 37.8771 219.263 35.4873C221.656 33.0975 223 29.8563 223 26.4766C223 23.0969 221.656 19.8556 219.263 17.4658C216.87 15.076 213.624 13.7334 210.24 13.7334H115.145Z" fill="#E5E5E5"/>
<path d="M115.145 16.3125C112.446 16.3125 109.857 17.3834 107.948 19.2895C106.04 21.1957 104.967 23.781 104.967 26.4767C104.967 29.1724 106.04 31.7577 107.948 33.6639C109.857 35.57 112.446 36.6409 115.145 36.6409H210.24C212.939 36.6409 215.528 35.57 217.437 33.6639C219.345 31.7577 220.418 29.1724 220.418 26.4767C220.418 23.781 219.345 21.1957 217.437 19.2895C215.528 17.3834 212.939 16.3125 210.24 16.3125H115.145Z" fill="white"/>
<path d="M55.8706 74.2746C67.376 74.2746 76.7029 64.9602 76.7029 53.4703C76.7029 41.9804 67.376 32.666 55.8706 32.666C44.3653 32.666 35.0383 41.9804 35.0383 53.4703C35.0383 64.9602 44.3653 74.2746 55.8706 74.2746Z" fill="#9E616A"/>
<path d="M50.5412 73.2561C50.4522 73.0604 50.3634 72.864 50.2749 72.667C50.309 72.6681 50.3428 72.673 50.3769 72.6739L50.5412 73.2561Z" fill="#2F2E41"/>
<path d="M34.4589 33.6124C35.5126 32.773 36.744 32.0007 38.0912 32.0441C39.4382 32.0875 40.8043 33.3025 40.5252 34.6194C42.9996 30.2442 46.938 26.8792 51.6492 25.115C56.3604 23.3508 61.5433 23.3001 66.2882 24.9719C69.6363 26.1516 72.9196 28.5116 73.6887 31.973C73.8862 32.8615 73.9286 33.8358 74.4841 34.5574C75.1846 35.4671 76.5247 35.6729 77.6283 35.3528C77.6393 35.3496 77.6503 35.3464 77.6613 35.3431C77.8477 35.2795 78.049 35.2733 78.239 35.3252C78.429 35.3771 78.5991 35.4847 78.7272 35.6341C78.8553 35.7836 78.9355 35.968 78.9575 36.1635C78.9795 36.359 78.9423 36.5566 78.8506 36.7307L77.9033 38.4951C79.0975 38.761 80.3383 38.7346 81.5201 38.4183C81.7164 38.3669 81.9239 38.3774 82.114 38.4484C82.3041 38.5194 82.4676 38.6473 82.582 38.8147C82.6964 38.9822 82.7561 39.1808 82.7529 39.3835C82.7498 39.5862 82.684 39.7829 82.5644 39.9467C79.4407 44.2297 74.2219 46.9954 68.8963 46.9629C65.1112 46.9398 61.2871 45.6371 57.6033 46.5063C56.1782 46.8426 54.8465 47.4933 53.7061 48.4105C52.5656 49.3278 51.6452 50.4884 51.0125 51.8073C50.3797 53.1261 50.0507 54.5697 50.0495 56.032C50.0483 57.4944 50.3749 58.9385 51.0055 60.2584C49.8738 59.0223 47.6861 59.3149 46.5285 60.5269C45.371 61.739 45.0713 63.548 45.1879 65.2189C45.3663 67.7744 46.3689 70.1825 47.4259 72.5262C38.5641 72.2476 30.1822 66.0395 27.3609 57.6429C24.5277 49.2111 27.497 39.1587 34.4589 33.6124Z" fill="#2F2E41"/>
<path opacity="0.2" d="M20.5044 115.947L26.3474 147.695L29.8533 148L20.5044 115.947Z" fill="black"/>
<path opacity="0.2" d="M84.866 113.553L79.023 147.672L75.5171 148L84.866 113.553Z" fill="black"/>
<path d="M181.378 95.7135C180.257 96.1806 179.088 95.6686 178.598 94.4961C178.1 93.3057 178.565 92.0973 179.704 91.6226C180.842 91.1479 181.99 91.6611 182.496 92.8708C182.994 94.0623 182.534 95.2312 181.378 95.7135Z" fill="#3150F3"/>
<path d="M190.495 95.7135C189.374 96.1806 188.205 95.6686 187.715 94.4961C187.217 93.3057 187.682 92.0973 188.821 91.6226C189.959 91.1479 191.107 91.6611 191.613 92.8708C192.111 94.0623 191.651 95.2312 190.495 95.7135Z" fill="#3150F3"/>
<path d="M199.612 95.7135C198.491 96.1806 197.322 95.6686 196.832 94.4961C196.334 93.3057 196.799 92.0973 197.938 91.6226C199.076 91.1479 200.224 91.6611 200.73 92.8708C201.228 94.0623 200.768 95.2312 199.612 95.7135Z" fill="#3150F3"/>
<path d="M194.111 102.933C192.991 103.4 191.822 102.888 191.331 101.716C190.834 100.525 191.299 99.317 192.437 98.8423C193.575 98.3676 194.723 98.8809 195.229 100.091C195.727 101.282 195.267 102.451 194.111 102.933Z" fill="#3150F3"/>
<path d="M186.2 102.933C185.079 103.4 183.91 102.888 183.42 101.716C182.922 100.525 183.387 99.317 184.525 98.8423C185.664 98.3676 186.812 98.8809 187.318 100.091C187.816 101.282 187.356 102.451 186.2 102.933Z" fill="#3150F3"/>
<path d="M136.15 32.5548H117.23C117.17 32.5552 117.11 32.5437 117.054 32.521C116.999 32.4983 116.948 32.4649 116.906 32.4226C116.863 32.3803 116.829 32.33 116.806 32.2745C116.783 32.2191 116.771 32.1597 116.771 32.0997C116.771 32.0396 116.783 31.9802 116.806 31.9248C116.829 31.8694 116.863 31.819 116.906 31.7767C116.948 31.7344 116.999 31.701 117.054 31.6783C117.11 31.6556 117.17 31.6441 117.23 31.6445H136.15C136.27 31.6454 136.386 31.6937 136.47 31.7789C136.555 31.8642 136.603 31.9795 136.603 32.0997C136.603 32.2198 136.555 32.3351 136.47 32.4204C136.386 32.5056 136.27 32.554 136.15 32.5548Z" fill="#CBD5E0"/>
<path d="M160.152 32.7061H141.232C141.171 32.7065 141.112 32.6951 141.056 32.6724C141.001 32.6497 140.95 32.6162 140.907 32.5739C140.865 32.5316 140.831 32.4813 140.808 32.4259C140.785 32.3705 140.773 32.3111 140.773 32.251C140.773 32.191 140.785 32.1316 140.808 32.0761C140.831 32.0207 140.865 31.9704 140.907 31.9281C140.95 31.8858 141.001 31.8523 141.056 31.8297C141.112 31.807 141.171 31.7955 141.232 31.7959H160.152C160.212 31.7955 160.272 31.807 160.327 31.8297C160.383 31.8523 160.433 31.8858 160.476 31.9281C160.519 31.9704 160.553 32.0207 160.576 32.0761C160.599 32.1316 160.611 32.191 160.611 32.251C160.611 32.3111 160.599 32.3705 160.576 32.4259C160.553 32.4813 160.519 32.5316 160.476 32.5739C160.433 32.6162 160.383 32.6497 160.327 32.6724C160.272 32.6951 160.212 32.7065 160.152 32.7061Z" fill="#CBD5E0"/>
<path d="M184.153 32.8585H165.233C165.113 32.8577 164.997 32.8093 164.913 32.7241C164.828 32.6388 164.78 32.5235 164.78 32.4034C164.78 32.2832 164.828 32.1679 164.913 32.0826C164.997 31.9974 165.113 31.9491 165.233 31.9483H184.153C184.213 31.9478 184.273 31.9593 184.329 31.982C184.384 32.0047 184.435 32.0381 184.477 32.0805C184.52 32.1228 184.554 32.1731 184.577 32.2285C184.6 32.2839 184.612 32.3433 184.612 32.4034C184.612 32.4634 184.6 32.5228 184.577 32.5782C184.554 32.6337 184.52 32.684 184.477 32.7263C184.435 32.7686 184.384 32.802 184.329 32.8247C184.273 32.8474 184.213 32.8589 184.153 32.8585Z" fill="#CBD5E0"/>
<path d="M208.155 33.0098H189.235C189.114 33.009 188.999 32.9607 188.914 32.8754C188.83 32.7902 188.782 32.6749 188.782 32.5547C188.782 32.4345 188.83 32.3193 188.914 32.234C188.999 32.1487 189.114 32.1004 189.235 32.0996H208.155C208.275 32.1004 208.39 32.1487 208.475 32.234C208.56 32.3193 208.608 32.4345 208.608 32.5547C208.608 32.6749 208.56 32.7902 208.475 32.8754C208.39 32.9607 208.275 33.009 208.155 33.0098Z" fill="#CBD5E0"/>
<path d="M126.649 28.3663C128.591 28.3663 130.165 26.794 130.165 24.8545C130.165 22.915 128.591 21.3428 126.649 21.3428C124.706 21.3428 123.132 22.915 123.132 24.8545C123.132 26.794 124.706 28.3663 126.649 28.3663Z" fill="#3150F3"/>
<path d="M150.795 28.3663C152.737 28.3663 154.312 26.794 154.312 24.8545C154.312 22.915 152.737 21.3428 150.795 21.3428C148.853 21.3428 147.279 22.915 147.279 24.8545C147.279 26.794 148.853 28.3663 150.795 28.3663Z" fill="#3150F3"/>
<path d="M174.942 28.3663C176.884 28.3663 178.458 26.794 178.458 24.8545C178.458 22.915 176.884 21.3428 174.942 21.3428C172.999 21.3428 171.425 22.915 171.425 24.8545C171.425 26.794 172.999 28.3663 174.942 28.3663Z" fill="#3150F3"/>
<path d="M199.088 28.3663C201.03 28.3663 202.604 26.794 202.604 24.8545C202.604 22.915 201.03 21.3428 199.088 21.3428C197.146 21.3428 195.572 22.915 195.572 24.8545C195.572 26.794 197.146 28.3663 199.088 28.3663Z" fill="#3150F3"/>
</svg>
