<svg width="292" height="174" viewBox="0 0 292 174" fill="none" xmlns="http://www.w3.org/2000/svg">
<g clip-path="url(#clip0_1755_17549)">
<path d="M222.826 172.033C219.1 168.884 216.837 163.91 217.43 159.068C218.024 154.226 221.7 149.775 226.468 148.747C231.237 147.719 236.673 150.565 238.121 155.223C238.918 146.242 239.837 136.885 244.612 129.237C248.935 122.312 256.423 117.357 264.539 116.471C272.655 115.584 281.199 118.932 286.261 125.338C291.322 131.743 292.561 141.056 289.016 148.41C286.405 153.827 281.594 157.859 276.553 161.139C260.264 171.649 240.728 175.923 221.539 173.174L222.826 172.033Z" fill="#68D391"/>
<path d="M278.238 119.118C271.541 124.572 265.398 130.672 259.897 137.33C251.287 147.714 244.321 159.356 239.239 171.851C238.867 172.763 240.347 173.159 240.715 172.258C249.029 151.951 262.302 134.053 279.32 120.2C280.084 119.578 278.996 118.501 278.238 119.118Z" fill="white"/>
<path d="M93.6898 171.177C98.8075 166.852 101.916 160.021 101.101 153.371C100.286 146.72 95.2364 140.606 88.6868 139.194C82.1371 137.782 74.671 141.691 72.6816 148.089C71.5868 135.754 70.3252 122.902 63.767 112.398C57.8288 102.886 47.5436 96.0801 36.3969 94.8625C25.2501 93.6449 13.5139 98.2435 6.56209 107.042C-0.389755 115.84 -2.09188 128.63 2.777 138.731C6.36374 146.172 12.9718 151.71 19.8954 156.215C41.984 170.588 69.3849 176.582 95.4572 172.745" fill="#68D391"/>
<path d="M17.5862 98.4986C26.7837 105.99 35.2214 114.369 42.7773 123.513C50.3345 132.648 56.9877 142.495 62.6436 152.915C65.8049 158.76 68.6449 164.773 71.1507 170.928C71.6616 172.18 69.6286 172.725 69.1234 171.487C64.6849 160.636 59.1937 150.247 52.7286 140.467C46.2948 130.723 38.931 121.626 30.7406 113.304C26.1081 108.6 21.2204 104.153 16.0996 99.9852C15.05 99.1305 16.5453 97.6509 17.5862 98.4986Z" fill="white"/>
<path d="M208.915 173.619H86.8125V48.339C86.8125 21.6848 108.497 0 135.151 0H160.576C187.23 0 208.915 21.6848 208.915 48.339V173.619Z" fill="#F2F2F2"/>
<path d="M183.491 173.619H86.8127V48.339C86.786 38.1256 90.0201 28.1705 96.0442 19.9228C96.2662 19.6202 96.4877 19.3214 96.7161 19.0259C99.6299 15.2043 103.097 11.8387 107.004 9.04013C107.225 8.87956 107.446 8.72178 107.671 8.56399C110.94 6.30172 114.477 4.45237 118.2 3.05802C118.421 2.97422 118.646 2.89026 118.871 2.80973C122.238 1.60814 125.728 0.785055 129.277 0.355675C129.497 0.325618 129.723 0.302098 129.949 0.278577C133.408 -0.0912315 136.896 -0.0912315 140.355 0.278577C140.58 0.302098 140.806 0.325615 141.029 0.355997C144.577 0.785405 148.066 1.60839 151.433 2.80975C151.658 2.89028 151.883 2.97423 152.104 3.05819C155.782 4.43496 159.276 6.25671 162.51 8.48281C162.735 8.63717 162.96 8.79496 163.182 8.95275C165.371 10.5159 167.428 12.2574 169.331 14.1593C170.857 15.6849 172.28 17.3111 173.588 19.0269C173.816 19.3214 174.037 19.6202 174.259 19.9224C180.283 28.1701 183.517 38.1254 183.491 48.339V173.619Z" fill="#FC8181"/>
<path d="M175.626 117.586C178.582 117.586 180.978 115.19 180.978 112.234C180.978 109.278 178.582 106.881 175.626 106.881C172.67 106.881 170.273 109.278 170.273 112.234C170.273 115.19 172.67 117.586 175.626 117.586Z" fill="#C53030"/>
<path d="M198.912 169.867H194.811L192.859 154.048L198.913 154.048L198.912 169.867Z" fill="#FFB8B8"/>
<path d="M191.878 168.695H199.788V173.675H186.898C186.898 173.021 187.027 172.373 187.278 171.769C187.528 171.165 187.895 170.616 188.357 170.153C188.82 169.691 189.369 169.324 189.973 169.074C190.577 168.824 191.225 168.695 191.878 168.695Z" fill="#2F2E41"/>
<path d="M219.318 169.867H215.217L213.266 154.048L219.319 154.048L219.318 169.867Z" fill="#FFB8B8"/>
<path d="M212.285 168.695H220.194V173.675H207.305C207.305 173.021 207.434 172.373 207.684 171.769C207.934 171.165 208.301 170.616 208.763 170.153C209.226 169.691 209.775 169.324 210.379 169.074C210.983 168.824 211.631 168.695 212.285 168.695Z" fill="#2F2E41"/>
<path d="M178.339 113.294C178.044 112.859 177.848 112.365 177.764 111.846C177.681 111.328 177.712 110.797 177.856 110.292C178 109.786 178.253 109.319 178.597 108.922C178.941 108.525 179.368 108.208 179.848 107.994L193.789 69.5681L200.65 73.3119L184.731 110.033C185.038 110.863 185.029 111.776 184.707 112.6C184.385 113.424 183.771 114.101 182.984 114.503C182.196 114.905 181.288 115.004 180.432 114.781C179.576 114.558 178.831 114.029 178.339 113.294Z" fill="#FFB8B8"/>
<path d="M217.216 120.514C216.761 120.253 216.368 119.895 216.065 119.465C215.763 119.036 215.558 118.545 215.466 118.028C215.374 117.511 215.396 116.979 215.531 116.472C215.666 115.964 215.911 115.492 216.249 115.089L211.93 74.4414L219.737 74.7981L221.532 114.781C222.171 115.392 222.563 116.217 222.635 117.099C222.707 117.98 222.453 118.858 221.921 119.564C221.389 120.271 220.616 120.758 219.749 120.933C218.882 121.108 217.981 120.959 217.216 120.514Z" fill="#FFB8B8"/>
<path d="M204.763 62.4504C209.301 62.4504 212.979 58.7719 212.979 54.2341C212.979 49.6964 209.301 46.0178 204.763 46.0178C200.225 46.0178 196.547 49.6964 196.547 54.2341C196.547 58.7719 200.225 62.4504 204.763 62.4504Z" fill="#FFB8B8"/>
<path d="M217.169 111.27H192.398L192.428 111.077C192.473 110.789 196.843 82.1609 193.62 72.7951C193.296 71.8748 193.325 70.8673 193.7 69.9666C194.074 69.0659 194.769 68.3357 195.65 67.9166C200.257 65.7471 209.101 63.0756 216.565 69.5588C217.663 70.5286 218.521 71.7405 219.07 73.0989C219.619 74.4573 219.845 75.9248 219.729 77.3854L217.169 111.27Z" fill="#6C63FF"/>
<path d="M197.152 86.3915L186 84.129L191.227 71.7416C191.54 70.5418 192.316 69.515 193.385 68.8866C194.454 68.2581 195.728 68.0792 196.929 68.3891C198.129 68.6991 199.158 69.4725 199.789 70.5398C200.42 71.6071 200.602 72.8811 200.295 74.0824L197.152 86.3915Z" fill="#6C63FF"/>
<path d="M211.434 90.5924L210.764 75.2238C210.255 72.3348 211.909 69.6037 214.453 69.1573C216.997 68.7125 219.481 70.7162 219.992 73.6265L222.512 87.9869L211.434 90.5924Z" fill="#6C63FF"/>
<path d="M216.343 109.43C220.329 124.609 220.764 143.909 219.689 164.961L214.336 164.292L204.635 124.149L199.283 164.961L193.261 164.627C191.462 142.538 189.711 123.575 192.592 111.102L216.343 109.43Z" fill="#2F2E41"/>
<path d="M210.177 60.5842C208.644 62.2169 205.797 61.3404 205.598 59.1098C205.582 58.9367 205.583 58.7624 205.601 58.5894C205.704 57.6014 206.275 56.7043 206.138 55.6611C206.107 55.4015 206.01 55.154 205.857 54.9423C204.636 53.3066 201.768 55.6738 200.616 54.1931C199.909 53.2852 200.74 51.8558 200.197 50.841C199.481 49.5017 197.361 50.1624 196.031 49.4289C194.552 48.6129 194.64 46.3429 195.614 44.9621C196.802 43.2782 198.884 42.3797 200.941 42.2502C202.997 42.1207 205.04 42.6767 206.96 43.4249C209.141 44.275 211.304 45.45 212.647 47.3681C214.279 49.7009 214.437 52.837 213.62 55.5646C213.123 57.2239 211.428 59.2508 210.177 60.5842Z" fill="#2F2E41"/>
<path d="M280.993 173.834H34.0143C33.9089 173.834 33.8079 173.792 33.7334 173.717C33.659 173.642 33.6172 173.541 33.6172 173.436C33.6172 173.33 33.659 173.229 33.7334 173.155C33.8079 173.08 33.9089 173.038 34.0143 173.038H280.993C281.098 173.038 281.2 173.08 281.274 173.155C281.348 173.229 281.39 173.33 281.39 173.436C281.39 173.541 281.348 173.642 281.274 173.717C281.2 173.792 281.098 173.834 280.993 173.834Z" fill="#3F3D56"/>
<path d="M156.889 137.323H113.401C112.828 137.326 112.278 137.102 111.87 136.699C111.462 136.297 111.231 135.75 111.227 135.177V38.1075C111.231 37.5348 111.462 36.9872 111.87 36.5849C112.278 36.1826 112.828 35.9584 113.401 35.9615H156.889C157.462 35.9584 158.013 36.1826 158.42 36.5849C158.828 36.9872 159.059 37.5348 159.064 38.1075V135.177C159.059 135.75 158.828 136.297 158.42 136.699C158.013 137.102 157.462 137.326 156.889 137.323Z" fill="white"/>
<path d="M159.064 67.3701H111.227V68.0392H159.064V67.3701Z" fill="#CCCCCC"/>
<path d="M159.236 105.543H111.398V106.212H159.236V105.543Z" fill="#CCCCCC"/>
<path d="M126.95 35.9617H126.281V137.658H126.95V35.9617Z" fill="#CCCCCC"/>
<path d="M143.677 35.9617H143.008V137.658H143.677V35.9617Z" fill="#CCCCCC"/>
</g>
<defs>
<clipPath id="clip0_1755_17549">
<rect width="291.038" height="174" fill="white"/>
</clipPath>
</defs>
</svg>
