<svg width="231" height="174" viewBox="0 0 231 174" fill="none" xmlns="http://www.w3.org/2000/svg">
<g id="undraw_order_confirmed_re_g0if (4) 1" clip-path="url(#clip0_1329_14949)">
<path id="Vector" d="M92.0392 36.0836H91.2001V13.2281C91.2001 11.491 90.856 9.77086 90.1874 8.16595C89.5188 6.56104 88.5388 5.10278 87.3034 3.87444C86.068 2.64609 84.6014 1.67171 82.9873 1.00694C81.3731 0.342159 79.6431 1.47184e-06 77.896 0H29.1953C25.6668 -6.68805e-06 22.2828 1.39366 19.7878 3.87441C17.2928 6.35515 15.8911 9.71978 15.8911 13.2281V138.615C15.8911 140.352 16.2352 142.072 16.9038 143.677C17.5724 145.282 18.5524 146.74 19.7878 147.969C21.0232 149.197 22.4898 150.171 24.104 150.836C25.7181 151.501 27.4481 151.843 29.1952 151.843H77.8959C81.4244 151.843 84.8084 150.449 87.3034 147.969C89.7984 145.488 91.2001 142.123 91.2001 138.615V52.3525H92.0392V36.0836Z" fill="#3F3D56"/>
<path id="Vector_2" d="M78.4331 3.44153H72.0761C72.3684 4.15417 72.48 4.92735 72.401 5.69298C72.322 6.4586 72.0549 7.19316 71.6231 7.83195C71.1914 8.47073 70.6082 8.99414 69.9251 9.35607C69.242 9.71799 68.4798 9.90732 67.7057 9.90738H39.8057C39.0317 9.90732 38.2695 9.71799 37.5864 9.35607C36.9032 8.99415 36.3201 8.47074 35.8883 7.83195C35.4566 7.19316 35.1894 6.4586 35.1104 5.69298C35.0315 4.92736 35.1431 4.15417 35.4354 3.44153H29.4979C28.1932 3.44153 26.9012 3.69705 25.6958 4.19349C24.4904 4.68994 23.3951 5.41759 22.4725 6.3349C21.5499 7.25222 20.8181 8.34123 20.3188 9.53975C19.8195 10.7383 19.5625 12.0229 19.5625 13.3201V138.523C19.5625 139.82 19.8195 141.105 20.3188 142.303C20.8181 143.502 21.5499 144.591 22.4725 145.508C23.3951 146.426 24.4904 147.153 25.6958 147.65C26.9012 148.146 28.1931 148.402 29.4979 148.402H78.4331C79.7379 148.402 81.0298 148.146 82.2352 147.65C83.4406 147.153 84.5359 146.426 85.4585 145.508C86.3811 144.591 87.1129 143.502 87.6122 142.303C88.1115 141.105 88.3685 139.82 88.3685 138.523V13.3201C88.3685 12.0229 88.1115 10.7383 87.6122 9.53975C87.1129 8.34123 86.3811 7.25222 85.4585 6.3349C84.5359 5.41759 83.4406 4.68994 82.2352 4.19349C81.0298 3.69705 79.7379 3.44153 78.4331 3.44153Z" fill="white"/>
<path id="Vector_3" d="M107.649 151.865H0.281804C0.207065 151.865 0.135387 151.835 0.0825381 151.783C0.0296897 151.73 0 151.659 0 151.585C0 151.51 0.0296897 151.439 0.0825381 151.386C0.135387 151.334 0.207065 151.304 0.281804 151.304H107.649C107.724 151.304 107.795 151.334 107.848 151.386C107.901 151.439 107.931 151.51 107.931 151.585C107.931 151.659 107.901 151.73 107.848 151.783C107.795 151.835 107.724 151.865 107.649 151.865Z" fill="#CBCBCB"/>
<path id="Ellipse 44" d="M53.9652 96.8571C67.1081 96.8571 77.7624 86.2636 77.7624 73.1959C77.7624 60.1281 67.1081 49.5346 53.9652 49.5346C40.8224 49.5346 30.168 60.1281 30.168 73.1959C30.168 86.2636 40.8224 96.8571 53.9652 96.8571Z" fill="#48BB78"/>
<path id="Path 395" d="M51.6071 82.222C51.0717 82.2229 50.5506 82.0506 50.1222 81.7313L50.0957 81.7115L44.503 77.4577C44.244 77.2603 44.0266 77.0141 43.8633 76.7331C43.7 76.4521 43.5939 76.1419 43.5512 75.8202C43.5084 75.4985 43.5299 75.1715 43.6142 74.858C43.6985 74.5446 43.8441 74.2506 44.0427 73.9931C44.2413 73.7356 44.4889 73.5194 44.7715 73.3571C45.0541 73.1947 45.3661 73.0892 45.6897 73.0467C46.0132 73.0042 46.3421 73.0255 46.6573 73.1094C46.9726 73.1932 47.2682 73.338 47.5273 73.5355L51.1497 76.2975L59.7099 65.1937C59.9083 64.9363 60.1559 64.7202 60.4384 64.5579C60.7208 64.3956 61.0327 64.2902 61.3561 64.2477C61.6796 64.2052 62.0082 64.2265 62.3234 64.3103C62.6386 64.3942 62.934 64.5389 63.193 64.7362L63.1937 64.7368L63.1405 64.8101L63.1951 64.7368C63.7175 65.1359 64.0592 65.7248 64.1454 66.3742C64.2315 67.0236 64.055 67.6805 63.6546 68.2007L53.5861 81.2554C53.3531 81.5561 53.0536 81.7995 52.7108 81.9667C52.368 82.1338 51.9911 82.2202 51.6092 82.219L51.6071 82.222Z" fill="white"/>
<path id="Vector_4" d="M195.641 154.19C195.93 153.725 196.271 153.293 196.657 152.903C196.816 152.739 196.984 152.584 197.157 152.434C198.209 151.503 199.492 150.867 200.873 150.592C202.254 150.317 203.684 150.413 205.016 150.87C206.347 151.326 207.532 152.128 208.449 153.191C209.366 154.254 209.982 155.541 210.233 156.919C211.395 152.645 208.37 148.436 205.328 145.202C202.285 141.97 198.806 138.424 198.824 133.995C198.832 131.531 200.045 129.332 201.875 127.702C201.932 127.653 201.988 127.603 202.046 127.556C204.259 125.67 207.105 124.683 210.018 124.793C215.428 125.082 220.152 128.697 223.433 132.986C228.713 139.886 231.027 149.572 227.33 157.427C224.079 164.336 217.144 168.438 210.066 171.736C209.077 172.197 208.091 172.644 207.107 173.077C207.1 173.078 207.093 173.083 207.086 173.085C207.039 173.105 206.992 173.126 206.947 173.147C206.744 173.236 206.541 173.326 206.34 173.414L206.433 173.474L206.724 173.662C206.623 173.601 206.523 173.542 206.422 173.481C206.392 173.463 206.36 173.446 206.331 173.427C202.854 171.353 199.33 169.159 196.928 165.921C194.437 162.56 193.436 157.744 195.641 154.19Z" fill="#9AE6B4"/>
<path id="Vector_5" d="M218.834 146.383C219.604 148.124 220.114 149.968 220.349 151.855C220.533 153.538 220.464 155.24 220.143 156.902C219.452 160.319 217.947 163.521 215.753 166.239C214.098 168.302 212.187 170.149 210.066 171.736C209.077 172.197 208.091 172.644 207.107 173.077C207.1 173.078 207.093 173.083 207.086 173.085C207.039 173.105 206.992 173.126 206.947 173.147C206.744 173.236 206.541 173.326 206.339 173.414L206.433 173.474L206.724 173.662C206.623 173.601 206.523 173.542 206.422 173.481C206.392 173.463 206.36 173.446 206.33 173.427C207.095 170.766 207.208 167.962 206.658 165.249C206.109 162.536 204.913 159.994 203.172 157.835C201.422 155.704 199.189 154.014 196.657 152.903C196.816 152.739 196.984 152.584 197.157 152.434C198.132 152.879 199.066 153.409 199.947 154.018C203.1 156.185 205.467 159.303 206.699 162.912C207.799 166.185 207.936 169.703 207.095 173.051C207.269 172.938 207.445 172.821 207.615 172.706C210.853 170.534 213.838 167.926 216.086 164.728C218.025 162.026 219.266 158.89 219.699 155.598C220.13 152.002 219.225 148.466 217.611 145.258C215.828 141.825 213.581 138.651 210.933 135.824C208.273 132.918 205.266 130.347 201.978 128.168C201.904 128.118 201.852 128.042 201.833 127.956C201.814 127.869 201.829 127.778 201.875 127.702C201.91 127.633 201.972 127.58 202.046 127.556C202.083 127.546 202.123 127.545 202.161 127.553C202.199 127.56 202.234 127.577 202.265 127.6C202.671 127.869 203.074 128.141 203.471 128.421C206.782 130.752 209.789 133.483 212.423 136.551C214.968 139.508 217.284 142.794 218.834 146.383Z" fill="white"/>
<path id="Ellipse 44_2" d="M147.959 10.9865C150.75 10.9865 153.013 8.73676 153.013 5.96153C153.013 3.18629 150.75 0.936523 147.959 0.936523C145.167 0.936523 142.905 3.18629 142.905 5.96153C142.905 8.73676 145.167 10.9865 147.959 10.9865Z" fill="#F1F1F1"/>
<path id="Ellipse 44_3" d="M210.801 78.2329C212.503 78.2329 213.882 76.8612 213.882 75.1692C213.882 73.4772 212.503 72.1056 210.801 72.1056C209.099 72.1056 207.72 73.4772 207.72 75.1692C207.72 76.8612 209.099 78.2329 210.801 78.2329Z" fill="#F1F1F1"/>
<path id="Ellipse 44_4" d="M120.624 86.6387C122.325 86.6387 123.705 85.2671 123.705 83.5751C123.705 81.8831 122.325 80.5114 120.624 80.5114C118.922 80.5114 117.542 81.8831 117.542 83.5751C117.542 85.2671 118.922 86.6387 120.624 86.6387Z" fill="#F1F1F1"/>
<path id="Vector_6" d="M122.363 174H229.73C229.805 174 229.877 173.97 229.93 173.918C229.983 173.865 230.012 173.794 230.012 173.72C230.012 173.645 229.983 173.574 229.93 173.522C229.877 173.469 229.805 173.44 229.73 173.44H122.363C122.289 173.44 122.217 173.469 122.164 173.522C122.111 173.574 122.082 173.645 122.082 173.72C122.082 173.794 122.111 173.865 122.164 173.918C122.217 173.97 122.289 174 122.363 174Z" fill="#CBCBCB"/>
<path id="Vector_7" d="M217.882 27.0764C218.023 26.0812 217.792 25.0692 217.232 24.232C216.673 23.3949 215.824 22.7909 214.847 22.5344C213.869 22.2779 212.831 22.3868 211.929 22.8404C211.027 23.294 210.324 24.0609 209.953 24.9957L201.24 34.9269L203.797 42.0261L212.559 30.4218C213.131 30.6039 213.735 30.6592 214.331 30.5837C214.927 30.5082 215.498 30.3037 216.006 29.9848C216.513 29.6658 216.944 29.2401 217.268 28.7376C217.593 28.2351 217.802 27.6681 217.882 27.0764Z" fill="#FFB7B7"/>
<path id="Vector_8" d="M181.767 65.7191L210.688 35.0298L206.787 28.8633L170.513 59.3662L181.767 65.7191Z" fill="#3F3D56"/>
<path id="Vector_9" d="M175.312 47.0725C180.915 47.0725 185.457 42.5564 185.457 36.9855C185.457 31.4146 180.915 26.8986 175.312 26.8986C169.709 26.8986 165.167 31.4146 165.167 36.9855C165.167 42.5564 169.709 47.0725 175.312 47.0725Z" fill="#2F2E41"/>
<path id="Vector_10" d="M176.127 31.2873C178.31 29.0862 180.952 27.3877 183.867 26.3113C185.737 25.6222 187.774 25.1964 189.73 25.5878C191.685 25.9791 193.535 27.3244 194.081 29.2325C194.527 30.7927 194.066 32.4725 193.374 33.9412C192.681 35.41 191.757 36.7719 191.197 38.2954C190.626 39.8499 190.454 41.5217 190.697 43.159C190.94 44.7963 191.591 46.3473 192.59 47.6711C193.589 48.9949 194.905 50.0497 196.418 50.7396C197.931 51.4296 199.593 51.7329 201.254 51.6221C199.333 51.8783 197.561 52.7762 195.683 53.2541C193.804 53.7321 191.587 53.6997 190.191 52.3616C188.715 50.946 188.685 48.6443 188.756 46.6058C188.863 43.5755 188.969 40.5452 189.075 37.5149C189.129 35.9695 189.175 34.3746 188.615 32.9322C188.054 31.4898 186.722 30.2268 185.167 30.2399C183.988 30.2498 182.945 30.9598 182 31.6599C181.055 32.3601 180.054 33.107 178.88 33.2112C177.706 33.3153 176.366 32.4514 176.453 31.2828L176.127 31.2873Z" fill="#2F2E41"/>
<path id="Vector_11" d="M136.781 104.715C135.807 104.984 134.768 104.888 133.86 104.446C132.952 104.004 132.239 103.246 131.856 102.316C131.472 101.386 131.445 100.349 131.779 99.4006C132.114 98.4522 132.787 97.6587 133.67 97.1705L142.434 87.2842L149.847 88.8766L139.421 99.0303C139.678 99.5701 139.812 100.159 139.814 100.756C139.817 101.353 139.688 101.943 139.436 102.485C139.184 103.027 138.816 103.508 138.357 103.893C137.899 104.278 137.361 104.559 136.781 104.715Z" fill="#FFB7B7"/>
<path id="Vector_12" d="M165.615 69.3212L143.771 96.584L137.113 93.5445L162.788 53.8005L165.615 69.3212Z" fill="#3F3D56"/>
<path id="Vector_13" d="M148.186 151.644L142.98 151.562L143.606 169.205H148.185L148.186 151.644Z" fill="#FFB7B7"/>
<path id="Vector_14" d="M149.353 167.719L140.335 167.718H140.335C138.811 167.718 137.349 168.32 136.271 169.392C135.194 170.464 134.588 171.917 134.588 173.432V173.618L149.353 173.619L149.353 167.719Z" fill="#2F2E41"/>
<path id="Vector_15" d="M182.655 146.964L176.968 150.595L188.344 164.202L192.197 161.742L182.655 146.964Z" fill="#FFB7B7"/>
<path id="Vector_16" d="M192.373 159.864L184.784 164.708L184.783 164.708C183.501 165.527 182.598 166.819 182.273 168.3C181.949 169.78 182.229 171.329 183.052 172.604L183.153 172.76L195.578 164.829L192.373 159.864Z" fill="#2F2E41"/>
<path id="Vector_17" d="M184.681 93.0914C184.681 93.0914 172.045 51.363 167.984 50.7991C163.923 50.2352 157.38 61.5061 157.38 61.5061C148.897 72.2679 140.15 107.127 140.15 107.127C140.15 107.127 154.732 108.035 165.392 113.674C176.052 119.313 188.632 113.388 188.632 113.388L184.681 93.0914Z" fill="#3F3D56"/>
<path id="Vector_18" opacity="0.1" d="M184.681 93.0914C184.681 93.0914 172.045 51.363 167.984 50.7991C163.923 50.2352 159.042 61.6205 159.042 61.6205C154.815 78.9925 140.15 107.127 140.15 107.127C140.15 107.127 154.732 108.035 165.392 113.674C176.052 119.313 188.632 113.388 188.632 113.388L184.681 93.0914Z" fill="black"/>
<path id="Vector_19" d="M174.314 80.6065V101.575L176.796 131.949L189.196 154.925L183.278 159.128L166.37 137.273L159.682 115.572L149.18 163.611L141.289 163.05L146.769 96.4453L157.168 77.6976L174.314 80.6065Z" fill="#2F2E41"/>
<path id="Vector_20" d="M161.574 60.3255C157.629 64.2482 161.293 68.4511 161.293 68.4511L156.784 78.5381L174.537 83.3014L180.742 55.7364L176.515 51.2533C168.06 50.9732 168.056 50.799 168.056 50.799C166.575 52.2402 161.574 60.3255 161.574 60.3255Z" fill="#6C63FF"/>
<path id="Vector_21" d="M181.456 52.8808C180.65 52.289 179.734 51.8621 178.76 51.625C177.787 51.3878 176.776 51.345 175.786 51.4991C174.795 51.6532 173.846 52.0011 172.992 52.5227C172.138 53.0442 171.397 53.7291 170.811 54.5376C166.347 60.7165 162.221 70.6938 167.907 83.1374C177.037 103.118 184.982 113.346 188.212 113.345C188.353 113.346 188.493 113.324 188.627 113.28C190.615 112.61 193.49 109.265 194.01 106.317C194.197 105.262 194.152 103.792 192.883 102.783C189.238 99.884 182.694 90.8575 180.653 78.9766C179.524 72.4118 181.712 66.4318 183.746 62.5714C184.605 60.974 184.857 59.1223 184.454 57.3557C184.052 55.589 183.022 54.0258 181.555 52.9526L181.456 52.8808Z" fill="#3F3D56"/>
<path id="Vector_22" d="M175.834 46.0815C179.453 44.1145 180.783 39.603 178.805 36.0047C176.826 32.4065 172.289 31.0841 168.67 33.0511C165.051 35.018 163.721 39.5296 165.699 43.1278C167.678 46.7261 172.215 48.0485 175.834 46.0815Z" fill="#FFB7B7"/>
<path id="Vector_23" d="M161.75 39.0049H172.533L172.643 37.4656L173.196 39.0049H174.857L175.076 35.954L176.172 39.0049H179.385V38.8537C179.382 36.7297 178.532 34.6934 177.022 33.1915C175.511 31.6896 173.463 30.8448 171.327 30.8424H169.807C167.671 30.8448 165.623 31.6896 164.112 33.1915C162.602 34.6934 161.752 36.7297 161.75 38.8537V39.0049Z" fill="#2F2E41"/>
<path id="Vector_24" d="M177.755 44.5379L182.357 43.0533V31.942H173.665L173.88 32.1556C176.874 35.1288 180.204 45.6769 177.755 44.5379Z" fill="#2F2E41"/>
</g>
<defs>
<clipPath id="clip0_1329_14949">
<rect width="230.012" height="174" fill="white"/>
</clipPath>
</defs>
</svg>
