<svg width="240" height="174" viewBox="0 0 240 174" fill="none" xmlns="http://www.w3.org/2000/svg">
<g id="undraw_attached_file_re_0n9b 1" clip-path="url(#clip0_805_10609)">
<path id="Vector" d="M202.496 78.6561L178.977 75.7564L180.265 55.1367H202.496V78.6561Z" fill="#FFB6B6"/>
<g id="Group 234">
<path id="Vector_2" d="M215.88 103.852C215.511 103.851 215.15 103.742 214.841 103.539C214.533 103.335 214.291 103.046 214.145 102.707L210.879 95.0873L220.559 95.121L227.21 88.0874L230.4 95.535C230.593 95.9913 230.6 96.5052 230.419 96.9665C230.238 97.4278 229.883 97.7999 229.431 98.003L216.646 103.688C216.405 103.796 216.144 103.851 215.88 103.852Z" fill="#E6E6E6"/>
<path id="Vector_3" d="M219.09 96.0813C219.009 96.0813 218.929 96.0789 218.848 96.0743L211.07 95.6342L210.859 95.1619L211.006 95.0962L227.184 87.8923L227.395 88.3649L222.446 94.4807C222.04 94.9801 221.529 95.3829 220.948 95.6598C220.368 95.9366 219.733 96.0806 219.09 96.0813Z" fill="#CCCCCC"/>
</g>
<g id="Group 231">
<path id="Path 3126" d="M205.39 25.5392L182.427 25.8262C181.995 25.8257 181.582 25.6543 181.278 25.3495C180.973 25.0447 180.801 24.6315 180.801 24.2005V16.6131C180.801 13.4031 182.076 10.3245 184.346 8.05466C186.616 5.78483 189.694 4.50964 192.904 4.50964C196.114 4.50964 199.193 5.78483 201.463 8.05466C203.732 10.3245 205.008 13.4031 205.008 16.6131L207.016 23.9134C207.016 24.3444 206.844 24.7577 206.539 25.0624C206.235 25.3672 205.821 25.5387 205.39 25.5392Z" fill="#2F2E41"/>
<path id="Path 3127" d="M216.631 93.0005C216.249 92.6546 215.947 92.2292 215.747 91.7541C215.547 91.2791 215.454 90.766 215.474 90.2509C215.493 89.7359 215.626 89.2315 215.862 88.7732C216.098 88.3149 216.431 87.9139 216.839 87.5985L212.844 75.7241L219.138 77.3875L221.968 88.4085C222.455 89.1283 222.661 90.0021 222.546 90.8637C222.431 91.7254 222.004 92.5147 221.345 93.0816C220.686 93.6486 219.841 93.9536 218.972 93.9386C218.103 93.9237 217.27 93.5898 216.631 93.0005Z" fill="#FFB6B6"/>
<path id="Path 3128" d="M189.405 169.382L184.691 168.617L185.398 150.073L192.355 151.201L189.405 169.382Z" fill="#FFB6B6"/>
<path id="Path 3130" d="M212.895 159.551L208.632 161.702L197.34 145.315L203.632 142.141L212.895 159.551Z" fill="#FFB6B6"/>
<path id="Ellipse 597" d="M192.804 25.7475C197.433 25.7475 201.186 21.9948 201.186 17.3656C201.186 12.7364 197.433 8.98364 192.804 8.98364C188.175 8.98364 184.422 12.7364 184.422 17.3656C184.422 21.9948 188.175 25.7475 192.804 25.7475Z" fill="#FFB8B8"/>
<path id="Path 3132" d="M199.441 153.592L179.81 103.537C172.785 84.346 179.062 71.1194 179.126 70.9883L179.159 70.9238L179.226 70.8993C180.032 74.0368 198.309 73.8232 202.498 68.9905C204.942 71.0441 208.196 75.8793 208.893 81.6573C209.622 87.8561 209.069 94.1384 207.27 100.115L199.538 126.328L209.104 147.879L199.441 153.592Z" fill="#2F2E41"/>
<path id="Path 3133" d="M189.975 122.544L182.887 158.485L192.327 160.265L198.266 129.155L189.975 122.544Z" fill="#2F2E41"/>
<path id="Vector_4" d="M179.621 61.2582C181.131 61.6616 196.058 67.8126 203.14 61.5804L208.697 34.142L202.039 32.042L199.716 29.2166C199.464 28.9102 199.147 28.6644 198.787 28.4975C198.428 28.3306 198.035 28.2469 197.639 28.2526L189.379 28.363C189.014 28.3683 188.653 28.4491 188.321 28.6003C187.988 28.7515 187.69 28.9699 187.446 29.2416L184.8 32.1921L178.824 33.5829L179.621 61.2582Z" fill="#6C63FF"/>
<path id="Path 3135" d="M206.164 36.2822L207.973 33.8727C207.973 33.8727 211.288 34.7438 212.973 39.4944C214.657 44.245 221.558 82.2004 221.558 82.2004L214.127 85.6509L204.062 52.1065L206.164 36.2822Z" fill="#6C63FF"/>
<path id="Path 3136" d="M146.612 81.483C146.682 80.9724 146.863 80.4834 147.143 80.0505C147.422 79.6175 147.794 79.2512 148.23 78.9772C148.667 78.7032 149.158 78.5282 149.669 78.4646C150.181 78.4011 150.7 78.4504 151.191 78.6092L158.744 68.6138L160.919 74.7501L153.413 83.3011C153.092 84.1086 152.487 84.7704 151.711 85.1607C150.935 85.551 150.042 85.6427 149.203 85.4184C148.364 85.194 147.636 84.6693 147.158 83.9438C146.681 83.2183 146.486 82.3426 146.612 81.483Z" fill="#FFB6B6"/>
<path id="Path 3137" d="M181.481 35.7503L178.978 33.5504C178.978 33.5504 176.356 34.2118 174.672 38.9624C172.988 43.713 151.488 75.5624 151.488 75.5624L158.92 79.013L183.583 51.5733L181.481 35.7503Z" fill="#6C63FF"/>
<path id="Path 3159" d="M201.539 16.8127H189.823C189.603 16.8124 189.39 16.7319 189.225 16.5863C189.06 16.4406 188.954 16.2398 188.927 16.0214L188.775 14.808C188.76 14.6915 188.708 14.5829 188.626 14.4986C188.544 14.4143 188.437 14.3588 188.321 14.3407C188.205 14.3225 188.086 14.3425 187.982 14.3978C187.879 14.453 187.796 14.5405 187.746 14.647L186.978 16.2914C186.905 16.4468 186.789 16.5783 186.644 16.6705C186.499 16.7628 186.331 16.8119 186.159 16.8123H184.38C184.141 16.8127 183.911 16.718 183.742 16.5491C183.572 16.3801 183.477 16.1508 183.477 15.9116C183.477 15.882 183.478 15.8524 183.481 15.8229L184.183 8.49358C184.197 8.33686 184.253 8.18671 184.343 8.05779C184.434 7.92887 184.556 7.82558 184.698 7.75803C190.063 5.25338 195.504 5.2566 200.87 7.7677C201.006 7.83169 201.124 7.9286 201.213 8.04966C201.302 8.17072 201.36 8.31211 201.381 8.46104L202.432 15.7807C202.45 15.9088 202.441 16.0395 202.405 16.1637C202.368 16.2879 202.305 16.4028 202.221 16.5006C202.136 16.5984 202.031 16.6768 201.913 16.7305C201.795 16.7842 201.667 16.8119 201.538 16.8117L201.539 16.8127Z" fill="#2F2E41"/>
</g>
<path id="Path 3114" d="M12.5556 5.79797C12.1482 5.79755 11.7572 5.95872 11.4685 6.24616C11.1797 6.53359 11.0167 6.92381 11.0153 7.33124L10.6367 171.786C10.6363 172.193 10.7975 172.584 11.0849 172.873C11.3723 173.162 11.7626 173.325 12.17 173.326L144.656 173.631C145.063 173.632 145.454 173.47 145.743 173.183C146.032 172.895 146.195 172.505 146.196 172.097L146.575 7.64279C146.575 7.2353 146.414 6.84429 146.126 6.55551C145.839 6.26674 145.449 6.1038 145.041 6.10244L12.5556 5.79797Z" fill="#E6E6E6"/>
<path id="Path 3115" d="M17.4651 10.7278C17.0576 10.7274 16.6667 10.8885 16.3779 11.176C16.0891 11.4634 15.9262 11.8536 15.9247 12.261L15.5703 166.879C15.5699 167.287 15.7311 167.678 16.0185 167.966C16.3059 168.255 16.6962 168.418 17.1036 168.42L139.753 168.702C140.16 168.702 140.551 168.541 140.84 168.254C141.129 167.966 141.292 167.576 141.293 167.168L141.648 12.5504C141.648 12.1429 141.487 11.7519 141.199 11.4631C140.912 11.1743 140.521 11.0114 140.114 11.01L17.4651 10.7278Z" fill="white"/>
<path id="Path 3116" d="M123.822 77.8691L33.4493 77.6613C32.8425 77.6529 32.2635 77.4055 31.8379 76.973C31.4123 76.5404 31.1744 75.9575 31.1758 75.3507C31.1772 74.7438 31.4178 74.162 31.8454 73.7314C32.273 73.3008 32.8531 73.0562 33.4599 73.0505L123.832 73.2587C124.439 73.2671 125.018 73.5144 125.444 73.947C125.869 74.3795 126.107 74.9625 126.106 75.5693C126.104 76.1761 125.864 76.7579 125.436 77.1885C125.008 77.6191 124.428 77.8638 123.822 77.8694V77.8691Z" fill="#E6E6E6"/>
<path id="Path 3117" d="M124.695 34.9127L64.7391 34.7748C63.8943 34.7729 63.212 33.739 63.2149 32.4657C63.2178 31.1924 63.905 30.1618 64.7497 30.1637L124.706 30.3016C125.551 30.3035 126.233 31.3374 126.23 32.6107C126.227 33.8839 125.54 34.9159 124.695 34.9127Z" fill="#E6E6E6"/>
<path id="Path 3118" d="M124.664 48.1306L64.7078 47.9927C63.8631 47.9907 63.1807 46.9569 63.1836 45.6836C63.1865 44.4103 63.8737 43.3797 64.7185 43.3816L124.675 43.5195C125.52 43.5214 126.202 44.5553 126.199 45.8286C126.196 47.1018 125.509 48.1325 124.664 48.1306Z" fill="#E6E6E6"/>
<path id="Path 3119" d="M123.783 92.7773L33.4102 92.5695C32.8034 92.5611 32.2244 92.3137 31.7988 91.8812C31.3732 91.4486 31.1353 90.8657 31.1367 90.2589C31.1381 89.652 31.3787 89.0702 31.8063 88.6396C32.2339 88.209 32.814 87.9644 33.4208 87.9587L123.793 88.1665C124.405 88.1609 124.993 88.3983 125.43 88.8267C125.866 89.2551 126.114 89.8392 126.12 90.4506C126.126 91.0621 125.888 91.6507 125.46 92.0871C125.031 92.5234 124.447 92.7718 123.836 92.7774C123.818 92.7776 123.8 92.7775 123.783 92.7773Z" fill="#E6E6E6"/>
<path id="Path 3120" d="M123.751 107.686L33.379 107.478C32.7722 107.469 32.1932 107.222 31.7676 106.789C31.342 106.357 31.1041 105.774 31.1055 105.167C31.1069 104.56 31.3475 103.978 31.7751 103.548C32.2027 103.117 32.7828 102.873 33.3896 102.867L123.762 103.075C124.065 103.072 124.366 103.128 124.647 103.241C124.928 103.354 125.184 103.521 125.401 103.733C125.618 103.946 125.79 104.198 125.909 104.477C126.028 104.756 126.09 105.056 126.093 105.359C126.096 105.662 126.039 105.962 125.926 106.244C125.812 106.525 125.644 106.781 125.432 106.997C125.219 107.213 124.966 107.385 124.687 107.503C124.408 107.622 124.109 107.684 123.805 107.686C123.787 107.686 123.769 107.686 123.751 107.686Z" fill="#E6E6E6"/>
<path id="Path 3121" d="M123.716 122.595L33.3438 122.386C32.737 122.378 32.158 122.131 31.7324 121.698C31.3068 121.266 31.0689 120.683 31.0703 120.076C31.0717 119.469 31.3123 118.887 31.7399 118.457C32.1675 118.026 32.7476 117.781 33.3544 117.776L123.727 117.984C124.338 117.979 124.926 118.216 125.362 118.645C125.797 119.073 126.045 119.656 126.051 120.267C126.057 120.878 125.82 121.467 125.392 121.903C124.965 122.339 124.381 122.588 123.77 122.595C123.752 122.595 123.734 122.595 123.716 122.595Z" fill="#E6E6E6"/>
<path id="Path 3122" d="M79.2197 136.858L33.3087 136.65C32.7019 136.642 32.1229 136.395 31.6973 135.962C31.2717 135.529 31.0338 134.947 31.0352 134.34C31.0366 133.733 31.2771 133.151 31.7047 132.72C32.1323 132.29 32.7125 132.045 33.3193 132.04L79.2303 132.248C79.8411 132.243 80.4288 132.481 80.8644 132.909C81.3 133.337 81.5479 133.921 81.5537 134.531C81.5595 135.142 81.3226 135.73 80.8952 136.167C80.4678 136.603 79.8847 136.852 79.2739 136.859C79.2559 136.859 79.2378 136.859 79.2197 136.858Z" fill="#E6E6E6"/>
<path id="Path 3123" d="M79.1884 151.767L33.2774 151.559C32.6706 151.551 32.0916 151.303 31.666 150.871C31.2404 150.438 31.0025 149.855 31.0039 149.248C31.0053 148.642 31.2459 148.06 31.6735 147.629C32.1011 147.199 32.6812 146.954 33.288 146.948L79.1991 147.156C79.8098 147.152 80.3975 147.39 80.8331 147.818C81.2687 148.246 81.5165 148.829 81.5223 149.44C81.5281 150.051 81.2913 150.639 80.8639 151.075C80.4365 151.512 79.8534 151.76 79.2426 151.767C79.2246 151.767 79.2065 151.767 79.1884 151.767Z" fill="#E6E6E6"/>
<path id="Path 3125" d="M104.874 17.3124V6.34276C104.892 5.52794 104.75 4.71756 104.454 3.95791C104.159 3.19825 103.717 2.50419 103.154 1.91535C102.59 1.32651 101.916 0.854425 101.17 0.526046C100.424 0.197668 99.6209 0.0194262 98.8061 0.00150125C97.9913 -0.0164237 97.1809 0.126321 96.4213 0.421579C95.6616 0.716837 94.9675 1.15883 94.3787 1.72232C93.7898 2.28581 93.3178 2.95976 92.9894 3.70569C92.661 4.45163 92.4828 5.25494 92.4648 6.06976H93.8304C93.8792 4.81914 94.4099 3.63585 95.3113 2.7676C96.2127 1.89935 97.4151 1.41343 98.6666 1.41155H98.7378C100.023 1.43215 101.247 1.96199 102.142 2.88469C103.036 3.8074 103.528 5.04749 103.509 6.33254V17.4C103.498 18.2539 103.151 19.069 102.543 19.6693C101.936 20.2695 101.117 20.6066 100.263 20.6077H100.223C99.3606 20.5957 98.5385 20.242 97.9372 19.6241C97.3358 19.0063 97.0044 18.175 97.0157 17.3129L97.0232 6.41706C97.0217 5.98328 97.1927 5.56671 97.4984 5.25898C97.8041 4.95125 98.2196 4.77757 98.6534 4.77615C99.0872 4.77473 99.5037 4.94568 99.8115 5.25141C100.119 5.55713 100.293 5.97258 100.294 6.40636V9.57197C100.294 9.75305 100.366 9.92672 100.494 10.0548C100.622 10.1828 100.796 10.2548 100.977 10.2548C101.158 10.2548 101.332 10.1828 101.46 10.0548C101.588 9.92672 101.66 9.75305 101.66 9.57197V6.39553C101.659 6.00147 101.581 5.6114 101.429 5.24759C101.278 4.88378 101.056 4.55335 100.777 4.27519C100.498 3.99702 100.167 3.77656 99.8027 3.62638C99.4383 3.47621 99.048 3.39926 98.6539 3.39994C98.2599 3.40062 97.8698 3.47891 97.506 3.63034C97.1422 3.78176 96.8117 4.00337 96.5336 4.2825C96.2554 4.56162 96.0349 4.89281 95.8848 5.25713C95.7346 5.62146 95.6577 6.0118 95.6583 6.40586L95.6512 17.3041C95.6377 18.5269 96.1099 19.7051 96.964 20.5803C97.8181 21.4554 98.9845 21.956 100.207 21.9722H100.264C101.478 21.9703 102.641 21.491 103.504 20.6379C104.367 19.7848 104.86 18.6264 104.875 17.4131C104.875 17.378 104.875 17.3423 104.874 17.3124Z" fill="#6C63FF"/>
<path id="Vector_5" d="M123.563 142.043C123.565 143.859 123.241 145.661 122.606 147.363C122.318 148.143 121.964 148.897 121.549 149.617C120.215 151.945 118.289 153.881 115.967 155.226C113.644 156.572 111.008 157.281 108.324 157.281C105.639 157.281 103.003 156.572 100.681 155.226C98.3582 153.881 96.4324 151.945 95.0978 149.617C94.9627 149.382 94.8346 149.145 94.7135 148.903C93.6776 146.849 93.1205 144.586 93.084 142.285C93.0474 139.984 93.5324 137.705 94.5026 135.618C95.4727 133.531 96.9028 131.691 98.6856 130.236C100.468 128.781 102.557 127.749 104.796 127.216C107.035 126.684 109.365 126.665 111.612 127.162C113.859 127.659 115.964 128.658 117.77 130.084C119.576 131.511 121.035 133.328 122.038 135.399C123.041 137.47 123.563 139.741 123.563 142.043Z" fill="#E4E4E4"/>
<path id="Vector_6" d="M109.117 144.615C110.726 144.615 112.03 143.311 112.03 141.702C112.03 140.093 110.726 138.788 109.117 138.788C107.508 138.788 106.203 140.093 106.203 141.702C106.203 143.311 107.508 144.615 109.117 144.615Z" fill="#6C63FF"/>
<path id="Vector_7" d="M94.7148 148.904C95.9985 147.516 97.7145 145.314 99.3239 146.905C100.132 147.656 101.396 149.516 102.606 148.3L112.055 138.851C112.233 138.675 112.444 138.537 112.676 138.444C112.908 138.351 113.157 138.306 113.406 138.31C113.656 138.315 113.903 138.369 114.132 138.47C114.36 138.571 114.566 138.717 114.738 138.899L122.608 147.363C122.319 148.143 121.966 148.897 121.551 149.617H95.0992L94.7148 148.904Z" fill="#3F3D56"/>
<path id="Vector_8" d="M55.258 38.6217C55.2602 40.4382 54.9363 42.2404 54.3016 43.9424C54.0134 44.7219 53.6598 45.4758 53.2447 46.1958C51.9101 48.5246 49.9842 50.4597 47.6619 51.8055C45.3395 53.1513 42.703 53.86 40.0189 53.86C37.3348 53.86 34.6983 53.1513 32.3759 51.8055C30.0536 50.4597 28.1277 48.5246 26.7931 46.1958C26.658 45.9616 26.5299 45.7239 26.4088 45.4827C25.3729 43.4279 24.8158 41.1651 24.7793 38.8642C24.7427 36.5633 25.2277 34.284 26.1979 32.1972C27.168 30.1105 28.5981 28.2706 30.3809 26.8155C32.1636 25.3604 34.2527 24.3279 36.4915 23.7955C38.7303 23.2631 41.0605 23.2445 43.3075 23.7413C45.5544 24.238 47.6597 25.2372 49.4654 26.6637C51.2711 28.0903 52.7302 29.9072 53.7335 31.9782C54.7367 34.0492 55.2579 36.3205 55.258 38.6217Z" fill="#E4E4E4"/>
<path id="Vector_9" d="M40.8118 41.1945C42.4209 41.1945 43.7252 39.8901 43.7252 38.2811C43.7252 36.672 42.4209 35.3677 40.8118 35.3677C39.2028 35.3677 37.8984 36.672 37.8984 38.2811C37.8984 39.8901 39.2028 41.1945 40.8118 41.1945Z" fill="#6C63FF"/>
<path id="Vector_10" d="M26.4102 45.4828C27.6938 44.0955 29.4098 41.8931 31.0192 43.4845C31.8269 44.2352 33.091 46.0953 34.301 44.8792L43.7503 35.43C43.9281 35.2544 44.1393 35.1161 44.3714 35.0232C44.6035 34.9304 44.8518 34.8849 45.1018 34.8893C45.3517 34.8938 45.5983 34.9482 45.8269 35.0493C46.0555 35.1504 46.2616 35.2962 46.4331 35.478L54.3029 43.9424C54.0147 44.722 53.6611 45.4758 53.246 46.1959H26.7945L26.4102 45.4828Z" fill="#3F3D56"/>
<path id="Vector_11" d="M99.7203 19.3744C100.61 19.3744 101.331 18.6532 101.331 17.7635C101.331 16.8738 100.61 16.1526 99.7203 16.1526C98.8306 16.1526 98.1094 16.8738 98.1094 17.7635C98.1094 18.6532 98.8306 19.3744 99.7203 19.3744Z" fill="#6C63FF"/>
<path id="Vector_12" d="M191.823 173.7H188.757L188.21 170.805L186.808 173.7H178.676C178.286 173.7 177.906 173.575 177.592 173.344C177.278 173.113 177.046 172.788 176.93 172.416C176.814 172.044 176.82 171.644 176.948 171.276C177.075 170.907 177.316 170.589 177.637 170.368L184.131 165.883V162.956L190.962 163.364L191.823 173.7Z" fill="#2F2E41"/>
<path id="Vector_13" d="M218.993 166.524L216.418 168.187L214.387 166.052L214.78 169.244L207.949 173.656C207.621 173.867 207.235 173.968 206.846 173.945C206.457 173.921 206.085 173.773 205.786 173.524C205.487 173.274 205.275 172.935 205.182 172.557C205.089 172.178 205.119 171.78 205.268 171.42L208.291 164.129L206.703 161.671L212.663 158.308L218.993 166.524Z" fill="#2F2E41"/>
<path id="Rectangle 462" d="M239.737 173.356H0V174H239.737V173.356Z" fill="#CCCCCC"/>
</g>
<defs>
<clipPath id="clip0_805_10609">
<rect width="239.737" height="174" fill="white"/>
</clipPath>
</defs>
</svg>
