<svg width="283" height="150" viewBox="0 0 283 150" fill="none" xmlns="http://www.w3.org/2000/svg">
<g clip-path="url(#clip0_2542_17260)">
<path d="M232.73 149.262H181.201C181.201 149.262 180.157 133.943 186.337 133.768C192.517 133.594 191.82 140.558 199.567 130.983C207.314 121.409 216.714 121.931 217.933 127.589C219.151 133.246 215.583 137.772 222.111 136.38C228.639 134.987 238.039 138.643 232.73 149.262Z" fill="#C6F6D5"/>
<path d="M231.631 137.706C227.837 137.363 224.031 138.222 220.752 140.162C217.473 142.102 214.888 145.024 213.362 148.515C213.07 149.183 214.056 149.766 214.35 149.092C215.772 145.773 218.213 142.992 221.319 141.151C224.426 139.31 228.037 138.504 231.631 138.85C232.364 138.916 232.36 137.771 231.631 137.706Z" fill="white"/>
<path d="M185.945 134.385C187.593 136.298 188.836 138.526 189.599 140.932C190.362 143.339 190.629 145.876 190.385 148.389C190.313 149.121 191.458 149.116 191.529 148.389C191.775 145.725 191.478 143.04 190.658 140.494C189.837 137.948 188.509 135.595 186.754 133.576C186.27 133.02 185.463 133.832 185.945 134.385Z" fill="white"/>
<path d="M214.114 124.348C210.728 130.046 208.099 136.16 206.293 142.537C205.78 144.351 205.336 146.183 204.961 148.032C204.814 148.75 205.917 149.058 206.064 148.336C207.37 141.91 209.511 135.682 212.433 129.812C213.262 128.151 214.151 126.522 215.102 124.926C215.172 124.795 215.189 124.642 215.149 124.499C215.109 124.356 215.015 124.234 214.887 124.159C214.759 124.084 214.606 124.062 214.462 124.097C214.318 124.133 214.193 124.222 214.114 124.348Z" fill="white"/>
<path d="M255.232 54.498V94.7162H146.13C145.68 94.7163 145.235 94.6279 144.82 94.4559C144.405 94.2839 144.027 94.0318 143.709 93.7139C143.391 93.3961 143.139 93.0187 142.967 92.6034C142.795 92.188 142.707 91.7429 142.707 91.2934V51.0752H251.81C252.259 51.0751 252.704 51.1635 253.12 51.3355C253.535 51.5075 253.912 51.7596 254.23 52.0774C254.548 52.3953 254.8 52.7727 254.972 53.188C255.144 53.6033 255.232 54.0485 255.232 54.498Z" fill="#38A169"/>
<path d="M282.071 150H0.454816C0.334589 150 0.219408 149.952 0.134517 149.867C0.0496266 149.782 0.00195312 149.666 0.00195312 149.546C0.00195312 149.426 0.0496266 149.31 0.134517 149.225C0.219408 149.14 0.334589 149.092 0.454816 149.092H282.071C282.191 149.092 282.307 149.14 282.392 149.225C282.477 149.31 282.525 149.426 282.525 149.546C282.525 149.666 282.477 149.782 282.392 149.867C282.307 149.952 282.191 150 282.071 150Z" fill="#3F3D56"/>
<path d="M204.691 94.7158H203.928V149.643H204.691V94.7158Z" fill="#3F3D56"/>
<path d="M262.86 95.0973H145.757C144.847 95.0963 143.974 94.7343 143.331 94.0907C142.687 93.4471 142.325 92.5745 142.324 91.6644V42.4584C142.325 41.5482 142.687 40.6756 143.331 40.032C143.974 39.3885 144.847 39.0264 145.757 39.0254H262.86C263.77 39.0264 264.643 39.3885 265.286 40.032C265.93 40.6756 266.292 41.5482 266.293 42.4584V91.6644C266.292 92.5745 265.93 93.4471 265.286 94.0907C264.643 94.7343 263.77 95.0963 262.86 95.0973ZM145.757 39.7883C145.049 39.7891 144.371 40.0706 143.87 40.5712C143.369 41.0718 143.088 41.7505 143.087 42.4584V91.6644C143.088 92.3723 143.369 93.051 143.87 93.5515C144.371 94.0521 145.049 94.3337 145.757 94.3344H262.86C263.568 94.3336 264.246 94.0521 264.747 93.5515C265.248 93.0509 265.529 92.3723 265.53 91.6644V42.4584C265.529 41.7505 265.248 41.0718 264.747 40.5712C264.246 40.0706 263.568 39.7891 262.86 39.7883H145.757Z" fill="#CBD5E0"/>
<path d="M230.437 64.9635H161.396C161.093 64.9635 160.802 64.8429 160.587 64.6283C160.373 64.4137 160.252 64.1226 160.252 63.8191C160.252 63.5156 160.373 63.2246 160.587 63.01C160.802 62.7954 161.093 62.6748 161.396 62.6748H230.437C230.741 62.6748 231.032 62.7954 231.246 63.01C231.461 63.2246 231.582 63.5156 231.582 63.8191C231.582 64.1226 231.461 64.4137 231.246 64.6283C231.032 64.8429 230.741 64.9635 230.437 64.9635Z" fill="white"/>
<path d="M230.437 74.4996H161.396C161.093 74.4996 160.802 74.379 160.587 74.1644C160.373 73.9498 160.252 73.6588 160.252 73.3553C160.252 73.0518 160.373 72.7607 160.587 72.5461C160.802 72.3315 161.093 72.2109 161.396 72.2109H230.437C230.741 72.2109 231.032 72.3315 231.246 72.5461C231.461 72.7607 231.582 73.0518 231.582 73.3553C231.582 73.6588 231.461 73.9498 231.246 74.1644C231.032 74.379 230.741 74.4996 230.437 74.4996Z" fill="white"/>
<path d="M230.437 84.0357H161.396C161.093 84.0357 160.802 83.9152 160.587 83.7006C160.373 83.486 160.252 83.1949 160.252 82.8914C160.252 82.5879 160.373 82.2968 160.587 82.0822C160.802 81.8676 161.093 81.7471 161.396 81.7471H230.437C230.741 81.7471 231.032 81.8676 231.246 82.0822C231.461 82.2968 231.582 82.5879 231.582 82.8914C231.582 83.1949 231.461 83.486 231.246 83.7006C231.032 83.9152 230.741 84.0357 230.437 84.0357Z" fill="white"/>
<path d="M265.802 51.7843C272.726 51.7843 278.339 46.1715 278.339 39.2476C278.339 32.3238 272.726 26.7109 265.802 26.7109C258.878 26.7109 253.266 32.3238 253.266 39.2476C253.266 46.1715 258.878 51.7843 265.802 51.7843Z" fill="#38A169"/>
<path d="M262.984 44L259.191 40.6167C259.069 40.5063 259 40.357 259 40.2014C259 40.0458 259.07 39.8967 259.193 39.7867C259.316 39.6767 259.483 39.6148 259.658 39.6145C259.832 39.6142 260 39.6757 260.123 39.7853L262.92 42.2809L271.846 33.1997C271.962 33.0827 272.124 33.0113 272.298 33.0012C272.473 32.9911 272.644 33.0432 272.776 33.1459C272.907 33.2486 272.987 33.3936 272.999 33.549C273.01 33.7045 272.952 33.8577 272.837 33.9749L262.984 44Z" fill="white"/>
<path d="M55.9459 29.4864C55.9459 29.4864 63.6714 24.607 70.9904 30.2996L75.8697 81.1257C75.8697 81.1257 57.5723 95.357 53.0996 81.9389L55.9459 29.4864Z" fill="#CBD5E0"/>
<path d="M54.0581 145.009L49.3816 145.009L47.8242 127.037L54.0589 126.972L54.0581 145.009Z" fill="#FFB8B8"/>
<path d="M46.0418 143.673H55.0605V149.351H40.3633C40.3633 148.606 40.5102 147.867 40.7955 147.178C41.0809 146.489 41.4992 145.863 42.0265 145.336C42.5538 144.809 43.1797 144.39 43.8687 144.105C44.5576 143.82 45.296 143.673 46.0418 143.673Z" fill="#2F2E41"/>
<path d="M70.9617 145.01L75.6382 145.009L77.8627 126.972L70.9609 126.972L70.9617 145.01Z" fill="#FFB8B8"/>
<path d="M84.6582 149.352L69.961 149.352L69.9607 143.674L78.9795 143.673C80.4855 143.673 81.9299 144.271 82.9948 145.336C84.0598 146.401 84.6581 147.846 84.6582 149.352Z" fill="#2F2E41"/>
<path d="M43.9512 81.3288L48.0173 141.913L54.3197 141.71L62.6552 93.1204L70.3807 141.1L77.6997 141.507L79.7327 78.8891C79.7327 78.8891 48.8305 71.9768 43.9512 81.3288Z" fill="#2F2E41"/>
<path d="M63.1362 24.3437C68.3103 24.3437 72.5048 20.1492 72.5048 14.975C72.5048 9.80091 68.3103 5.60645 63.1362 5.60645C57.962 5.60645 53.7676 9.80091 53.7676 14.975C53.7676 20.1492 57.962 24.3437 63.1362 24.3437Z" fill="#FFB8B8"/>
<path d="M57.3693 27.6562L54.9296 29.2827C54.9296 29.2827 44.7644 29.2827 43.9512 35.3818C43.138 41.481 40.9016 83.1584 43.3412 83.1584C45.7809 83.1584 46.1875 79.9055 46.1875 79.9055C46.1875 79.9055 47.8139 80.3121 51.0668 83.565C54.3197 86.8178 56.3527 86.8178 57.5726 81.9385C58.7924 77.0592 66.9246 39.6512 59.199 32.7389L57.3693 27.6562Z" fill="#2F2E41"/>
<path d="M69.1607 27.6562L71.6004 29.2827C71.6004 29.2827 81.7656 29.2827 82.5788 35.3818C83.392 41.481 85.6283 83.1584 83.1887 83.1584C80.7491 83.1584 80.3424 79.9055 80.3424 79.9055C80.3424 79.9055 78.716 80.3121 75.4631 83.565C72.2103 86.8178 70.1772 86.8178 68.9574 81.9385C67.7376 77.0592 59.6054 39.6512 67.331 32.7389L69.1607 27.6562Z" fill="#2F2E41"/>
<path d="M55.5356 20.6873C54.8393 19.9534 54.377 19.0289 54.2075 18.0315C54.038 17.034 54.1691 16.0087 54.5839 15.086C54.9988 14.1633 55.6788 13.3848 56.5374 12.8496C57.396 12.3144 58.3943 12.0466 59.4055 12.0804C60.7009 12.1237 61.9216 12.6539 63.1581 13.043C65.0318 13.6804 67.0309 13.8604 68.9884 13.568C70.9576 13.2623 72.7346 12.213 73.9534 10.6363C75.1125 9.04324 75.4739 6.8336 74.6551 5.04167C73.7097 2.97295 71.5015 1.83305 69.4241 0.906872C68.5864 0.487459 67.6916 0.19346 66.7684 0.0343037C66.3059 -0.0425101 65.8325 -0.0230067 65.3779 0.0915933C64.9232 0.206193 64.4972 0.413423 64.1264 0.700302C63.5426 1.20239 63.2004 1.95708 62.5652 2.3922C61.8501 2.88201 60.9212 2.86915 60.0588 2.95549C58.1162 3.14994 56.2788 3.93122 54.7911 5.19538C53.3033 6.45955 52.2357 8.14671 51.7302 10.0324C51.2247 11.9182 51.3053 13.9131 51.9612 15.7519C52.6172 17.5908 53.8174 19.1863 55.4023 20.3263" fill="#2F2E41"/>
<path d="M87.4487 87.6081C87.8869 87.1996 88.2302 86.7 88.4544 86.1445C88.6786 85.589 88.7783 84.9911 88.7464 84.3929C88.7146 83.7946 88.5519 83.2107 88.27 82.6821C87.988 82.1536 87.5936 81.6933 87.1145 81.3336L87.0043 70.582L81.3778 71.6493L81.1687 82.3628C80.6179 83.2077 80.3961 84.2253 80.5454 85.2228C80.6947 86.2202 81.2048 87.1283 81.9789 87.7748C82.753 88.4214 83.7373 88.7615 84.7455 88.7308C85.7536 88.7001 86.7154 88.3006 87.4487 87.6081Z" fill="#FFB8B8"/>
<path d="M48.1596 85.7009C48.5978 85.2924 48.9411 84.7928 49.1653 84.2373C49.3895 83.6818 49.4892 83.0838 49.4574 82.4856C49.4255 81.8874 49.2629 81.3035 48.9809 80.7749C48.699 80.2464 48.3046 79.786 47.8255 79.4264L47.7153 68.6748L42.0888 69.7421L41.8796 80.4556C41.3288 81.3005 41.107 82.3181 41.2564 83.3155C41.4057 84.313 41.9157 85.2211 42.6898 85.8676C43.4639 86.5142 44.4483 86.8543 45.4564 86.8236C46.4645 86.7928 47.4263 86.3934 48.1596 85.7009Z" fill="#FFB8B8"/>
<path d="M81.1549 34.7725L82.6179 35.6994C82.6179 35.6994 88.6394 58.7596 88.6772 74.4168C88.6772 74.4168 80.7483 78.2796 79.5285 75.4333C78.3087 72.5871 81.1549 34.7725 81.1549 34.7725Z" fill="#2F2E41"/>
<path d="M45.3728 34.7725L43.9099 35.6994C43.9099 35.6994 38.6699 58.7596 40.0869 74.2135C40.0869 74.2135 48.4223 78.0763 49.6422 75.23C50.862 72.3838 45.3728 34.7725 45.3728 34.7725Z" fill="#2F2E41"/>
</g>
<defs>
<clipPath id="clip0_2542_17260">
<rect width="282.525" height="150" fill="white"/>
</clipPath>
</defs>
</svg>
