<svg width="65" height="60" viewBox="0 0 65 60" fill="none" xmlns="http://www.w3.org/2000/svg">
<g id="undraw_time_management_re_tk5w (1) 1" clip-path="url(#clip0_438_7609)">
<path id="Vector" d="M59.3026 45.9017L62.1805 46.3515C63.1546 45.172 63.8262 43.7726 64.1367 42.2747C62.0324 43.9972 58.8323 43.0818 56.2806 44.0223C55.487 44.3217 54.7709 44.7958 54.1855 45.4096C53.6001 46.0234 53.1602 46.761 52.8986 47.5678L51.4922 49.081C52.7653 49.585 54.1326 49.807 55.4997 49.7318C56.8669 49.6565 58.2016 49.2857 59.4116 48.645C60.0869 48.2788 60.7134 47.8291 61.2764 47.3063C60.2694 46.6723 59.3026 45.9017 59.3026 45.9017Z" fill="#68D391"/>
<path id="Vector_2" d="M58.2837 41.299L61.0601 40.4181C61.406 38.928 61.3829 37.3759 60.9928 35.8967C59.8776 38.377 56.6051 38.9849 54.7406 40.9646C54.1639 41.5865 53.7344 42.3303 53.4842 43.1407C53.2339 43.9511 53.1692 44.8075 53.2949 45.6463L52.7109 47.6279C54.0752 47.5113 55.398 47.1002 56.5881 46.4231C57.7782 45.746 58.8074 44.8189 59.6047 43.7058C60.0459 43.0768 60.406 42.3949 60.6767 41.676C59.4927 41.5576 58.2837 41.299 58.2837 41.299Z" fill="#68D391"/>
<path id="Vector_3" d="M64.1513 49.9978C64.1513 50.0126 64.1484 50.0273 64.1428 50.041C64.1371 50.0548 64.1288 50.0672 64.1183 50.0777C64.1078 50.0882 64.0953 50.0966 64.0816 50.1022C64.0679 50.1079 64.0531 50.1108 64.0383 50.1107H0.112984C0.0830191 50.1107 0.0542808 50.0988 0.0330921 50.0776C0.0119035 50.0565 0 50.0277 0 49.9978C0 49.9678 0.0119035 49.939 0.0330921 49.9179C0.0542808 49.8967 0.0830191 49.8848 0.112984 49.8848H64.0383C64.0531 49.8847 64.0679 49.8876 64.0816 49.8933C64.0953 49.8989 64.1078 49.9073 64.1183 49.9178C64.1288 49.9283 64.1371 49.9407 64.1428 49.9545C64.1484 49.9682 64.1513 49.9829 64.1513 49.9978Z" fill="#CCCCCC"/>
<path id="Vector_4" d="M26.4912 45.181C37.7651 45.181 46.9043 36.0417 46.9043 24.7678C46.9043 13.494 37.7651 4.35474 26.4912 4.35474C15.2174 4.35474 6.07812 13.494 6.07812 24.7678C6.07812 36.0417 15.2174 45.181 26.4912 45.181Z" fill="#E2E8F0"/>
<path id="Vector_5" d="M44.0514 24.7679C44.0535 27.5086 43.4132 30.2117 42.1821 32.6604C40.9509 35.1091 39.163 37.2351 36.9619 38.8681C36.8147 38.9783 36.6647 39.0856 36.5137 39.19C33.5703 41.236 30.0714 42.3327 26.4866 42.3327C22.9019 42.3327 19.403 41.236 16.4595 39.19C16.3086 39.0856 16.1586 38.9783 16.0114 38.8681C13.8118 37.2337 12.025 35.1073 10.794 32.659C9.56301 30.2107 8.92188 27.5083 8.92188 24.7679C8.92188 22.0275 9.56301 19.3251 10.794 16.8768C12.025 14.4285 13.8118 12.3021 16.0114 10.6677C16.1586 10.5575 16.3086 10.4502 16.4595 10.3458C19.403 8.29975 22.9019 7.20313 26.4866 7.20312C30.0714 7.20313 33.5703 8.29975 36.5137 10.3458C36.6647 10.4502 36.8147 10.5575 36.9619 10.6677C39.163 12.3006 40.9509 14.4267 42.1821 16.8754C43.4132 19.324 44.0535 22.0271 44.0514 24.7679Z" fill="white"/>
<path id="Vector_6" d="M26.491 40.8135C35.3527 40.8135 42.5366 33.6296 42.5366 24.7678C42.5366 15.9061 35.3527 8.72217 26.491 8.72217C17.6292 8.72217 10.4453 15.9061 10.4453 24.7678C10.4453 33.6296 17.6292 40.8135 26.491 40.8135Z" fill="#6C63FF"/>
<path id="Vector_7" opacity="0.2" d="M26.5301 8.76709C26.2868 8.76709 26.0451 8.77345 25.8045 8.78416C29.8599 9.14053 33.6283 11.0251 36.3461 14.0562C39.0639 17.0872 40.5279 21.038 40.4415 25.1082C40.3551 29.1784 38.7248 33.0635 35.8808 35.9765C33.0368 38.8895 29.1919 40.6125 25.125 40.7965C25.5881 40.8367 26.0565 40.8584 26.5301 40.8584C30.7856 40.8584 34.8669 39.1679 37.876 36.1587C40.8852 33.1496 42.5757 29.0683 42.5757 24.8127C42.5757 20.5572 40.8852 16.4759 37.876 13.4668C34.8669 10.4576 30.7856 8.76709 26.5301 8.76709Z" fill="black"/>
<path id="Vector_8" d="M26.5378 7.58301C26.3994 7.58325 26.2667 7.63835 26.1688 7.73622C26.071 7.8341 26.0159 7.96678 26.0156 8.1052V10.3839C26.0156 10.5224 26.0706 10.6552 26.1686 10.7531C26.2665 10.8511 26.3993 10.9061 26.5378 10.9061C26.6763 10.9061 26.8091 10.8511 26.9071 10.7531C27.005 10.6552 27.06 10.5224 27.06 10.3839V8.1052C27.0598 7.96678 27.0047 7.8341 26.9068 7.73622C26.8089 7.63835 26.6762 7.58325 26.5378 7.58301Z" fill="white"/>
<path id="Vector_9" d="M36.9663 10.6677C36.8191 10.5576 36.6691 10.4503 36.5182 10.3458C36.4276 10.3399 36.337 10.3578 36.2554 10.3975C36.1739 10.4373 36.1041 10.4977 36.0529 10.5727L34.7702 12.4555C34.6923 12.57 34.663 12.7107 34.6888 12.8467C34.7147 12.9827 34.7935 13.1029 34.9079 13.1809C35.0224 13.2588 35.1631 13.2881 35.2991 13.2623C35.4351 13.2365 35.5554 13.1577 35.6333 13.0432L36.916 11.1605C36.9648 11.089 36.995 11.0065 37.0038 10.9205C37.0125 10.8344 36.9997 10.7475 36.9663 10.6677Z" fill="white"/>
<path id="Vector_10" d="M42.7884 19.2525C42.7626 19.189 42.7246 19.1312 42.6765 19.0824C42.6283 19.0337 42.5711 18.9949 42.5079 18.9682C42.4448 18.9416 42.377 18.9277 42.3085 18.9273C42.24 18.9268 42.1721 18.9399 42.1086 18.9657L39.997 19.8231C39.8689 19.8753 39.7667 19.9763 39.7129 20.1038C39.6591 20.2313 39.6582 20.375 39.7103 20.5032C39.7624 20.6314 39.8632 20.7337 39.9907 20.7876C40.1182 20.8415 40.2618 20.8425 40.3901 20.7906L42.5017 19.9332C42.6298 19.8807 42.7319 19.7796 42.7856 19.6521C42.8394 19.5245 42.8404 19.3808 42.7884 19.2525Z" fill="white"/>
<path id="Vector_11" d="M18.2049 12.4555L16.9222 10.5727C16.8711 10.4977 16.8013 10.4373 16.7197 10.3975C16.6382 10.3578 16.5476 10.3399 16.457 10.3458C16.3061 10.4503 16.156 10.5576 16.0089 10.6677C15.9755 10.7475 15.9626 10.8344 15.9714 10.9205C15.9802 11.0065 16.0104 11.089 16.0592 11.1605L17.3419 13.0432C17.4198 13.1577 17.54 13.2365 17.6761 13.2623C17.8121 13.2881 17.9528 13.2588 18.0673 13.1809C18.1817 13.1029 18.2605 12.9827 18.2863 12.8467C18.3122 12.7107 18.2829 12.57 18.2049 12.4555Z" fill="white"/>
<path id="Vector_12" d="M12.9786 19.823L10.867 18.9656C10.7387 18.9135 10.595 18.9145 10.4674 18.9684C10.3399 19.0222 10.239 19.1246 10.1868 19.2528C10.1347 19.3811 10.1357 19.5249 10.1895 19.6524C10.2434 19.78 10.3457 19.8809 10.474 19.9331L12.5855 20.7904C12.7138 20.8424 12.8574 20.8413 12.9849 20.7875C13.1124 20.7336 13.2133 20.6313 13.2654 20.5031C13.3175 20.3748 13.3165 20.2312 13.2627 20.1037C13.209 19.9761 13.1068 19.8752 12.9786 19.823Z" fill="white"/>
<path id="Vector_13" d="M26.5378 38.6299C26.3994 38.6301 26.2667 38.6852 26.1688 38.7831C26.071 38.881 26.0159 39.0137 26.0156 39.1521V41.4308C26.0156 41.5692 26.0706 41.7021 26.1686 41.8C26.2665 41.8979 26.3993 41.9529 26.5378 41.9529C26.6763 41.9529 26.8091 41.8979 26.9071 41.8C27.005 41.7021 27.06 41.5692 27.06 41.4308V39.1521C27.0598 39.0137 27.0047 38.881 26.9068 38.7831C26.8089 38.6852 26.6762 38.6301 26.5378 38.6299Z" fill="white"/>
<path id="Vector_14" d="M36.916 38.3751L35.6333 36.4924C35.5947 36.4357 35.5453 36.3872 35.488 36.3496C35.4306 36.312 35.3665 36.2861 35.2991 36.2733C35.2318 36.2605 35.1625 36.2611 35.0954 36.2751C35.0283 36.2891 34.9646 36.3161 34.9079 36.3547C34.8512 36.3933 34.8027 36.4427 34.7651 36.5C34.7276 36.5574 34.7016 36.6215 34.6888 36.6889C34.6761 36.7562 34.6767 36.8255 34.6906 36.8926C34.7046 36.9597 34.7317 37.0234 34.7702 37.0801L36.0529 38.9628C36.1041 39.0379 36.1739 39.0982 36.2554 39.138C36.337 39.1778 36.4276 39.1957 36.5182 39.1898C36.6691 39.0853 36.8191 38.978 36.9663 38.8679C36.9997 38.7881 37.0125 38.7012 37.0038 38.6151C36.995 38.5291 36.9648 38.4466 36.916 38.3751Z" fill="white"/>
<path id="Vector_15" d="M42.502 29.6023L40.3905 28.7449C40.2622 28.6928 40.1184 28.6938 39.9909 28.7477C39.8633 28.8015 39.7624 28.9039 39.7103 29.0321C39.6582 29.1604 39.6591 29.3042 39.713 29.4317C39.7668 29.5593 39.8691 29.6602 39.9974 29.7124L42.109 30.5697C42.2372 30.6217 42.3809 30.6206 42.5084 30.5668C42.6358 30.5129 42.7367 30.4106 42.7888 30.2823C42.8409 30.1541 42.8399 30.0105 42.7862 29.8829C42.7324 29.7554 42.6302 29.6545 42.502 29.6023Z" fill="white"/>
<path id="Vector_16" d="M18.0673 36.3549C17.9528 36.277 17.8121 36.2477 17.6761 36.2736C17.5401 36.2994 17.4199 36.3782 17.3419 36.4926L16.0592 38.3753C16.0104 38.4468 15.9802 38.5293 15.9714 38.6153C15.9626 38.7014 15.9755 38.7883 16.0089 38.8681C16.156 38.9782 16.3061 39.0855 16.457 39.19C16.5476 39.1959 16.6382 39.178 16.7197 39.1382C16.8013 39.0984 16.8711 39.0381 16.9222 38.963L18.2049 37.0803C18.2435 37.0236 18.2706 36.9599 18.2846 36.8928C18.2985 36.8257 18.2991 36.7564 18.2864 36.6891C18.2736 36.6217 18.2476 36.5575 18.2101 36.5002C18.1725 36.4429 18.1239 36.3935 18.0673 36.3549Z" fill="white"/>
<path id="Vector_17" d="M13.265 29.0318C13.2392 28.9683 13.2011 28.9105 13.153 28.8617C13.1049 28.813 13.0476 28.7742 12.9845 28.7475C12.9214 28.7209 12.8536 28.707 12.7851 28.7066C12.7166 28.7061 12.6486 28.7192 12.5852 28.745L10.4736 29.6024C10.3454 29.6546 10.2432 29.7556 10.1895 29.8831C10.1357 30.0106 10.1347 30.1543 10.1868 30.2825C10.2389 30.4107 10.3398 30.513 10.4673 30.5669C10.5948 30.6208 10.7384 30.6218 10.8667 30.5699L12.9782 29.7125C13.1064 29.66 13.2085 29.5589 13.2622 29.4314C13.3159 29.3038 13.3169 29.1601 13.265 29.0318Z" fill="white"/>
<path id="Vector_18" d="M27.2159 24.5087C27.2642 24.7941 27.1972 25.087 27.0297 25.3231C26.8622 25.5593 26.608 25.7193 26.3226 25.7682L17.0562 27.3444C16.9149 27.3684 16.7701 27.3644 16.6304 27.3325C16.4906 27.3006 16.3584 27.2415 16.2415 27.1586C16.1245 27.0756 16.025 26.9705 15.9487 26.8491C15.8724 26.7277 15.8208 26.5924 15.7967 26.4511C15.7727 26.3097 15.7767 26.165 15.8086 26.0252C15.8405 25.8854 15.8996 25.7533 15.9825 25.6363C16.0655 25.5194 16.1706 25.4199 16.292 25.3436C16.4134 25.2673 16.5487 25.2156 16.69 25.1916L25.9564 23.6154C26.2419 23.5672 26.5348 23.6341 26.7709 23.8016C27.007 23.9691 27.1671 24.2234 27.2159 24.5087Z" fill="white"/>
<path id="Vector_19" d="M36.9657 34.7751C36.8326 34.909 36.6518 34.9846 36.463 34.9854C36.2742 34.9861 36.0929 34.9119 35.9587 34.7791L25.9835 24.8822C25.8497 24.7491 25.7741 24.5683 25.7734 24.3796C25.7728 24.1909 25.8471 24.0096 25.98 23.8756C26.113 23.7416 26.2937 23.6659 26.4824 23.665C26.6711 23.6642 26.8525 23.7384 26.9866 23.8712L36.9618 33.7681C37.0956 33.9012 37.1712 34.082 37.172 34.2708C37.1727 34.4596 37.0986 34.641 36.9657 34.7751Z" fill="white"/>
<path id="Vector_20" d="M26.4843 26.0023C27.166 26.0023 27.7186 25.4496 27.7186 24.768C27.7186 24.0863 27.166 23.5337 26.4843 23.5337C25.8026 23.5337 25.25 24.0863 25.25 24.768C25.25 25.4496 25.8026 26.0023 26.4843 26.0023Z" fill="#CCCCCC"/>
<path id="Vector_21" d="M17.9913 3.36532C16.0967 6.34397 13.206 8.32074 9.64095 9.61936C9.5705 9.67213 9.49036 9.71049 9.40508 9.73228C9.31981 9.75407 9.23108 9.75884 9.14396 9.74634C9.05684 9.73383 8.97303 9.70429 8.89733 9.6594C8.82163 9.61451 8.75551 9.55514 8.70275 9.4847C6.76626 6.89912 7.20352 3.20381 9.75927 1.22813C10.3772 0.751306 11.0836 0.401971 11.8376 0.200406C12.5916 -0.00115939 13.3782 -0.0509414 14.1516 0.0539514C14.925 0.158844 15.6698 0.416321 16.3429 0.811436C17.016 1.20655 17.6039 1.73143 18.0724 2.35561L18.126 2.42712C18.1787 2.49757 18.2171 2.57771 18.2389 2.66299C18.2607 2.74826 18.2655 2.83699 18.253 2.92411C18.2405 3.01123 18.2109 3.09503 18.166 3.17074C18.1211 3.24644 18.0618 3.31256 17.9913 3.36532Z" fill="#E2E8F0"/>
<path id="Vector_22" d="M34.9061 2.3556C35.3747 1.73143 35.9625 1.20655 36.6356 0.811435C37.3087 0.41632 38.0536 0.158845 38.827 0.0539517C39.6003 -0.0509411 40.3869 -0.00116043 41.1409 0.200405C41.8949 0.40197 42.6013 0.751305 43.2192 1.22813C45.775 3.20381 46.2122 6.89912 44.2758 9.4847C44.223 9.55514 44.1569 9.61451 44.0812 9.6594C44.0055 9.70429 43.9217 9.73383 43.8346 9.74634C43.7474 9.75884 43.6587 9.75407 43.5734 9.73228C43.4882 9.71049 43.408 9.67212 43.3376 9.61936C40.028 8.35229 37.3141 6.15963 34.9872 3.36532C34.8449 3.25876 34.7508 3.10005 34.7256 2.92411C34.7003 2.74816 34.746 2.56939 34.8525 2.42712L34.9061 2.3556Z" fill="#E2E8F0"/>
<path id="Vector_23" d="M34.0794 42.4529C33.9587 42.5207 33.8698 42.6336 33.8322 42.7668C33.7946 42.9 33.8113 43.0427 33.8787 43.1636L36.8924 48.5491C36.96 48.6699 37.0729 48.7589 37.2062 48.7966C37.3394 48.8342 37.4822 48.8173 37.603 48.7497C37.7239 48.6821 37.8129 48.5692 37.8506 48.436C37.8882 48.3027 37.8714 48.1599 37.8038 48.0391L34.7901 42.6536C34.7223 42.5329 34.6094 42.444 34.4762 42.4064C34.343 42.3688 34.2003 42.3855 34.0794 42.4529Z" fill="#E2E8F0"/>
<path id="Vector_24" d="M18.1895 42.6535L15.1758 48.039C15.1082 48.1599 15.0914 48.3026 15.129 48.4359C15.1667 48.5692 15.2557 48.682 15.3766 48.7496C15.4974 48.8173 15.6402 48.8341 15.7734 48.7965C15.9067 48.7589 16.0196 48.6699 16.0872 48.549L19.1009 43.1635C19.1344 43.1037 19.1558 43.0378 19.1639 42.9697C19.1719 42.9016 19.1665 42.8326 19.1479 42.7666C19.1292 42.7006 19.0978 42.6389 19.0553 42.585C19.0128 42.5312 18.9602 42.4862 18.9003 42.4527C18.8405 42.4192 18.7746 42.3979 18.7065 42.3898C18.6384 42.3818 18.5693 42.3873 18.5033 42.4059C18.4373 42.4245 18.3756 42.456 18.3218 42.4985C18.268 42.541 18.223 42.5937 18.1895 42.6535Z" fill="#E2E8F0"/>
<path id="Vector_25" d="M37.5047 49.9283C38.3961 49.9283 39.1187 49.2057 39.1187 48.3143C39.1187 47.4228 38.3961 46.7002 37.5047 46.7002C36.6133 46.7002 35.8906 47.4228 35.8906 48.3143C35.8906 49.2057 36.6133 49.9283 37.5047 49.9283Z" fill="#E2E8F0"/>
<path id="Vector_26" d="M38.6453 8.62729C39.5367 8.62729 40.2594 7.90465 40.2594 7.01323C40.2594 6.12181 39.5367 5.39917 38.6453 5.39917C37.7539 5.39917 37.0312 6.12181 37.0312 7.01323C37.0312 7.90465 37.7539 8.62729 38.6453 8.62729Z" fill="#E2E8F0"/>
<path id="Vector_27" d="M26.3953 4.82944C27.2867 4.82944 28.0094 4.1068 28.0094 3.21538C28.0094 2.32396 27.2867 1.60132 26.3953 1.60132C25.5039 1.60132 24.7812 2.32396 24.7812 3.21538C24.7812 4.1068 25.5039 4.82944 26.3953 4.82944Z" fill="#E2E8F0"/>
<path id="Vector_28" d="M14.7156 8.43735C15.607 8.43735 16.3297 7.71471 16.3297 6.82329C16.3297 5.93187 15.607 5.20923 14.7156 5.20923C13.8242 5.20923 13.1016 5.93187 13.1016 6.82329C13.1016 7.71471 13.8242 8.43735 14.7156 8.43735Z" fill="#E2E8F0"/>
<path id="Vector_29" d="M15.7625 49.9283C16.6539 49.9283 17.3766 49.2057 17.3766 48.3143C17.3766 47.4228 16.6539 46.7002 15.7625 46.7002C14.8711 46.7002 14.1484 47.4228 14.1484 48.3143C14.1484 49.2057 14.8711 49.9283 15.7625 49.9283Z" fill="#E2E8F0"/>
<path id="Vector_30" d="M36.24 33.8672C36.3036 33.9669 36.3883 34.0513 36.4881 34.1147C36.5879 34.178 36.7004 34.2187 36.8176 34.2339C36.9349 34.2491 37.054 34.2384 37.1666 34.2025C37.2793 34.1667 37.3827 34.1066 37.4696 34.0265L40.0023 35.3835L39.8665 33.8966L37.4822 32.8358C37.3379 32.6988 37.1483 32.6194 36.9494 32.6128C36.7505 32.6061 36.5561 32.6727 36.403 32.7998C36.2499 32.9269 36.1487 33.1058 36.1187 33.3026C36.0887 33.4993 36.1318 33.7002 36.24 33.8672Z" fill="#FFB7B7"/>
<path id="Vector_31" d="M38.0859 34.3864L39.0784 33.0164L43.8598 35.2767L49.8097 34.1603C50.1038 34.1051 50.4065 34.1153 50.6962 34.1903C50.9859 34.2652 51.2555 34.403 51.486 34.5939C51.7164 34.7848 51.902 35.024 52.0296 35.2947C52.1572 35.5654 52.2236 35.8608 52.2242 36.1601C52.2246 36.7005 52.0106 37.2191 51.6291 37.602C51.2477 37.9849 50.7299 38.2008 50.1894 38.2024L43.3709 38.215L38.0859 34.3864Z" fill="#3F3D56"/>
<path id="Vector_32" d="M36.5511 58.0491L35.5469 57.5689L36.9263 53.3716L38.4083 54.0804L36.5511 58.0491Z" fill="#FFB7B7"/>
<path id="Vector_33" d="M43.29 57.3723C43.217 57.418 43.144 57.463 43.0702 57.508C42.9234 57.598 42.7752 57.6865 42.6269 57.7735C42.5524 57.8171 42.4772 57.8606 42.4027 57.9034V57.9056L42.3983 57.9063L42.3968 57.907L42.2832 57.9351L42.1202 57.5043L42.045 57.3059L41.9387 57.0249L41.744 56.5108L40.7188 53.8038L42.3127 53.4106L42.3724 53.6548H42.3732L42.4027 53.7758L42.9596 56.0343L43.0732 56.496L43.0769 56.51L43.1455 56.7859L43.2045 57.0249L43.2701 57.2919L43.29 57.3723Z" fill="#FFB7B7"/>
<path id="Vector_34" d="M52.797 47.866C52.6959 48.0283 52.5927 48.1898 52.4887 48.3499C52.2954 48.6479 52.097 48.9414 51.8934 49.2306C51.8934 49.2313 51.8927 49.2313 51.8919 49.232C51.7732 49.3421 51.642 49.4379 51.501 49.5175C51.4951 49.5219 51.4885 49.5249 51.4826 49.5286C51.3788 49.5859 51.2683 49.6303 51.1536 49.6606C51.1123 49.6709 51.0703 49.6812 51.029 49.6916C50.88 49.727 50.7324 49.7572 50.5857 49.7838C50.3246 49.8302 50.0664 49.8634 49.8097 49.8841C49.7891 49.8863 49.7684 49.8878 49.7477 49.8892C48.6922 49.9667 47.6648 49.842 46.5923 49.6377C46.0627 49.5374 45.522 49.4172 44.9622 49.2925C44.7793 49.2512 44.5956 49.2107 44.4097 49.1701C44.3957 49.1671 44.381 49.1635 44.3662 49.1605C44.1007 49.1022 43.8307 49.0447 43.5541 48.9879C43.206 48.9164 42.8468 48.847 42.4735 48.7814L42.5001 49.3073C42.5222 49.7118 42.6063 50.1106 42.7494 50.4897C42.9087 50.9558 43.0349 51.3246 42.7686 52.0925L42.6402 52.4642C42.7068 52.6488 42.7296 52.8463 42.7069 53.0412C42.6843 53.2361 42.6168 53.4232 42.5097 53.5876L42.4839 53.6267L43.5541 56.3344L43.6235 56.5099H43.0754L42.4013 56.5107H41.2587L39.6102 53.2033L39.5312 53.0454V53.0373L39.7016 46.6814C39.7038 46.6254 39.7083 46.5686 39.7157 46.5125C39.7457 46.2577 39.8262 46.0114 39.9525 45.788C40.0787 45.5646 40.2482 45.3686 40.451 45.2114C40.6454 45.0595 40.868 44.9478 41.1059 44.8827C41.3439 44.8176 41.5924 44.8005 41.837 44.8323L42.4013 44.9053L43.5541 45.0543L44.3662 45.1598L44.3824 45.162L46.7774 45.4718L46.9493 44.771L46.981 44.7592L47.9893 44.3897L51.4767 43.1114L51.4855 43.1085L51.7149 43.0244L51.7422 43.0687C51.7503 43.0819 51.7584 43.0952 51.7658 43.1085C51.9925 43.515 52.1772 43.9435 52.3168 44.3875C52.5516 45.1128 52.7449 45.8508 52.8958 46.5981C52.9025 46.6305 52.9084 46.6601 52.9135 46.6866L52.9157 46.6947C52.9179 46.7073 52.9194 46.7154 52.9202 46.7176C53.0006 47.0524 52.9445 47.4611 52.797 47.866Z" fill="#2F2E41"/>
<path id="Vector_35" d="M52.9443 45.5238C52.9332 45.4766 52.9192 45.4286 52.9045 45.3822C52.7874 45.0302 52.651 44.685 52.4958 44.3481C52.3218 43.9645 52.113 43.5537 51.8645 43.1089C51.7442 42.8935 51.6149 42.6695 51.4765 42.4369C51.4072 42.3204 51.3351 42.2016 51.2604 42.0807C51.2575 42.0751 51.2542 42.0697 51.2508 42.0645L51.2294 42.0291L47.7789 42.4908L46.494 42.6627L46.4173 43.3029L46.3988 43.4615C46.3981 43.4615 46.3981 43.4615 46.3988 43.4622L46.3472 43.8944V43.8952L46.2786 44.4661L46.2727 44.4653L44.366 44.2183L42.4011 43.9638L41.3456 43.8273C41.1009 43.7954 40.8524 43.8126 40.6145 43.8776C40.3765 43.9427 40.1539 44.0545 39.9596 44.2065C39.7568 44.3637 39.5874 44.5597 39.4611 44.7831C39.3348 45.0065 39.2543 45.2528 39.2242 45.5076C39.2176 45.5592 39.2132 45.6123 39.2109 45.6647L38.2152 48.0243C37.6193 49.4354 37.2399 50.9284 37.0896 52.4528L36.3594 54.7873L36.4634 54.7969L38.0109 54.9407L38.4195 54.9791L39.3194 53.6654C39.4219 53.5157 39.5192 53.3615 39.61 53.2037C39.7593 52.9459 39.8921 52.6788 40.0075 52.4041L41.9541 47.772C42.1045 47.7978 42.2535 47.8224 42.4011 47.8458C43.0833 47.9564 43.7383 48.0466 44.366 48.1165C46.407 48.3444 48.1743 48.3621 49.7476 48.1688C50.1894 48.115 50.6164 48.0442 51.0288 47.9564C51.18 47.9247 51.3292 47.8905 51.4765 47.8539C51.5112 47.8458 51.5451 47.8377 51.579 47.8288C51.8838 47.7502 52.1641 47.5964 52.3941 47.3814C52.6241 47.1665 52.7966 46.8973 52.8956 46.5985C53.0139 46.2522 53.0308 45.8794 52.9443 45.5238Z" fill="#2F2E41"/>
<path id="Vector_36" d="M36.8772 57.3638L35.7907 56.8431L35.6203 56.7612L35.3481 57.4295L33.4481 57.8477C33.3541 57.8683 33.2692 57.9184 33.2058 57.9907C33.1423 58.063 33.1036 58.1537 33.0954 58.2495C33.0872 58.3453 33.1098 58.4413 33.16 58.5233C33.2101 58.6054 33.2852 58.6692 33.3743 58.7055L35.2308 59.4631L35.8202 58.9327L35.6756 59.6445L36.3748 59.93L37.1412 57.4907L36.8772 57.3638Z" fill="#2F2E41"/>
<path id="Vector_37" d="M43.5469 56.3345L43.6163 56.51H43.5469V56.3345Z" fill="#2F2E41"/>
<path id="Vector_38" d="M43.1686 56.5475L42.0301 56.942L41.8514 57.0037L42.1283 57.6701L41.0724 59.3042C41.0201 59.3849 40.995 59.4802 41.0008 59.5762C41.0066 59.6722 41.0429 59.7639 41.1045 59.8378C41.1661 59.9117 41.2496 59.9639 41.343 59.9869C41.4364 60.0099 41.5347 60.0025 41.6236 59.9656L43.4758 59.1976L43.5214 58.4061L43.9195 59.0136L44.6172 58.7244L43.4455 56.4519L43.1686 56.5475Z" fill="#2F2E41"/>
<path id="Vector_39" d="M52.6518 46.5925C52.5842 46.5923 52.5176 46.5758 52.4578 46.5443L46.4502 43.4052L46.3808 43.121L46.25 42.2218L46.2518 42.2133L46.8231 39.5793C46.8127 39.5566 46.7908 39.5195 46.7661 39.4776C46.511 39.0455 45.7348 37.7302 47.2162 35.9191L49.8173 32.8866L52.0497 32.7905L52.0751 32.8226C52.672 33.5718 53.0746 34.4569 53.247 35.3992C53.4195 36.3415 53.3564 37.3118 53.0635 38.2239L52.831 42.422L53.0804 43.2699C53.2261 43.7681 53.202 44.3007 53.0118 44.7837L53.069 46.1565C53.0712 46.2128 53.0621 46.2689 53.0422 46.3216C53.0222 46.3742 52.9919 46.4224 52.9529 46.463C52.914 46.5037 52.8673 46.5362 52.8155 46.5584C52.7638 46.5806 52.7081 46.5922 52.6518 46.5925Z" fill="#3F3D56"/>
<path id="Vector_40" d="M47.4497 50.0547C47.5515 49.9945 47.6388 49.9128 47.7056 49.8153C47.7724 49.7178 47.817 49.6068 47.8362 49.4901C47.8555 49.3735 47.8489 49.2541 47.817 49.1403C47.7851 49.0265 47.7286 48.921 47.6516 48.8314L49.0959 46.3474L47.6051 46.4314L46.4621 48.7774C46.3201 48.9168 46.2342 49.1035 46.2206 49.302C46.2071 49.5006 46.2668 49.6972 46.3886 49.8547C46.5103 50.0121 46.6856 50.1194 46.8811 50.1563C47.0767 50.1932 47.279 50.157 47.4497 50.0547Z" fill="#FFB7B7"/>
<path id="Vector_41" d="M48.03 48.2283L46.6953 47.1888L49.1206 42.4889L48.2118 36.5037C48.1669 36.2079 48.1877 35.9058 48.2726 35.6189C48.3576 35.3319 48.5047 35.0673 48.7035 34.8436C48.9023 34.6199 49.1478 34.4427 49.4228 34.3246C49.6977 34.2066 49.9953 34.1504 50.2944 34.1603C50.8345 34.1787 51.3453 34.4106 51.7147 34.8051C52.0841 35.1997 52.2819 35.7247 52.2647 36.2649L52.0401 43.0798L48.03 48.2283Z" fill="#3F3D56"/>
<path id="a1ca5f83-7fa1-45b1-9d3b-bf096f25c0e5" d="M48.3906 31.6266V29.4176C48.3901 28.6325 48.7015 27.8794 49.2563 27.3239C49.811 26.7684 50.5637 26.4561 51.3488 26.4556C52.1339 26.4551 52.887 26.7664 53.4425 27.3212C53.998 27.876 54.3103 28.6287 54.3108 29.4138V29.4176C54.8325 30.5047 54.5061 31.0216 54.3108 31.6266C54.3106 31.732 54.2687 31.833 54.1942 31.9075C54.1197 31.982 54.0187 32.0239 53.9134 32.0241H48.7883C48.6829 32.0239 48.5818 31.982 48.5073 31.9075C48.4328 31.833 48.3908 31.732 48.3906 31.6266Z" fill="#2F2E41"/>
<path id="Vector_42" d="M50.3798 31.8802C51.6035 31.8802 52.5955 30.8882 52.5955 29.6645C52.5955 28.4408 51.6035 27.4487 50.3798 27.4487C49.1561 27.4487 48.1641 28.4408 48.1641 29.6645C48.1641 30.8882 49.1561 31.8802 50.3798 31.8802Z" fill="#FFB7B7"/>
<path id="Vector_43" d="M52.7019 30.2454C52.6818 30.2422 52.6617 30.238 52.6416 30.2348C52.296 30.1735 51.9504 30.1133 51.6058 30.0509L51.5741 29.2699L51.1566 29.9695C50.2043 30.2856 49.3133 30.1069 48.4752 29.7127C48.1987 29.5815 47.9304 29.4336 47.6719 29.2699C47.7423 28.8379 47.9084 28.4271 48.158 28.0675C48.4076 27.708 48.7345 27.4088 49.1146 27.1919C49.1463 27.1739 49.177 27.1581 49.2087 27.1422L49.2091 27.1421L49.2094 27.1419L49.2097 27.1416L49.2097 27.1412C49.2636 27.1158 49.3186 27.0915 49.3736 27.0693C49.8039 26.9011 50.273 26.8585 50.7266 26.9465C51.1801 27.0344 51.5993 27.2493 51.9356 27.566C52.612 28.2119 52.9164 29.2783 52.7019 30.2454Z" fill="#2F2E41"/>
</g>
<defs>
<clipPath id="clip0_438_7609">
<rect width="64.1513" height="60" fill="white"/>
</clipPath>
</defs>
</svg>
